<?xml version="1.0" standalone="no"?>
<!DOCTYPE svg PUBLIC "-//W3C//DTD SVG 1.1//EN" "http://www.w3.org/Graphics/SVG/1.1/DTD/svg11.dtd" >
<svg xmlns="http://www.w3.org/2000/svg">
<metadata></metadata>
<defs>
<font id="countybook" horiz-adv-x="2048" vert-adv-y="2048" >
<font-face units-per-em="2048" ascent="1638" descent="-410" />
<missing-glyph horiz-adv-x="500" />
<glyph horiz-adv-x="0" vert-adv-y="0" />
<glyph unicode="&#xd;" />
<glyph unicode="!" vert-adv-y="180" d="M1552 926q-6 -26 -24 -24l-186 34q-18 2 -12 28l4 30q4 26 24 22l184 -32q18 -4 14 -28zM1510 1302q-12 24 -30 16l-168 -84q-16 -10 -4 -32l14 -28q10 -22 28 -14l168 84q16 8 4 32zM1286 1542q-22 12 -32 -4l-92 -164q-8 -16 14 -30l26 -14q24 -14 32 4l92 162 q10 18 -14 30zM1324 1058q0 130 -92 223t-222 93v-118q82 0 139 -58t57 -140q0 -62 -34 -112t-90 -72h-54q-14 0 -18 -14v-4q-2 -2 -2 -4v-128q0 -22 20 -22h70q18 0 18 22v36q92 34 150 115t58 183zM452 926q4 -26 22 -24l186 34q18 2 14 28l-6 30q-4 26 -24 22l-184 -32 q-18 -4 -14 -28zM480 1276q-12 -24 4 -32l168 -84q18 -8 30 14l12 28q12 22 -4 32l-168 84q-18 8 -30 -16zM690 1526q-24 -12 -14 -30l92 -162q10 -18 32 -4l26 14q24 14 14 30l-92 164q-10 16 -32 4zM1196 680h-194v-118h194q16 0 27 11t11 27v44q0 14 -11 25t-27 11z M808 680h192v-118h-192q-16 0 -28 11t-12 27v44q0 14 12 25t28 11zM1180 540h-178v-118h178q14 0 25 11t11 27v44q0 14 -11 25t-25 11zM822 540h178v-118h-178q-14 0 -25 11t-11 27v44q0 14 11 25t25 11zM1164 400h-162v-118h162q14 0 23 11t9 27v42q0 16 -9 27t-23 11z M838 400h162v-118h-162q-14 0 -23 11t-9 27v42q0 16 9 27t23 11zM1002 252v-198q40 0 69 29t29 70t-29 70t-69 29zM1000 252v-198q-40 0 -69 29t-29 70t29 70t69 29zM1148 260h-146v-106h146q14 0 22 10t8 24v38q0 14 -8 24t-22 10zM854 260h146v-106h-146q-12 0 -21 10 t-9 24v38q0 14 9 24t21 10zM886 760v-36q0 -22 20 -22h68q20 0 20 22v128v4v4h-2q-4 14 -18 14h-54q-56 22 -90 72t-34 112q0 82 58 140t140 58v118q-132 0 -224 -93t-92 -223q0 -102 58 -183t150 -115z" />
<glyph unicode="&#x22;" vert-adv-y="180" d="M1552 926q-6 -26 -24 -24l-186 34q-18 2 -12 28l4 30q4 26 24 22l184 -32q18 -4 14 -28zM1510 1302q-12 24 -30 16l-168 -84q-16 -10 -4 -32l14 -28q10 -22 28 -14l168 84q16 8 4 32zM1286 1542q-22 12 -32 -4l-92 -164q-8 -16 14 -30l26 -14q24 -14 32 4l92 162 q10 18 -14 30zM1324 1058q0 130 -92 223t-222 93v-118q82 0 139 -58t57 -140q0 -62 -34 -112t-90 -72h-54q-14 0 -18 -14v-4q-2 -2 -2 -4v-128q0 -22 20 -22h70q18 0 18 22v36q92 34 150 115t58 183zM452 926q4 -26 22 -24l186 34q18 2 14 28l-6 30q-4 26 -24 22l-184 -32 q-18 -4 -14 -28zM480 1276q-12 -24 4 -32l168 -84q18 -8 30 14l12 28q12 22 -4 32l-168 84q-18 8 -30 -16zM690 1526q-24 -12 -14 -30l92 -162q10 -18 32 -4l26 14q24 14 14 30l-92 164q-10 16 -32 4zM1196 680h-194v-118h194q16 0 27 11t11 27v44q0 14 -11 25t-27 11z M808 680h192v-118h-192q-16 0 -28 11t-12 27v44q0 14 12 25t28 11zM1180 540h-178v-118h178q14 0 25 11t11 27v44q0 14 -11 25t-25 11zM822 540h178v-118h-178q-14 0 -25 11t-11 27v44q0 14 11 25t25 11zM1164 400h-162v-118h162q14 0 23 11t9 27v42q0 16 -9 27t-23 11z M838 400h162v-118h-162q-14 0 -23 11t-9 27v42q0 16 9 27t23 11zM1002 252v-198q40 0 69 29t29 70t-29 70t-69 29zM1000 252v-198q-40 0 -69 29t-29 70t29 70t69 29zM1148 260h-146v-106h146q14 0 22 10t8 24v38q0 14 -8 24t-22 10zM854 260h146v-106h-146q-12 0 -21 10 t-9 24v38q0 14 9 24t21 10zM886 760v-36q0 -22 20 -22h68q20 0 20 22v128v4v4h-2q-4 14 -18 14h-54q-56 22 -90 72t-34 112q0 82 58 140t140 58v118q-132 0 -224 -93t-92 -223q0 -102 58 -183t150 -115z" />
<glyph unicode="#" vert-adv-y="180" d="M1552 926q-6 -26 -24 -24l-186 34q-18 2 -12 28l4 30q4 26 24 22l184 -32q18 -4 14 -28zM1510 1302q-12 24 -30 16l-168 -84q-16 -10 -4 -32l14 -28q10 -22 28 -14l168 84q16 8 4 32zM1286 1542q-22 12 -32 -4l-92 -164q-8 -16 14 -30l26 -14q24 -14 32 4l92 162 q10 18 -14 30zM1324 1058q0 130 -92 223t-222 93v-118q82 0 139 -58t57 -140q0 -62 -34 -112t-90 -72h-54q-14 0 -18 -14v-4q-2 -2 -2 -4v-128q0 -22 20 -22h70q18 0 18 22v36q92 34 150 115t58 183zM452 926q4 -26 22 -24l186 34q18 2 14 28l-6 30q-4 26 -24 22l-184 -32 q-18 -4 -14 -28zM480 1276q-12 -24 4 -32l168 -84q18 -8 30 14l12 28q12 22 -4 32l-168 84q-18 8 -30 -16zM690 1526q-24 -12 -14 -30l92 -162q10 -18 32 -4l26 14q24 14 14 30l-92 164q-10 16 -32 4zM1196 680h-194v-118h194q16 0 27 11t11 27v44q0 14 -11 25t-27 11z M808 680h192v-118h-192q-16 0 -28 11t-12 27v44q0 14 12 25t28 11zM1180 540h-178v-118h178q14 0 25 11t11 27v44q0 14 -11 25t-25 11zM822 540h178v-118h-178q-14 0 -25 11t-11 27v44q0 14 11 25t25 11zM1164 400h-162v-118h162q14 0 23 11t9 27v42q0 16 -9 27t-23 11z M838 400h162v-118h-162q-14 0 -23 11t-9 27v42q0 16 9 27t23 11zM1002 252v-198q40 0 69 29t29 70t-29 70t-69 29zM1000 252v-198q-40 0 -69 29t-29 70t29 70t69 29zM1148 260h-146v-106h146q14 0 22 10t8 24v38q0 14 -8 24t-22 10zM854 260h146v-106h-146q-12 0 -21 10 t-9 24v38q0 14 9 24t21 10zM886 760v-36q0 -22 20 -22h68q20 0 20 22v128v4v4h-2q-4 14 -18 14h-54q-56 22 -90 72t-34 112q0 82 58 140t140 58v118q-132 0 -224 -93t-92 -223q0 -102 58 -183t150 -115z" />
<glyph unicode="$" vert-adv-y="180" d="M1552 926q-6 -26 -24 -24l-186 34q-18 2 -12 28l4 30q4 26 24 22l184 -32q18 -4 14 -28zM1510 1302q-12 24 -30 16l-168 -84q-16 -10 -4 -32l14 -28q10 -22 28 -14l168 84q16 8 4 32zM1286 1542q-22 12 -32 -4l-92 -164q-8 -16 14 -30l26 -14q24 -14 32 4l92 162 q10 18 -14 30zM1324 1058q0 130 -92 223t-222 93v-118q82 0 139 -58t57 -140q0 -62 -34 -112t-90 -72h-54q-14 0 -18 -14v-4q-2 -2 -2 -4v-128q0 -22 20 -22h70q18 0 18 22v36q92 34 150 115t58 183zM452 926q4 -26 22 -24l186 34q18 2 14 28l-6 30q-4 26 -24 22l-184 -32 q-18 -4 -14 -28zM480 1276q-12 -24 4 -32l168 -84q18 -8 30 14l12 28q12 22 -4 32l-168 84q-18 8 -30 -16zM690 1526q-24 -12 -14 -30l92 -162q10 -18 32 -4l26 14q24 14 14 30l-92 164q-10 16 -32 4zM1196 680h-194v-118h194q16 0 27 11t11 27v44q0 14 -11 25t-27 11z M808 680h192v-118h-192q-16 0 -28 11t-12 27v44q0 14 12 25t28 11zM1180 540h-178v-118h178q14 0 25 11t11 27v44q0 14 -11 25t-25 11zM822 540h178v-118h-178q-14 0 -25 11t-11 27v44q0 14 11 25t25 11zM1164 400h-162v-118h162q14 0 23 11t9 27v42q0 16 -9 27t-23 11z M838 400h162v-118h-162q-14 0 -23 11t-9 27v42q0 16 9 27t23 11zM1002 252v-198q40 0 69 29t29 70t-29 70t-69 29zM1000 252v-198q-40 0 -69 29t-29 70t29 70t69 29zM1148 260h-146v-106h146q14 0 22 10t8 24v38q0 14 -8 24t-22 10zM854 260h146v-106h-146q-12 0 -21 10 t-9 24v38q0 14 9 24t21 10zM886 760v-36q0 -22 20 -22h68q20 0 20 22v128v4v4h-2q-4 14 -18 14h-54q-56 22 -90 72t-34 112q0 82 58 140t140 58v118q-132 0 -224 -93t-92 -223q0 -102 58 -183t150 -115z" />
<glyph unicode="%" vert-adv-y="180" d="M1552 926q-6 -26 -24 -24l-186 34q-18 2 -12 28l4 30q4 26 24 22l184 -32q18 -4 14 -28zM1510 1302q-12 24 -30 16l-168 -84q-16 -10 -4 -32l14 -28q10 -22 28 -14l168 84q16 8 4 32zM1286 1542q-22 12 -32 -4l-92 -164q-8 -16 14 -30l26 -14q24 -14 32 4l92 162 q10 18 -14 30zM1324 1058q0 130 -92 223t-222 93v-118q82 0 139 -58t57 -140q0 -62 -34 -112t-90 -72h-54q-14 0 -18 -14v-4q-2 -2 -2 -4v-128q0 -22 20 -22h70q18 0 18 22v36q92 34 150 115t58 183zM452 926q4 -26 22 -24l186 34q18 2 14 28l-6 30q-4 26 -24 22l-184 -32 q-18 -4 -14 -28zM480 1276q-12 -24 4 -32l168 -84q18 -8 30 14l12 28q12 22 -4 32l-168 84q-18 8 -30 -16zM690 1526q-24 -12 -14 -30l92 -162q10 -18 32 -4l26 14q24 14 14 30l-92 164q-10 16 -32 4zM1196 680h-194v-118h194q16 0 27 11t11 27v44q0 14 -11 25t-27 11z M808 680h192v-118h-192q-16 0 -28 11t-12 27v44q0 14 12 25t28 11zM1180 540h-178v-118h178q14 0 25 11t11 27v44q0 14 -11 25t-25 11zM822 540h178v-118h-178q-14 0 -25 11t-11 27v44q0 14 11 25t25 11zM1164 400h-162v-118h162q14 0 23 11t9 27v42q0 16 -9 27t-23 11z M838 400h162v-118h-162q-14 0 -23 11t-9 27v42q0 16 9 27t23 11zM1002 252v-198q40 0 69 29t29 70t-29 70t-69 29zM1000 252v-198q-40 0 -69 29t-29 70t29 70t69 29zM1148 260h-146v-106h146q14 0 22 10t8 24v38q0 14 -8 24t-22 10zM854 260h146v-106h-146q-12 0 -21 10 t-9 24v38q0 14 9 24t21 10zM886 760v-36q0 -22 20 -22h68q20 0 20 22v128v4v4h-2q-4 14 -18 14h-54q-56 22 -90 72t-34 112q0 82 58 140t140 58v118q-132 0 -224 -93t-92 -223q0 -102 58 -183t150 -115z" />
<glyph unicode="&#x26;" vert-adv-y="180" d="M1552 926q-6 -26 -24 -24l-186 34q-18 2 -12 28l4 30q4 26 24 22l184 -32q18 -4 14 -28zM1510 1302q-12 24 -30 16l-168 -84q-16 -10 -4 -32l14 -28q10 -22 28 -14l168 84q16 8 4 32zM1286 1542q-22 12 -32 -4l-92 -164q-8 -16 14 -30l26 -14q24 -14 32 4l92 162 q10 18 -14 30zM1324 1058q0 130 -92 223t-222 93v-118q82 0 139 -58t57 -140q0 -62 -34 -112t-90 -72h-54q-14 0 -18 -14v-4q-2 -2 -2 -4v-128q0 -22 20 -22h70q18 0 18 22v36q92 34 150 115t58 183zM452 926q4 -26 22 -24l186 34q18 2 14 28l-6 30q-4 26 -24 22l-184 -32 q-18 -4 -14 -28zM480 1276q-12 -24 4 -32l168 -84q18 -8 30 14l12 28q12 22 -4 32l-168 84q-18 8 -30 -16zM690 1526q-24 -12 -14 -30l92 -162q10 -18 32 -4l26 14q24 14 14 30l-92 164q-10 16 -32 4zM1196 680h-194v-118h194q16 0 27 11t11 27v44q0 14 -11 25t-27 11z M808 680h192v-118h-192q-16 0 -28 11t-12 27v44q0 14 12 25t28 11zM1180 540h-178v-118h178q14 0 25 11t11 27v44q0 14 -11 25t-25 11zM822 540h178v-118h-178q-14 0 -25 11t-11 27v44q0 14 11 25t25 11zM1164 400h-162v-118h162q14 0 23 11t9 27v42q0 16 -9 27t-23 11z M838 400h162v-118h-162q-14 0 -23 11t-9 27v42q0 16 9 27t23 11zM1002 252v-198q40 0 69 29t29 70t-29 70t-69 29zM1000 252v-198q-40 0 -69 29t-29 70t29 70t69 29zM1148 260h-146v-106h146q14 0 22 10t8 24v38q0 14 -8 24t-22 10zM854 260h146v-106h-146q-12 0 -21 10 t-9 24v38q0 14 9 24t21 10zM886 760v-36q0 -22 20 -22h68q20 0 20 22v128v4v4h-2q-4 14 -18 14h-54q-56 22 -90 72t-34 112q0 82 58 140t140 58v118q-132 0 -224 -93t-92 -223q0 -102 58 -183t150 -115z" />
<glyph unicode="'" vert-adv-y="180" d="M1552 926q-6 -26 -24 -24l-186 34q-18 2 -12 28l4 30q4 26 24 22l184 -32q18 -4 14 -28zM1510 1302q-12 24 -30 16l-168 -84q-16 -10 -4 -32l14 -28q10 -22 28 -14l168 84q16 8 4 32zM1286 1542q-22 12 -32 -4l-92 -164q-8 -16 14 -30l26 -14q24 -14 32 4l92 162 q10 18 -14 30zM1324 1058q0 130 -92 223t-222 93v-118q82 0 139 -58t57 -140q0 -62 -34 -112t-90 -72h-54q-14 0 -18 -14v-4q-2 -2 -2 -4v-128q0 -22 20 -22h70q18 0 18 22v36q92 34 150 115t58 183zM452 926q4 -26 22 -24l186 34q18 2 14 28l-6 30q-4 26 -24 22l-184 -32 q-18 -4 -14 -28zM480 1276q-12 -24 4 -32l168 -84q18 -8 30 14l12 28q12 22 -4 32l-168 84q-18 8 -30 -16zM690 1526q-24 -12 -14 -30l92 -162q10 -18 32 -4l26 14q24 14 14 30l-92 164q-10 16 -32 4zM1196 680h-194v-118h194q16 0 27 11t11 27v44q0 14 -11 25t-27 11z M808 680h192v-118h-192q-16 0 -28 11t-12 27v44q0 14 12 25t28 11zM1180 540h-178v-118h178q14 0 25 11t11 27v44q0 14 -11 25t-25 11zM822 540h178v-118h-178q-14 0 -25 11t-11 27v44q0 14 11 25t25 11zM1164 400h-162v-118h162q14 0 23 11t9 27v42q0 16 -9 27t-23 11z M838 400h162v-118h-162q-14 0 -23 11t-9 27v42q0 16 9 27t23 11zM1002 252v-198q40 0 69 29t29 70t-29 70t-69 29zM1000 252v-198q-40 0 -69 29t-29 70t29 70t69 29zM1148 260h-146v-106h146q14 0 22 10t8 24v38q0 14 -8 24t-22 10zM854 260h146v-106h-146q-12 0 -21 10 t-9 24v38q0 14 9 24t21 10zM886 760v-36q0 -22 20 -22h68q20 0 20 22v128v4v4h-2q-4 14 -18 14h-54q-56 22 -90 72t-34 112q0 82 58 140t140 58v118q-132 0 -224 -93t-92 -223q0 -102 58 -183t150 -115z" />
<glyph unicode="(" vert-adv-y="180" d="M1552 926q-6 -26 -24 -24l-186 34q-18 2 -12 28l4 30q4 26 24 22l184 -32q18 -4 14 -28zM1510 1302q-12 24 -30 16l-168 -84q-16 -10 -4 -32l14 -28q10 -22 28 -14l168 84q16 8 4 32zM1286 1542q-22 12 -32 -4l-92 -164q-8 -16 14 -30l26 -14q24 -14 32 4l92 162 q10 18 -14 30zM1324 1058q0 130 -92 223t-222 93v-118q82 0 139 -58t57 -140q0 -62 -34 -112t-90 -72h-54q-14 0 -18 -14v-4q-2 -2 -2 -4v-128q0 -22 20 -22h70q18 0 18 22v36q92 34 150 115t58 183zM452 926q4 -26 22 -24l186 34q18 2 14 28l-6 30q-4 26 -24 22l-184 -32 q-18 -4 -14 -28zM480 1276q-12 -24 4 -32l168 -84q18 -8 30 14l12 28q12 22 -4 32l-168 84q-18 8 -30 -16zM690 1526q-24 -12 -14 -30l92 -162q10 -18 32 -4l26 14q24 14 14 30l-92 164q-10 16 -32 4zM1196 680h-194v-118h194q16 0 27 11t11 27v44q0 14 -11 25t-27 11z M808 680h192v-118h-192q-16 0 -28 11t-12 27v44q0 14 12 25t28 11zM1180 540h-178v-118h178q14 0 25 11t11 27v44q0 14 -11 25t-25 11zM822 540h178v-118h-178q-14 0 -25 11t-11 27v44q0 14 11 25t25 11zM1164 400h-162v-118h162q14 0 23 11t9 27v42q0 16 -9 27t-23 11z M838 400h162v-118h-162q-14 0 -23 11t-9 27v42q0 16 9 27t23 11zM1002 252v-198q40 0 69 29t29 70t-29 70t-69 29zM1000 252v-198q-40 0 -69 29t-29 70t29 70t69 29zM1148 260h-146v-106h146q14 0 22 10t8 24v38q0 14 -8 24t-22 10zM854 260h146v-106h-146q-12 0 -21 10 t-9 24v38q0 14 9 24t21 10zM886 760v-36q0 -22 20 -22h68q20 0 20 22v128v4v4h-2q-4 14 -18 14h-54q-56 22 -90 72t-34 112q0 82 58 140t140 58v118q-132 0 -224 -93t-92 -223q0 -102 58 -183t150 -115z" />
<glyph unicode=")" vert-adv-y="180" d="M1552 926q-6 -26 -24 -24l-186 34q-18 2 -12 28l4 30q4 26 24 22l184 -32q18 -4 14 -28zM1510 1302q-12 24 -30 16l-168 -84q-16 -10 -4 -32l14 -28q10 -22 28 -14l168 84q16 8 4 32zM1286 1542q-22 12 -32 -4l-92 -164q-8 -16 14 -30l26 -14q24 -14 32 4l92 162 q10 18 -14 30zM1324 1058q0 130 -92 223t-222 93v-118q82 0 139 -58t57 -140q0 -62 -34 -112t-90 -72h-54q-14 0 -18 -14v-4q-2 -2 -2 -4v-128q0 -22 20 -22h70q18 0 18 22v36q92 34 150 115t58 183zM452 926q4 -26 22 -24l186 34q18 2 14 28l-6 30q-4 26 -24 22l-184 -32 q-18 -4 -14 -28zM480 1276q-12 -24 4 -32l168 -84q18 -8 30 14l12 28q12 22 -4 32l-168 84q-18 8 -30 -16zM690 1526q-24 -12 -14 -30l92 -162q10 -18 32 -4l26 14q24 14 14 30l-92 164q-10 16 -32 4zM1196 680h-194v-118h194q16 0 27 11t11 27v44q0 14 -11 25t-27 11z M808 680h192v-118h-192q-16 0 -28 11t-12 27v44q0 14 12 25t28 11zM1180 540h-178v-118h178q14 0 25 11t11 27v44q0 14 -11 25t-25 11zM822 540h178v-118h-178q-14 0 -25 11t-11 27v44q0 14 11 25t25 11zM1164 400h-162v-118h162q14 0 23 11t9 27v42q0 16 -9 27t-23 11z M838 400h162v-118h-162q-14 0 -23 11t-9 27v42q0 16 9 27t23 11zM1002 252v-198q40 0 69 29t29 70t-29 70t-69 29zM1000 252v-198q-40 0 -69 29t-29 70t29 70t69 29zM1148 260h-146v-106h146q14 0 22 10t8 24v38q0 14 -8 24t-22 10zM854 260h146v-106h-146q-12 0 -21 10 t-9 24v38q0 14 9 24t21 10zM886 760v-36q0 -22 20 -22h68q20 0 20 22v128v4v4h-2q-4 14 -18 14h-54q-56 22 -90 72t-34 112q0 82 58 140t140 58v118q-132 0 -224 -93t-92 -223q0 -102 58 -183t150 -115z" />
<glyph unicode="*" vert-adv-y="180" d="M1552 926q-6 -26 -24 -24l-186 34q-18 2 -12 28l4 30q4 26 24 22l184 -32q18 -4 14 -28zM1510 1302q-12 24 -30 16l-168 -84q-16 -10 -4 -32l14 -28q10 -22 28 -14l168 84q16 8 4 32zM1286 1542q-22 12 -32 -4l-92 -164q-8 -16 14 -30l26 -14q24 -14 32 4l92 162 q10 18 -14 30zM1324 1058q0 130 -92 223t-222 93v-118q82 0 139 -58t57 -140q0 -62 -34 -112t-90 -72h-54q-14 0 -18 -14v-4q-2 -2 -2 -4v-128q0 -22 20 -22h70q18 0 18 22v36q92 34 150 115t58 183zM452 926q4 -26 22 -24l186 34q18 2 14 28l-6 30q-4 26 -24 22l-184 -32 q-18 -4 -14 -28zM480 1276q-12 -24 4 -32l168 -84q18 -8 30 14l12 28q12 22 -4 32l-168 84q-18 8 -30 -16zM690 1526q-24 -12 -14 -30l92 -162q10 -18 32 -4l26 14q24 14 14 30l-92 164q-10 16 -32 4zM1196 680h-194v-118h194q16 0 27 11t11 27v44q0 14 -11 25t-27 11z M808 680h192v-118h-192q-16 0 -28 11t-12 27v44q0 14 12 25t28 11zM1180 540h-178v-118h178q14 0 25 11t11 27v44q0 14 -11 25t-25 11zM822 540h178v-118h-178q-14 0 -25 11t-11 27v44q0 14 11 25t25 11zM1164 400h-162v-118h162q14 0 23 11t9 27v42q0 16 -9 27t-23 11z M838 400h162v-118h-162q-14 0 -23 11t-9 27v42q0 16 9 27t23 11zM1002 252v-198q40 0 69 29t29 70t-29 70t-69 29zM1000 252v-198q-40 0 -69 29t-29 70t29 70t69 29zM1148 260h-146v-106h146q14 0 22 10t8 24v38q0 14 -8 24t-22 10zM854 260h146v-106h-146q-12 0 -21 10 t-9 24v38q0 14 9 24t21 10zM886 760v-36q0 -22 20 -22h68q20 0 20 22v128v4v4h-2q-4 14 -18 14h-54q-56 22 -90 72t-34 112q0 82 58 140t140 58v118q-132 0 -224 -93t-92 -223q0 -102 58 -183t150 -115z" />
<glyph unicode="+" vert-adv-y="180" d="M1552 926q-6 -26 -24 -24l-186 34q-18 2 -12 28l4 30q4 26 24 22l184 -32q18 -4 14 -28zM1510 1302q-12 24 -30 16l-168 -84q-16 -10 -4 -32l14 -28q10 -22 28 -14l168 84q16 8 4 32zM1286 1542q-22 12 -32 -4l-92 -164q-8 -16 14 -30l26 -14q24 -14 32 4l92 162 q10 18 -14 30zM1324 1058q0 130 -92 223t-222 93v-118q82 0 139 -58t57 -140q0 -62 -34 -112t-90 -72h-54q-14 0 -18 -14v-4q-2 -2 -2 -4v-128q0 -22 20 -22h70q18 0 18 22v36q92 34 150 115t58 183zM452 926q4 -26 22 -24l186 34q18 2 14 28l-6 30q-4 26 -24 22l-184 -32 q-18 -4 -14 -28zM480 1276q-12 -24 4 -32l168 -84q18 -8 30 14l12 28q12 22 -4 32l-168 84q-18 8 -30 -16zM690 1526q-24 -12 -14 -30l92 -162q10 -18 32 -4l26 14q24 14 14 30l-92 164q-10 16 -32 4zM1196 680h-194v-118h194q16 0 27 11t11 27v44q0 14 -11 25t-27 11z M808 680h192v-118h-192q-16 0 -28 11t-12 27v44q0 14 12 25t28 11zM1180 540h-178v-118h178q14 0 25 11t11 27v44q0 14 -11 25t-25 11zM822 540h178v-118h-178q-14 0 -25 11t-11 27v44q0 14 11 25t25 11zM1164 400h-162v-118h162q14 0 23 11t9 27v42q0 16 -9 27t-23 11z M838 400h162v-118h-162q-14 0 -23 11t-9 27v42q0 16 9 27t23 11zM1002 252v-198q40 0 69 29t29 70t-29 70t-69 29zM1000 252v-198q-40 0 -69 29t-29 70t29 70t69 29zM1148 260h-146v-106h146q14 0 22 10t8 24v38q0 14 -8 24t-22 10zM854 260h146v-106h-146q-12 0 -21 10 t-9 24v38q0 14 9 24t21 10zM886 760v-36q0 -22 20 -22h68q20 0 20 22v128v4v4h-2q-4 14 -18 14h-54q-56 22 -90 72t-34 112q0 82 58 140t140 58v118q-132 0 -224 -93t-92 -223q0 -102 58 -183t150 -115z" />
<glyph unicode="," vert-adv-y="180" d="M1552 926q-6 -26 -24 -24l-186 34q-18 2 -12 28l4 30q4 26 24 22l184 -32q18 -4 14 -28zM1510 1302q-12 24 -30 16l-168 -84q-16 -10 -4 -32l14 -28q10 -22 28 -14l168 84q16 8 4 32zM1286 1542q-22 12 -32 -4l-92 -164q-8 -16 14 -30l26 -14q24 -14 32 4l92 162 q10 18 -14 30zM1324 1058q0 130 -92 223t-222 93v-118q82 0 139 -58t57 -140q0 -62 -34 -112t-90 -72h-54q-14 0 -18 -14v-4q-2 -2 -2 -4v-128q0 -22 20 -22h70q18 0 18 22v36q92 34 150 115t58 183zM452 926q4 -26 22 -24l186 34q18 2 14 28l-6 30q-4 26 -24 22l-184 -32 q-18 -4 -14 -28zM480 1276q-12 -24 4 -32l168 -84q18 -8 30 14l12 28q12 22 -4 32l-168 84q-18 8 -30 -16zM690 1526q-24 -12 -14 -30l92 -162q10 -18 32 -4l26 14q24 14 14 30l-92 164q-10 16 -32 4zM1196 680h-194v-118h194q16 0 27 11t11 27v44q0 14 -11 25t-27 11z M808 680h192v-118h-192q-16 0 -28 11t-12 27v44q0 14 12 25t28 11zM1180 540h-178v-118h178q14 0 25 11t11 27v44q0 14 -11 25t-25 11zM822 540h178v-118h-178q-14 0 -25 11t-11 27v44q0 14 11 25t25 11zM1164 400h-162v-118h162q14 0 23 11t9 27v42q0 16 -9 27t-23 11z M838 400h162v-118h-162q-14 0 -23 11t-9 27v42q0 16 9 27t23 11zM1002 252v-198q40 0 69 29t29 70t-29 70t-69 29zM1000 252v-198q-40 0 -69 29t-29 70t29 70t69 29zM1148 260h-146v-106h146q14 0 22 10t8 24v38q0 14 -8 24t-22 10zM854 260h146v-106h-146q-12 0 -21 10 t-9 24v38q0 14 9 24t21 10zM886 760v-36q0 -22 20 -22h68q20 0 20 22v128v4v4h-2q-4 14 -18 14h-54q-56 22 -90 72t-34 112q0 82 58 140t140 58v118q-132 0 -224 -93t-92 -223q0 -102 58 -183t150 -115z" />
<glyph unicode="-" vert-adv-y="180" d="M1552 926q-6 -26 -24 -24l-186 34q-18 2 -12 28l4 30q4 26 24 22l184 -32q18 -4 14 -28zM1510 1302q-12 24 -30 16l-168 -84q-16 -10 -4 -32l14 -28q10 -22 28 -14l168 84q16 8 4 32zM1286 1542q-22 12 -32 -4l-92 -164q-8 -16 14 -30l26 -14q24 -14 32 4l92 162 q10 18 -14 30zM1324 1058q0 130 -92 223t-222 93v-118q82 0 139 -58t57 -140q0 -62 -34 -112t-90 -72h-54q-14 0 -18 -14v-4q-2 -2 -2 -4v-128q0 -22 20 -22h70q18 0 18 22v36q92 34 150 115t58 183zM452 926q4 -26 22 -24l186 34q18 2 14 28l-6 30q-4 26 -24 22l-184 -32 q-18 -4 -14 -28zM480 1276q-12 -24 4 -32l168 -84q18 -8 30 14l12 28q12 22 -4 32l-168 84q-18 8 -30 -16zM690 1526q-24 -12 -14 -30l92 -162q10 -18 32 -4l26 14q24 14 14 30l-92 164q-10 16 -32 4zM1196 680h-194v-118h194q16 0 27 11t11 27v44q0 14 -11 25t-27 11z M808 680h192v-118h-192q-16 0 -28 11t-12 27v44q0 14 12 25t28 11zM1180 540h-178v-118h178q14 0 25 11t11 27v44q0 14 -11 25t-25 11zM822 540h178v-118h-178q-14 0 -25 11t-11 27v44q0 14 11 25t25 11zM1164 400h-162v-118h162q14 0 23 11t9 27v42q0 16 -9 27t-23 11z M838 400h162v-118h-162q-14 0 -23 11t-9 27v42q0 16 9 27t23 11zM1002 252v-198q40 0 69 29t29 70t-29 70t-69 29zM1000 252v-198q-40 0 -69 29t-29 70t29 70t69 29zM1148 260h-146v-106h146q14 0 22 10t8 24v38q0 14 -8 24t-22 10zM854 260h146v-106h-146q-12 0 -21 10 t-9 24v38q0 14 9 24t21 10zM886 760v-36q0 -22 20 -22h68q20 0 20 22v128v4v4h-2q-4 14 -18 14h-54q-56 22 -90 72t-34 112q0 82 58 140t140 58v118q-132 0 -224 -93t-92 -223q0 -102 58 -183t150 -115z" />
<glyph unicode="." vert-adv-y="180" d="M1552 926q-6 -26 -24 -24l-186 34q-18 2 -12 28l4 30q4 26 24 22l184 -32q18 -4 14 -28zM1510 1302q-12 24 -30 16l-168 -84q-16 -10 -4 -32l14 -28q10 -22 28 -14l168 84q16 8 4 32zM1286 1542q-22 12 -32 -4l-92 -164q-8 -16 14 -30l26 -14q24 -14 32 4l92 162 q10 18 -14 30zM1324 1058q0 130 -92 223t-222 93v-118q82 0 139 -58t57 -140q0 -62 -34 -112t-90 -72h-54q-14 0 -18 -14v-4q-2 -2 -2 -4v-128q0 -22 20 -22h70q18 0 18 22v36q92 34 150 115t58 183zM452 926q4 -26 22 -24l186 34q18 2 14 28l-6 30q-4 26 -24 22l-184 -32 q-18 -4 -14 -28zM480 1276q-12 -24 4 -32l168 -84q18 -8 30 14l12 28q12 22 -4 32l-168 84q-18 8 -30 -16zM690 1526q-24 -12 -14 -30l92 -162q10 -18 32 -4l26 14q24 14 14 30l-92 164q-10 16 -32 4zM1196 680h-194v-118h194q16 0 27 11t11 27v44q0 14 -11 25t-27 11z M808 680h192v-118h-192q-16 0 -28 11t-12 27v44q0 14 12 25t28 11zM1180 540h-178v-118h178q14 0 25 11t11 27v44q0 14 -11 25t-25 11zM822 540h178v-118h-178q-14 0 -25 11t-11 27v44q0 14 11 25t25 11zM1164 400h-162v-118h162q14 0 23 11t9 27v42q0 16 -9 27t-23 11z M838 400h162v-118h-162q-14 0 -23 11t-9 27v42q0 16 9 27t23 11zM1002 252v-198q40 0 69 29t29 70t-29 70t-69 29zM1000 252v-198q-40 0 -69 29t-29 70t29 70t69 29zM1148 260h-146v-106h146q14 0 22 10t8 24v38q0 14 -8 24t-22 10zM854 260h146v-106h-146q-12 0 -21 10 t-9 24v38q0 14 9 24t21 10zM886 760v-36q0 -22 20 -22h68q20 0 20 22v128v4v4h-2q-4 14 -18 14h-54q-56 22 -90 72t-34 112q0 82 58 140t140 58v118q-132 0 -224 -93t-92 -223q0 -102 58 -183t150 -115z" />
<glyph unicode="/" vert-adv-y="180" d="M1552 926q-6 -26 -24 -24l-186 34q-18 2 -12 28l4 30q4 26 24 22l184 -32q18 -4 14 -28zM1510 1302q-12 24 -30 16l-168 -84q-16 -10 -4 -32l14 -28q10 -22 28 -14l168 84q16 8 4 32zM1286 1542q-22 12 -32 -4l-92 -164q-8 -16 14 -30l26 -14q24 -14 32 4l92 162 q10 18 -14 30zM1324 1058q0 130 -92 223t-222 93v-118q82 0 139 -58t57 -140q0 -62 -34 -112t-90 -72h-54q-14 0 -18 -14v-4q-2 -2 -2 -4v-128q0 -22 20 -22h70q18 0 18 22v36q92 34 150 115t58 183zM452 926q4 -26 22 -24l186 34q18 2 14 28l-6 30q-4 26 -24 22l-184 -32 q-18 -4 -14 -28zM480 1276q-12 -24 4 -32l168 -84q18 -8 30 14l12 28q12 22 -4 32l-168 84q-18 8 -30 -16zM690 1526q-24 -12 -14 -30l92 -162q10 -18 32 -4l26 14q24 14 14 30l-92 164q-10 16 -32 4zM1196 680h-194v-118h194q16 0 27 11t11 27v44q0 14 -11 25t-27 11z M808 680h192v-118h-192q-16 0 -28 11t-12 27v44q0 14 12 25t28 11zM1180 540h-178v-118h178q14 0 25 11t11 27v44q0 14 -11 25t-25 11zM822 540h178v-118h-178q-14 0 -25 11t-11 27v44q0 14 11 25t25 11zM1164 400h-162v-118h162q14 0 23 11t9 27v42q0 16 -9 27t-23 11z M838 400h162v-118h-162q-14 0 -23 11t-9 27v42q0 16 9 27t23 11zM1002 252v-198q40 0 69 29t29 70t-29 70t-69 29zM1000 252v-198q-40 0 -69 29t-29 70t29 70t69 29zM1148 260h-146v-106h146q14 0 22 10t8 24v38q0 14 -8 24t-22 10zM854 260h146v-106h-146q-12 0 -21 10 t-9 24v38q0 14 9 24t21 10zM886 760v-36q0 -22 20 -22h68q20 0 20 22v128v4v4h-2q-4 14 -18 14h-54q-56 22 -90 72t-34 112q0 82 58 140t140 58v118q-132 0 -224 -93t-92 -223q0 -102 58 -183t150 -115z" />
<glyph unicode="0" vert-adv-y="180" d="M1552 926q-6 -26 -24 -24l-186 34q-18 2 -12 28l4 30q4 26 24 22l184 -32q18 -4 14 -28zM1510 1302q-12 24 -30 16l-168 -84q-16 -10 -4 -32l14 -28q10 -22 28 -14l168 84q16 8 4 32zM1286 1542q-22 12 -32 -4l-92 -164q-8 -16 14 -30l26 -14q24 -14 32 4l92 162 q10 18 -14 30zM1324 1058q0 130 -92 223t-222 93v-118q82 0 139 -58t57 -140q0 -62 -34 -112t-90 -72h-54q-14 0 -18 -14v-4q-2 -2 -2 -4v-128q0 -22 20 -22h70q18 0 18 22v36q92 34 150 115t58 183zM452 926q4 -26 22 -24l186 34q18 2 14 28l-6 30q-4 26 -24 22l-184 -32 q-18 -4 -14 -28zM480 1276q-12 -24 4 -32l168 -84q18 -8 30 14l12 28q12 22 -4 32l-168 84q-18 8 -30 -16zM690 1526q-24 -12 -14 -30l92 -162q10 -18 32 -4l26 14q24 14 14 30l-92 164q-10 16 -32 4zM1196 680h-194v-118h194q16 0 27 11t11 27v44q0 14 -11 25t-27 11z M808 680h192v-118h-192q-16 0 -28 11t-12 27v44q0 14 12 25t28 11zM1180 540h-178v-118h178q14 0 25 11t11 27v44q0 14 -11 25t-25 11zM822 540h178v-118h-178q-14 0 -25 11t-11 27v44q0 14 11 25t25 11zM1164 400h-162v-118h162q14 0 23 11t9 27v42q0 16 -9 27t-23 11z M838 400h162v-118h-162q-14 0 -23 11t-9 27v42q0 16 9 27t23 11zM1002 252v-198q40 0 69 29t29 70t-29 70t-69 29zM1000 252v-198q-40 0 -69 29t-29 70t29 70t69 29zM1148 260h-146v-106h146q14 0 22 10t8 24v38q0 14 -8 24t-22 10zM854 260h146v-106h-146q-12 0 -21 10 t-9 24v38q0 14 9 24t21 10zM886 760v-36q0 -22 20 -22h68q20 0 20 22v128v4v4h-2q-4 14 -18 14h-54q-56 22 -90 72t-34 112q0 82 58 140t140 58v118q-132 0 -224 -93t-92 -223q0 -102 58 -183t150 -115z" />
<glyph unicode="1" vert-adv-y="180" d="M1552 926q-6 -26 -24 -24l-186 34q-18 2 -12 28l4 30q4 26 24 22l184 -32q18 -4 14 -28zM1510 1302q-12 24 -30 16l-168 -84q-16 -10 -4 -32l14 -28q10 -22 28 -14l168 84q16 8 4 32zM1286 1542q-22 12 -32 -4l-92 -164q-8 -16 14 -30l26 -14q24 -14 32 4l92 162 q10 18 -14 30zM1324 1058q0 130 -92 223t-222 93v-118q82 0 139 -58t57 -140q0 -62 -34 -112t-90 -72h-54q-14 0 -18 -14v-4q-2 -2 -2 -4v-128q0 -22 20 -22h70q18 0 18 22v36q92 34 150 115t58 183zM452 926q4 -26 22 -24l186 34q18 2 14 28l-6 30q-4 26 -24 22l-184 -32 q-18 -4 -14 -28zM480 1276q-12 -24 4 -32l168 -84q18 -8 30 14l12 28q12 22 -4 32l-168 84q-18 8 -30 -16zM690 1526q-24 -12 -14 -30l92 -162q10 -18 32 -4l26 14q24 14 14 30l-92 164q-10 16 -32 4zM1196 680h-194v-118h194q16 0 27 11t11 27v44q0 14 -11 25t-27 11z M808 680h192v-118h-192q-16 0 -28 11t-12 27v44q0 14 12 25t28 11zM1180 540h-178v-118h178q14 0 25 11t11 27v44q0 14 -11 25t-25 11zM822 540h178v-118h-178q-14 0 -25 11t-11 27v44q0 14 11 25t25 11zM1164 400h-162v-118h162q14 0 23 11t9 27v42q0 16 -9 27t-23 11z M838 400h162v-118h-162q-14 0 -23 11t-9 27v42q0 16 9 27t23 11zM1002 252v-198q40 0 69 29t29 70t-29 70t-69 29zM1000 252v-198q-40 0 -69 29t-29 70t29 70t69 29zM1148 260h-146v-106h146q14 0 22 10t8 24v38q0 14 -8 24t-22 10zM854 260h146v-106h-146q-12 0 -21 10 t-9 24v38q0 14 9 24t21 10zM886 760v-36q0 -22 20 -22h68q20 0 20 22v128v4v4h-2q-4 14 -18 14h-54q-56 22 -90 72t-34 112q0 82 58 140t140 58v118q-132 0 -224 -93t-92 -223q0 -102 58 -183t150 -115z" />
<glyph unicode="2" vert-adv-y="180" d="M1552 926q-6 -26 -24 -24l-186 34q-18 2 -12 28l4 30q4 26 24 22l184 -32q18 -4 14 -28zM1510 1302q-12 24 -30 16l-168 -84q-16 -10 -4 -32l14 -28q10 -22 28 -14l168 84q16 8 4 32zM1286 1542q-22 12 -32 -4l-92 -164q-8 -16 14 -30l26 -14q24 -14 32 4l92 162 q10 18 -14 30zM1324 1058q0 130 -92 223t-222 93v-118q82 0 139 -58t57 -140q0 -62 -34 -112t-90 -72h-54q-14 0 -18 -14v-4q-2 -2 -2 -4v-128q0 -22 20 -22h70q18 0 18 22v36q92 34 150 115t58 183zM452 926q4 -26 22 -24l186 34q18 2 14 28l-6 30q-4 26 -24 22l-184 -32 q-18 -4 -14 -28zM480 1276q-12 -24 4 -32l168 -84q18 -8 30 14l12 28q12 22 -4 32l-168 84q-18 8 -30 -16zM690 1526q-24 -12 -14 -30l92 -162q10 -18 32 -4l26 14q24 14 14 30l-92 164q-10 16 -32 4zM1196 680h-194v-118h194q16 0 27 11t11 27v44q0 14 -11 25t-27 11z M808 680h192v-118h-192q-16 0 -28 11t-12 27v44q0 14 12 25t28 11zM1180 540h-178v-118h178q14 0 25 11t11 27v44q0 14 -11 25t-25 11zM822 540h178v-118h-178q-14 0 -25 11t-11 27v44q0 14 11 25t25 11zM1164 400h-162v-118h162q14 0 23 11t9 27v42q0 16 -9 27t-23 11z M838 400h162v-118h-162q-14 0 -23 11t-9 27v42q0 16 9 27t23 11zM1002 252v-198q40 0 69 29t29 70t-29 70t-69 29zM1000 252v-198q-40 0 -69 29t-29 70t29 70t69 29zM1148 260h-146v-106h146q14 0 22 10t8 24v38q0 14 -8 24t-22 10zM854 260h146v-106h-146q-12 0 -21 10 t-9 24v38q0 14 9 24t21 10zM886 760v-36q0 -22 20 -22h68q20 0 20 22v128v4v4h-2q-4 14 -18 14h-54q-56 22 -90 72t-34 112q0 82 58 140t140 58v118q-132 0 -224 -93t-92 -223q0 -102 58 -183t150 -115z" />
<glyph unicode="3" vert-adv-y="180" d="M1552 926q-6 -26 -24 -24l-186 34q-18 2 -12 28l4 30q4 26 24 22l184 -32q18 -4 14 -28zM1510 1302q-12 24 -30 16l-168 -84q-16 -10 -4 -32l14 -28q10 -22 28 -14l168 84q16 8 4 32zM1286 1542q-22 12 -32 -4l-92 -164q-8 -16 14 -30l26 -14q24 -14 32 4l92 162 q10 18 -14 30zM1324 1058q0 130 -92 223t-222 93v-118q82 0 139 -58t57 -140q0 -62 -34 -112t-90 -72h-54q-14 0 -18 -14v-4q-2 -2 -2 -4v-128q0 -22 20 -22h70q18 0 18 22v36q92 34 150 115t58 183zM452 926q4 -26 22 -24l186 34q18 2 14 28l-6 30q-4 26 -24 22l-184 -32 q-18 -4 -14 -28zM480 1276q-12 -24 4 -32l168 -84q18 -8 30 14l12 28q12 22 -4 32l-168 84q-18 8 -30 -16zM690 1526q-24 -12 -14 -30l92 -162q10 -18 32 -4l26 14q24 14 14 30l-92 164q-10 16 -32 4zM1196 680h-194v-118h194q16 0 27 11t11 27v44q0 14 -11 25t-27 11z M808 680h192v-118h-192q-16 0 -28 11t-12 27v44q0 14 12 25t28 11zM1180 540h-178v-118h178q14 0 25 11t11 27v44q0 14 -11 25t-25 11zM822 540h178v-118h-178q-14 0 -25 11t-11 27v44q0 14 11 25t25 11zM1164 400h-162v-118h162q14 0 23 11t9 27v42q0 16 -9 27t-23 11z M838 400h162v-118h-162q-14 0 -23 11t-9 27v42q0 16 9 27t23 11zM1002 252v-198q40 0 69 29t29 70t-29 70t-69 29zM1000 252v-198q-40 0 -69 29t-29 70t29 70t69 29zM1148 260h-146v-106h146q14 0 22 10t8 24v38q0 14 -8 24t-22 10zM854 260h146v-106h-146q-12 0 -21 10 t-9 24v38q0 14 9 24t21 10zM886 760v-36q0 -22 20 -22h68q20 0 20 22v128v4v4h-2q-4 14 -18 14h-54q-56 22 -90 72t-34 112q0 82 58 140t140 58v118q-132 0 -224 -93t-92 -223q0 -102 58 -183t150 -115z" />
<glyph unicode="4" vert-adv-y="180" d="M1552 926q-6 -26 -24 -24l-186 34q-18 2 -12 28l4 30q4 26 24 22l184 -32q18 -4 14 -28zM1510 1302q-12 24 -30 16l-168 -84q-16 -10 -4 -32l14 -28q10 -22 28 -14l168 84q16 8 4 32zM1286 1542q-22 12 -32 -4l-92 -164q-8 -16 14 -30l26 -14q24 -14 32 4l92 162 q10 18 -14 30zM1324 1058q0 130 -92 223t-222 93v-118q82 0 139 -58t57 -140q0 -62 -34 -112t-90 -72h-54q-14 0 -18 -14v-4q-2 -2 -2 -4v-128q0 -22 20 -22h70q18 0 18 22v36q92 34 150 115t58 183zM452 926q4 -26 22 -24l186 34q18 2 14 28l-6 30q-4 26 -24 22l-184 -32 q-18 -4 -14 -28zM480 1276q-12 -24 4 -32l168 -84q18 -8 30 14l12 28q12 22 -4 32l-168 84q-18 8 -30 -16zM690 1526q-24 -12 -14 -30l92 -162q10 -18 32 -4l26 14q24 14 14 30l-92 164q-10 16 -32 4zM1196 680h-194v-118h194q16 0 27 11t11 27v44q0 14 -11 25t-27 11z M808 680h192v-118h-192q-16 0 -28 11t-12 27v44q0 14 12 25t28 11zM1180 540h-178v-118h178q14 0 25 11t11 27v44q0 14 -11 25t-25 11zM822 540h178v-118h-178q-14 0 -25 11t-11 27v44q0 14 11 25t25 11zM1164 400h-162v-118h162q14 0 23 11t9 27v42q0 16 -9 27t-23 11z M838 400h162v-118h-162q-14 0 -23 11t-9 27v42q0 16 9 27t23 11zM1002 252v-198q40 0 69 29t29 70t-29 70t-69 29zM1000 252v-198q-40 0 -69 29t-29 70t29 70t69 29zM1148 260h-146v-106h146q14 0 22 10t8 24v38q0 14 -8 24t-22 10zM854 260h146v-106h-146q-12 0 -21 10 t-9 24v38q0 14 9 24t21 10zM886 760v-36q0 -22 20 -22h68q20 0 20 22v128v4v4h-2q-4 14 -18 14h-54q-56 22 -90 72t-34 112q0 82 58 140t140 58v118q-132 0 -224 -93t-92 -223q0 -102 58 -183t150 -115z" />
<glyph unicode="5" vert-adv-y="180" d="M1552 926q-6 -26 -24 -24l-186 34q-18 2 -12 28l4 30q4 26 24 22l184 -32q18 -4 14 -28zM1510 1302q-12 24 -30 16l-168 -84q-16 -10 -4 -32l14 -28q10 -22 28 -14l168 84q16 8 4 32zM1286 1542q-22 12 -32 -4l-92 -164q-8 -16 14 -30l26 -14q24 -14 32 4l92 162 q10 18 -14 30zM1324 1058q0 130 -92 223t-222 93v-118q82 0 139 -58t57 -140q0 -62 -34 -112t-90 -72h-54q-14 0 -18 -14v-4q-2 -2 -2 -4v-128q0 -22 20 -22h70q18 0 18 22v36q92 34 150 115t58 183zM452 926q4 -26 22 -24l186 34q18 2 14 28l-6 30q-4 26 -24 22l-184 -32 q-18 -4 -14 -28zM480 1276q-12 -24 4 -32l168 -84q18 -8 30 14l12 28q12 22 -4 32l-168 84q-18 8 -30 -16zM690 1526q-24 -12 -14 -30l92 -162q10 -18 32 -4l26 14q24 14 14 30l-92 164q-10 16 -32 4zM1196 680h-194v-118h194q16 0 27 11t11 27v44q0 14 -11 25t-27 11z M808 680h192v-118h-192q-16 0 -28 11t-12 27v44q0 14 12 25t28 11zM1180 540h-178v-118h178q14 0 25 11t11 27v44q0 14 -11 25t-25 11zM822 540h178v-118h-178q-14 0 -25 11t-11 27v44q0 14 11 25t25 11zM1164 400h-162v-118h162q14 0 23 11t9 27v42q0 16 -9 27t-23 11z M838 400h162v-118h-162q-14 0 -23 11t-9 27v42q0 16 9 27t23 11zM1002 252v-198q40 0 69 29t29 70t-29 70t-69 29zM1000 252v-198q-40 0 -69 29t-29 70t29 70t69 29zM1148 260h-146v-106h146q14 0 22 10t8 24v38q0 14 -8 24t-22 10zM854 260h146v-106h-146q-12 0 -21 10 t-9 24v38q0 14 9 24t21 10zM886 760v-36q0 -22 20 -22h68q20 0 20 22v128v4v4h-2q-4 14 -18 14h-54q-56 22 -90 72t-34 112q0 82 58 140t140 58v118q-132 0 -224 -93t-92 -223q0 -102 58 -183t150 -115z" />
<glyph unicode="6" vert-adv-y="180" d="M1552 926q-6 -26 -24 -24l-186 34q-18 2 -12 28l4 30q4 26 24 22l184 -32q18 -4 14 -28zM1510 1302q-12 24 -30 16l-168 -84q-16 -10 -4 -32l14 -28q10 -22 28 -14l168 84q16 8 4 32zM1286 1542q-22 12 -32 -4l-92 -164q-8 -16 14 -30l26 -14q24 -14 32 4l92 162 q10 18 -14 30zM1324 1058q0 130 -92 223t-222 93v-118q82 0 139 -58t57 -140q0 -62 -34 -112t-90 -72h-54q-14 0 -18 -14v-4q-2 -2 -2 -4v-128q0 -22 20 -22h70q18 0 18 22v36q92 34 150 115t58 183zM452 926q4 -26 22 -24l186 34q18 2 14 28l-6 30q-4 26 -24 22l-184 -32 q-18 -4 -14 -28zM480 1276q-12 -24 4 -32l168 -84q18 -8 30 14l12 28q12 22 -4 32l-168 84q-18 8 -30 -16zM690 1526q-24 -12 -14 -30l92 -162q10 -18 32 -4l26 14q24 14 14 30l-92 164q-10 16 -32 4zM1196 680h-194v-118h194q16 0 27 11t11 27v44q0 14 -11 25t-27 11z M808 680h192v-118h-192q-16 0 -28 11t-12 27v44q0 14 12 25t28 11zM1180 540h-178v-118h178q14 0 25 11t11 27v44q0 14 -11 25t-25 11zM822 540h178v-118h-178q-14 0 -25 11t-11 27v44q0 14 11 25t25 11zM1164 400h-162v-118h162q14 0 23 11t9 27v42q0 16 -9 27t-23 11z M838 400h162v-118h-162q-14 0 -23 11t-9 27v42q0 16 9 27t23 11zM1002 252v-198q40 0 69 29t29 70t-29 70t-69 29zM1000 252v-198q-40 0 -69 29t-29 70t29 70t69 29zM1148 260h-146v-106h146q14 0 22 10t8 24v38q0 14 -8 24t-22 10zM854 260h146v-106h-146q-12 0 -21 10 t-9 24v38q0 14 9 24t21 10zM886 760v-36q0 -22 20 -22h68q20 0 20 22v128v4v4h-2q-4 14 -18 14h-54q-56 22 -90 72t-34 112q0 82 58 140t140 58v118q-132 0 -224 -93t-92 -223q0 -102 58 -183t150 -115z" />
<glyph unicode="7" vert-adv-y="180" d="M1552 926q-6 -26 -24 -24l-186 34q-18 2 -12 28l4 30q4 26 24 22l184 -32q18 -4 14 -28zM1510 1302q-12 24 -30 16l-168 -84q-16 -10 -4 -32l14 -28q10 -22 28 -14l168 84q16 8 4 32zM1286 1542q-22 12 -32 -4l-92 -164q-8 -16 14 -30l26 -14q24 -14 32 4l92 162 q10 18 -14 30zM1324 1058q0 130 -92 223t-222 93v-118q82 0 139 -58t57 -140q0 -62 -34 -112t-90 -72h-54q-14 0 -18 -14v-4q-2 -2 -2 -4v-128q0 -22 20 -22h70q18 0 18 22v36q92 34 150 115t58 183zM452 926q4 -26 22 -24l186 34q18 2 14 28l-6 30q-4 26 -24 22l-184 -32 q-18 -4 -14 -28zM480 1276q-12 -24 4 -32l168 -84q18 -8 30 14l12 28q12 22 -4 32l-168 84q-18 8 -30 -16zM690 1526q-24 -12 -14 -30l92 -162q10 -18 32 -4l26 14q24 14 14 30l-92 164q-10 16 -32 4zM1196 680h-194v-118h194q16 0 27 11t11 27v44q0 14 -11 25t-27 11z M808 680h192v-118h-192q-16 0 -28 11t-12 27v44q0 14 12 25t28 11zM1180 540h-178v-118h178q14 0 25 11t11 27v44q0 14 -11 25t-25 11zM822 540h178v-118h-178q-14 0 -25 11t-11 27v44q0 14 11 25t25 11zM1164 400h-162v-118h162q14 0 23 11t9 27v42q0 16 -9 27t-23 11z M838 400h162v-118h-162q-14 0 -23 11t-9 27v42q0 16 9 27t23 11zM1002 252v-198q40 0 69 29t29 70t-29 70t-69 29zM1000 252v-198q-40 0 -69 29t-29 70t29 70t69 29zM1148 260h-146v-106h146q14 0 22 10t8 24v38q0 14 -8 24t-22 10zM854 260h146v-106h-146q-12 0 -21 10 t-9 24v38q0 14 9 24t21 10zM886 760v-36q0 -22 20 -22h68q20 0 20 22v128v4v4h-2q-4 14 -18 14h-54q-56 22 -90 72t-34 112q0 82 58 140t140 58v118q-132 0 -224 -93t-92 -223q0 -102 58 -183t150 -115z" />
<glyph unicode="8" vert-adv-y="180" d="M1552 926q-6 -26 -24 -24l-186 34q-18 2 -12 28l4 30q4 26 24 22l184 -32q18 -4 14 -28zM1510 1302q-12 24 -30 16l-168 -84q-16 -10 -4 -32l14 -28q10 -22 28 -14l168 84q16 8 4 32zM1286 1542q-22 12 -32 -4l-92 -164q-8 -16 14 -30l26 -14q24 -14 32 4l92 162 q10 18 -14 30zM1324 1058q0 130 -92 223t-222 93v-118q82 0 139 -58t57 -140q0 -62 -34 -112t-90 -72h-54q-14 0 -18 -14v-4q-2 -2 -2 -4v-128q0 -22 20 -22h70q18 0 18 22v36q92 34 150 115t58 183zM452 926q4 -26 22 -24l186 34q18 2 14 28l-6 30q-4 26 -24 22l-184 -32 q-18 -4 -14 -28zM480 1276q-12 -24 4 -32l168 -84q18 -8 30 14l12 28q12 22 -4 32l-168 84q-18 8 -30 -16zM690 1526q-24 -12 -14 -30l92 -162q10 -18 32 -4l26 14q24 14 14 30l-92 164q-10 16 -32 4zM1196 680h-194v-118h194q16 0 27 11t11 27v44q0 14 -11 25t-27 11z M808 680h192v-118h-192q-16 0 -28 11t-12 27v44q0 14 12 25t28 11zM1180 540h-178v-118h178q14 0 25 11t11 27v44q0 14 -11 25t-25 11zM822 540h178v-118h-178q-14 0 -25 11t-11 27v44q0 14 11 25t25 11zM1164 400h-162v-118h162q14 0 23 11t9 27v42q0 16 -9 27t-23 11z M838 400h162v-118h-162q-14 0 -23 11t-9 27v42q0 16 9 27t23 11zM1002 252v-198q40 0 69 29t29 70t-29 70t-69 29zM1000 252v-198q-40 0 -69 29t-29 70t29 70t69 29zM1148 260h-146v-106h146q14 0 22 10t8 24v38q0 14 -8 24t-22 10zM854 260h146v-106h-146q-12 0 -21 10 t-9 24v38q0 14 9 24t21 10zM886 760v-36q0 -22 20 -22h68q20 0 20 22v128v4v4h-2q-4 14 -18 14h-54q-56 22 -90 72t-34 112q0 82 58 140t140 58v118q-132 0 -224 -93t-92 -223q0 -102 58 -183t150 -115z" />
<glyph unicode="9" vert-adv-y="180" d="M1552 926q-6 -26 -24 -24l-186 34q-18 2 -12 28l4 30q4 26 24 22l184 -32q18 -4 14 -28zM1510 1302q-12 24 -30 16l-168 -84q-16 -10 -4 -32l14 -28q10 -22 28 -14l168 84q16 8 4 32zM1286 1542q-22 12 -32 -4l-92 -164q-8 -16 14 -30l26 -14q24 -14 32 4l92 162 q10 18 -14 30zM1324 1058q0 130 -92 223t-222 93v-118q82 0 139 -58t57 -140q0 -62 -34 -112t-90 -72h-54q-14 0 -18 -14v-4q-2 -2 -2 -4v-128q0 -22 20 -22h70q18 0 18 22v36q92 34 150 115t58 183zM452 926q4 -26 22 -24l186 34q18 2 14 28l-6 30q-4 26 -24 22l-184 -32 q-18 -4 -14 -28zM480 1276q-12 -24 4 -32l168 -84q18 -8 30 14l12 28q12 22 -4 32l-168 84q-18 8 -30 -16zM690 1526q-24 -12 -14 -30l92 -162q10 -18 32 -4l26 14q24 14 14 30l-92 164q-10 16 -32 4zM1196 680h-194v-118h194q16 0 27 11t11 27v44q0 14 -11 25t-27 11z M808 680h192v-118h-192q-16 0 -28 11t-12 27v44q0 14 12 25t28 11zM1180 540h-178v-118h178q14 0 25 11t11 27v44q0 14 -11 25t-25 11zM822 540h178v-118h-178q-14 0 -25 11t-11 27v44q0 14 11 25t25 11zM1164 400h-162v-118h162q14 0 23 11t9 27v42q0 16 -9 27t-23 11z M838 400h162v-118h-162q-14 0 -23 11t-9 27v42q0 16 9 27t23 11zM1002 252v-198q40 0 69 29t29 70t-29 70t-69 29zM1000 252v-198q-40 0 -69 29t-29 70t29 70t69 29zM1148 260h-146v-106h146q14 0 22 10t8 24v38q0 14 -8 24t-22 10zM854 260h146v-106h-146q-12 0 -21 10 t-9 24v38q0 14 9 24t21 10zM886 760v-36q0 -22 20 -22h68q20 0 20 22v128v4v4h-2q-4 14 -18 14h-54q-56 22 -90 72t-34 112q0 82 58 140t140 58v118q-132 0 -224 -93t-92 -223q0 -102 58 -183t150 -115z" />
<glyph unicode=":" vert-adv-y="180" d="M1552 926q-6 -26 -24 -24l-186 34q-18 2 -12 28l4 30q4 26 24 22l184 -32q18 -4 14 -28zM1510 1302q-12 24 -30 16l-168 -84q-16 -10 -4 -32l14 -28q10 -22 28 -14l168 84q16 8 4 32zM1286 1542q-22 12 -32 -4l-92 -164q-8 -16 14 -30l26 -14q24 -14 32 4l92 162 q10 18 -14 30zM1324 1058q0 130 -92 223t-222 93v-118q82 0 139 -58t57 -140q0 -62 -34 -112t-90 -72h-54q-14 0 -18 -14v-4q-2 -2 -2 -4v-128q0 -22 20 -22h70q18 0 18 22v36q92 34 150 115t58 183zM452 926q4 -26 22 -24l186 34q18 2 14 28l-6 30q-4 26 -24 22l-184 -32 q-18 -4 -14 -28zM480 1276q-12 -24 4 -32l168 -84q18 -8 30 14l12 28q12 22 -4 32l-168 84q-18 8 -30 -16zM690 1526q-24 -12 -14 -30l92 -162q10 -18 32 -4l26 14q24 14 14 30l-92 164q-10 16 -32 4zM1196 680h-194v-118h194q16 0 27 11t11 27v44q0 14 -11 25t-27 11z M808 680h192v-118h-192q-16 0 -28 11t-12 27v44q0 14 12 25t28 11zM1180 540h-178v-118h178q14 0 25 11t11 27v44q0 14 -11 25t-25 11zM822 540h178v-118h-178q-14 0 -25 11t-11 27v44q0 14 11 25t25 11zM1164 400h-162v-118h162q14 0 23 11t9 27v42q0 16 -9 27t-23 11z M838 400h162v-118h-162q-14 0 -23 11t-9 27v42q0 16 9 27t23 11zM1002 252v-198q40 0 69 29t29 70t-29 70t-69 29zM1000 252v-198q-40 0 -69 29t-29 70t29 70t69 29zM1148 260h-146v-106h146q14 0 22 10t8 24v38q0 14 -8 24t-22 10zM854 260h146v-106h-146q-12 0 -21 10 t-9 24v38q0 14 9 24t21 10zM886 760v-36q0 -22 20 -22h68q20 0 20 22v128v4v4h-2q-4 14 -18 14h-54q-56 22 -90 72t-34 112q0 82 58 140t140 58v118q-132 0 -224 -93t-92 -223q0 -102 58 -183t150 -115z" />
<glyph unicode=";" vert-adv-y="180" d="M1552 926q-6 -26 -24 -24l-186 34q-18 2 -12 28l4 30q4 26 24 22l184 -32q18 -4 14 -28zM1510 1302q-12 24 -30 16l-168 -84q-16 -10 -4 -32l14 -28q10 -22 28 -14l168 84q16 8 4 32zM1286 1542q-22 12 -32 -4l-92 -164q-8 -16 14 -30l26 -14q24 -14 32 4l92 162 q10 18 -14 30zM1324 1058q0 130 -92 223t-222 93v-118q82 0 139 -58t57 -140q0 -62 -34 -112t-90 -72h-54q-14 0 -18 -14v-4q-2 -2 -2 -4v-128q0 -22 20 -22h70q18 0 18 22v36q92 34 150 115t58 183zM452 926q4 -26 22 -24l186 34q18 2 14 28l-6 30q-4 26 -24 22l-184 -32 q-18 -4 -14 -28zM480 1276q-12 -24 4 -32l168 -84q18 -8 30 14l12 28q12 22 -4 32l-168 84q-18 8 -30 -16zM690 1526q-24 -12 -14 -30l92 -162q10 -18 32 -4l26 14q24 14 14 30l-92 164q-10 16 -32 4zM1196 680h-194v-118h194q16 0 27 11t11 27v44q0 14 -11 25t-27 11z M808 680h192v-118h-192q-16 0 -28 11t-12 27v44q0 14 12 25t28 11zM1180 540h-178v-118h178q14 0 25 11t11 27v44q0 14 -11 25t-25 11zM822 540h178v-118h-178q-14 0 -25 11t-11 27v44q0 14 11 25t25 11zM1164 400h-162v-118h162q14 0 23 11t9 27v42q0 16 -9 27t-23 11z M838 400h162v-118h-162q-14 0 -23 11t-9 27v42q0 16 9 27t23 11zM1002 252v-198q40 0 69 29t29 70t-29 70t-69 29zM1000 252v-198q-40 0 -69 29t-29 70t29 70t69 29zM1148 260h-146v-106h146q14 0 22 10t8 24v38q0 14 -8 24t-22 10zM854 260h146v-106h-146q-12 0 -21 10 t-9 24v38q0 14 9 24t21 10zM886 760v-36q0 -22 20 -22h68q20 0 20 22v128v4v4h-2q-4 14 -18 14h-54q-56 22 -90 72t-34 112q0 82 58 140t140 58v118q-132 0 -224 -93t-92 -223q0 -102 58 -183t150 -115z" />
<glyph unicode="&#x3c;" vert-adv-y="180" d="M1552 926q-6 -26 -24 -24l-186 34q-18 2 -12 28l4 30q4 26 24 22l184 -32q18 -4 14 -28zM1510 1302q-12 24 -30 16l-168 -84q-16 -10 -4 -32l14 -28q10 -22 28 -14l168 84q16 8 4 32zM1286 1542q-22 12 -32 -4l-92 -164q-8 -16 14 -30l26 -14q24 -14 32 4l92 162 q10 18 -14 30zM1324 1058q0 130 -92 223t-222 93v-118q82 0 139 -58t57 -140q0 -62 -34 -112t-90 -72h-54q-14 0 -18 -14v-4q-2 -2 -2 -4v-128q0 -22 20 -22h70q18 0 18 22v36q92 34 150 115t58 183zM452 926q4 -26 22 -24l186 34q18 2 14 28l-6 30q-4 26 -24 22l-184 -32 q-18 -4 -14 -28zM480 1276q-12 -24 4 -32l168 -84q18 -8 30 14l12 28q12 22 -4 32l-168 84q-18 8 -30 -16zM690 1526q-24 -12 -14 -30l92 -162q10 -18 32 -4l26 14q24 14 14 30l-92 164q-10 16 -32 4zM1196 680h-194v-118h194q16 0 27 11t11 27v44q0 14 -11 25t-27 11z M808 680h192v-118h-192q-16 0 -28 11t-12 27v44q0 14 12 25t28 11zM1180 540h-178v-118h178q14 0 25 11t11 27v44q0 14 -11 25t-25 11zM822 540h178v-118h-178q-14 0 -25 11t-11 27v44q0 14 11 25t25 11zM1164 400h-162v-118h162q14 0 23 11t9 27v42q0 16 -9 27t-23 11z M838 400h162v-118h-162q-14 0 -23 11t-9 27v42q0 16 9 27t23 11zM1002 252v-198q40 0 69 29t29 70t-29 70t-69 29zM1000 252v-198q-40 0 -69 29t-29 70t29 70t69 29zM1148 260h-146v-106h146q14 0 22 10t8 24v38q0 14 -8 24t-22 10zM854 260h146v-106h-146q-12 0 -21 10 t-9 24v38q0 14 9 24t21 10zM886 760v-36q0 -22 20 -22h68q20 0 20 22v128v4v4h-2q-4 14 -18 14h-54q-56 22 -90 72t-34 112q0 82 58 140t140 58v118q-132 0 -224 -93t-92 -223q0 -102 58 -183t150 -115z" />
<glyph unicode="=" vert-adv-y="180" d="M1552 926q-6 -26 -24 -24l-186 34q-18 2 -12 28l4 30q4 26 24 22l184 -32q18 -4 14 -28zM1510 1302q-12 24 -30 16l-168 -84q-16 -10 -4 -32l14 -28q10 -22 28 -14l168 84q16 8 4 32zM1286 1542q-22 12 -32 -4l-92 -164q-8 -16 14 -30l26 -14q24 -14 32 4l92 162 q10 18 -14 30zM1324 1058q0 130 -92 223t-222 93v-118q82 0 139 -58t57 -140q0 -62 -34 -112t-90 -72h-54q-14 0 -18 -14v-4q-2 -2 -2 -4v-128q0 -22 20 -22h70q18 0 18 22v36q92 34 150 115t58 183zM452 926q4 -26 22 -24l186 34q18 2 14 28l-6 30q-4 26 -24 22l-184 -32 q-18 -4 -14 -28zM480 1276q-12 -24 4 -32l168 -84q18 -8 30 14l12 28q12 22 -4 32l-168 84q-18 8 -30 -16zM690 1526q-24 -12 -14 -30l92 -162q10 -18 32 -4l26 14q24 14 14 30l-92 164q-10 16 -32 4zM1196 680h-194v-118h194q16 0 27 11t11 27v44q0 14 -11 25t-27 11z M808 680h192v-118h-192q-16 0 -28 11t-12 27v44q0 14 12 25t28 11zM1180 540h-178v-118h178q14 0 25 11t11 27v44q0 14 -11 25t-25 11zM822 540h178v-118h-178q-14 0 -25 11t-11 27v44q0 14 11 25t25 11zM1164 400h-162v-118h162q14 0 23 11t9 27v42q0 16 -9 27t-23 11z M838 400h162v-118h-162q-14 0 -23 11t-9 27v42q0 16 9 27t23 11zM1002 252v-198q40 0 69 29t29 70t-29 70t-69 29zM1000 252v-198q-40 0 -69 29t-29 70t29 70t69 29zM1148 260h-146v-106h146q14 0 22 10t8 24v38q0 14 -8 24t-22 10zM854 260h146v-106h-146q-12 0 -21 10 t-9 24v38q0 14 9 24t21 10zM886 760v-36q0 -22 20 -22h68q20 0 20 22v128v4v4h-2q-4 14 -18 14h-54q-56 22 -90 72t-34 112q0 82 58 140t140 58v118q-132 0 -224 -93t-92 -223q0 -102 58 -183t150 -115z" />
<glyph unicode="&#x3e;" vert-adv-y="180" d="M1552 926q-6 -26 -24 -24l-186 34q-18 2 -12 28l4 30q4 26 24 22l184 -32q18 -4 14 -28zM1510 1302q-12 24 -30 16l-168 -84q-16 -10 -4 -32l14 -28q10 -22 28 -14l168 84q16 8 4 32zM1286 1542q-22 12 -32 -4l-92 -164q-8 -16 14 -30l26 -14q24 -14 32 4l92 162 q10 18 -14 30zM1324 1058q0 130 -92 223t-222 93v-118q82 0 139 -58t57 -140q0 -62 -34 -112t-90 -72h-54q-14 0 -18 -14v-4q-2 -2 -2 -4v-128q0 -22 20 -22h70q18 0 18 22v36q92 34 150 115t58 183zM452 926q4 -26 22 -24l186 34q18 2 14 28l-6 30q-4 26 -24 22l-184 -32 q-18 -4 -14 -28zM480 1276q-12 -24 4 -32l168 -84q18 -8 30 14l12 28q12 22 -4 32l-168 84q-18 8 -30 -16zM690 1526q-24 -12 -14 -30l92 -162q10 -18 32 -4l26 14q24 14 14 30l-92 164q-10 16 -32 4zM1196 680h-194v-118h194q16 0 27 11t11 27v44q0 14 -11 25t-27 11z M808 680h192v-118h-192q-16 0 -28 11t-12 27v44q0 14 12 25t28 11zM1180 540h-178v-118h178q14 0 25 11t11 27v44q0 14 -11 25t-25 11zM822 540h178v-118h-178q-14 0 -25 11t-11 27v44q0 14 11 25t25 11zM1164 400h-162v-118h162q14 0 23 11t9 27v42q0 16 -9 27t-23 11z M838 400h162v-118h-162q-14 0 -23 11t-9 27v42q0 16 9 27t23 11zM1002 252v-198q40 0 69 29t29 70t-29 70t-69 29zM1000 252v-198q-40 0 -69 29t-29 70t29 70t69 29zM1148 260h-146v-106h146q14 0 22 10t8 24v38q0 14 -8 24t-22 10zM854 260h146v-106h-146q-12 0 -21 10 t-9 24v38q0 14 9 24t21 10zM886 760v-36q0 -22 20 -22h68q20 0 20 22v128v4v4h-2q-4 14 -18 14h-54q-56 22 -90 72t-34 112q0 82 58 140t140 58v118q-132 0 -224 -93t-92 -223q0 -102 58 -183t150 -115z" />
<glyph unicode="?" vert-adv-y="180" d="M1552 926q-6 -26 -24 -24l-186 34q-18 2 -12 28l4 30q4 26 24 22l184 -32q18 -4 14 -28zM1510 1302q-12 24 -30 16l-168 -84q-16 -10 -4 -32l14 -28q10 -22 28 -14l168 84q16 8 4 32zM1286 1542q-22 12 -32 -4l-92 -164q-8 -16 14 -30l26 -14q24 -14 32 4l92 162 q10 18 -14 30zM1324 1058q0 130 -92 223t-222 93v-118q82 0 139 -58t57 -140q0 -62 -34 -112t-90 -72h-54q-14 0 -18 -14v-4q-2 -2 -2 -4v-128q0 -22 20 -22h70q18 0 18 22v36q92 34 150 115t58 183zM452 926q4 -26 22 -24l186 34q18 2 14 28l-6 30q-4 26 -24 22l-184 -32 q-18 -4 -14 -28zM480 1276q-12 -24 4 -32l168 -84q18 -8 30 14l12 28q12 22 -4 32l-168 84q-18 8 -30 -16zM690 1526q-24 -12 -14 -30l92 -162q10 -18 32 -4l26 14q24 14 14 30l-92 164q-10 16 -32 4zM1196 680h-194v-118h194q16 0 27 11t11 27v44q0 14 -11 25t-27 11z M808 680h192v-118h-192q-16 0 -28 11t-12 27v44q0 14 12 25t28 11zM1180 540h-178v-118h178q14 0 25 11t11 27v44q0 14 -11 25t-25 11zM822 540h178v-118h-178q-14 0 -25 11t-11 27v44q0 14 11 25t25 11zM1164 400h-162v-118h162q14 0 23 11t9 27v42q0 16 -9 27t-23 11z M838 400h162v-118h-162q-14 0 -23 11t-9 27v42q0 16 9 27t23 11zM1002 252v-198q40 0 69 29t29 70t-29 70t-69 29zM1000 252v-198q-40 0 -69 29t-29 70t29 70t69 29zM1148 260h-146v-106h146q14 0 22 10t8 24v38q0 14 -8 24t-22 10zM854 260h146v-106h-146q-12 0 -21 10 t-9 24v38q0 14 9 24t21 10zM886 760v-36q0 -22 20 -22h68q20 0 20 22v128v4v4h-2q-4 14 -18 14h-54q-56 22 -90 72t-34 112q0 82 58 140t140 58v118q-132 0 -224 -93t-92 -223q0 -102 58 -183t150 -115z" />
<glyph unicode="@" vert-adv-y="180" d="M1552 926q-6 -26 -24 -24l-186 34q-18 2 -12 28l4 30q4 26 24 22l184 -32q18 -4 14 -28zM1510 1302q-12 24 -30 16l-168 -84q-16 -10 -4 -32l14 -28q10 -22 28 -14l168 84q16 8 4 32zM1286 1542q-22 12 -32 -4l-92 -164q-8 -16 14 -30l26 -14q24 -14 32 4l92 162 q10 18 -14 30zM1324 1058q0 130 -92 223t-222 93v-118q82 0 139 -58t57 -140q0 -62 -34 -112t-90 -72h-54q-14 0 -18 -14v-4q-2 -2 -2 -4v-128q0 -22 20 -22h70q18 0 18 22v36q92 34 150 115t58 183zM452 926q4 -26 22 -24l186 34q18 2 14 28l-6 30q-4 26 -24 22l-184 -32 q-18 -4 -14 -28zM480 1276q-12 -24 4 -32l168 -84q18 -8 30 14l12 28q12 22 -4 32l-168 84q-18 8 -30 -16zM690 1526q-24 -12 -14 -30l92 -162q10 -18 32 -4l26 14q24 14 14 30l-92 164q-10 16 -32 4zM1196 680h-194v-118h194q16 0 27 11t11 27v44q0 14 -11 25t-27 11z M808 680h192v-118h-192q-16 0 -28 11t-12 27v44q0 14 12 25t28 11zM1180 540h-178v-118h178q14 0 25 11t11 27v44q0 14 -11 25t-25 11zM822 540h178v-118h-178q-14 0 -25 11t-11 27v44q0 14 11 25t25 11zM1164 400h-162v-118h162q14 0 23 11t9 27v42q0 16 -9 27t-23 11z M838 400h162v-118h-162q-14 0 -23 11t-9 27v42q0 16 9 27t23 11zM1002 252v-198q40 0 69 29t29 70t-29 70t-69 29zM1000 252v-198q-40 0 -69 29t-29 70t29 70t69 29zM1148 260h-146v-106h146q14 0 22 10t8 24v38q0 14 -8 24t-22 10zM854 260h146v-106h-146q-12 0 -21 10 t-9 24v38q0 14 9 24t21 10zM886 760v-36q0 -22 20 -22h68q20 0 20 22v128v4v4h-2q-4 14 -18 14h-54q-56 22 -90 72t-34 112q0 82 58 140t140 58v118q-132 0 -224 -93t-92 -223q0 -102 58 -183t150 -115z" />
<glyph unicode="A" vert-adv-y="180" d="M528 734h-4h-2l-4 2l-2 2l-2 -2h-6h-8l-4 6h-2l-2 2l-2 2v2h2l2 -2h4l2 2l4 2l2 2l-2 4v2h-4v4l-2 2v2l-2 2l-2 2l-4 4l-2 2v4v4v2v0h-2h-2v-2h-2v2h-2h-2h-2v-2h-4l-2 -2l-2 -2h-2v-2h-6h-2h-2v-2h-2h-2v-2l-2 -2v-2h-2l-2 2v2h-2v-2l-2 2v2l-2 -2l-2 2v2v2l-2 2v2h2 l2 2h2l2 2l2 2h4h2v-2h2h2h2l2 2v2v2l2 2l2 -2h2h4h2h2h2l2 -2l4 2l2 -2v-2l2 -2l2 2h2v2h2l2 -2l20 2l2 -2h2h2l2 2h2l2 2l2 -2v-2v-2h2h2h4h2l2 -2h2h2v2l2 4h2v2l2 -2h2l2 -4l2 2h2h2h2h2v-2v-4v-4v-2v-2h2h2v-2l4 -2l2 -4h4h2l2 -2v-6h-2v2h-2h-2h-2l-2 2l-2 2l-6 4v2 l-2 2l-4 -2h-4h-2h-2h-2l-2 -2l-2 -4h-2h-4l-2 -2v-4v-4l-2 -4l-4 -2v-2h-2v-6v-4v-2v-2z" />
<glyph unicode="B" vert-adv-y="180" d="M926 646h-2l-2 -2h-2l-2 -2v-2h-2l-2 -2v-2l-2 -2v-2v-2l-2 -2v-2h-2l-2 2h-2h-2v2h-2l-6 4v2h-2h-6h-2h-4v-2l-2 -2h-2h-4v2h-2v2h-2h-2l-2 2h-2v-2h-2v-2l-2 2l-2 2v2h-2l-2 2h-2l-2 2l-4 2v2l-4 4l-2 2l-18 14h-2h-2v2h-2v2v2h2v2l-2 2l-2 2v2v2v2l-2 4v4v4l-2 4v2 l-2 2l2 2l2 2l2 -2h2h4h4h2l4 -2l4 -2l2 -2h4h2l2 2l4 2h4l2 2v-2h2h2h2l2 -2h2l2 -2l2 -2h2l2 -2h4h2v0h4h2l-2 -2l2 -2h2v0h2v-2l2 -2l2 2v2l2 -2v-2v-4l2 -2v-2l2 -2v-4l-2 -2v-4v-2v-2h-2l-2 -2v-4h2h2l2 -2h2v-2l2 -2h2h2l2 -2v-2v-2h2v-2l2 -2h2v-2h2l2 2h2v2l2 2v2h2 h2l2 -2h-2z" />
<glyph unicode="C" vert-adv-y="180" d="M1382 478l10 2l6 2l6 2l8 4l6 2l6 4l58 26l4 4h8l2 -2l2 2l36 2l2 -2h4l4 2h2h2h34l-10 -14l-2 -4l-6 -10l-4 -2l-4 -2l-2 -2l-2 -2v-4h-4h-4h-4v2v2l-4 2h-2l-2 -2v-4l2 -2l-6 -2h-2h-6h-4l-4 -4l-2 -4l-4 -2l-2 2h-4v4v4l2 6h2v4v4h-2h-2l-2 -4l-2 -6l-2 -8v-4l4 -4 l-4 -2h-2l-2 4v2l-2 6h-2l-2 2l-2 2l-2 2l-2 -2l-2 -4v-2h-2v-4h2h4h4v-2l-2 -2h-4v-4l8 -2v-6l2 -8v-4l2 -4h2h6v-4v-2l-2 -2h-4l-4 2v2l-2 4v4l-4 -2l-2 -2h-2l-4 -4h-2v2l-2 -2l-2 -6l-2 2v4h-2v-2l2 -4v-4l-2 2h-2h-4l2 -4h6l4 -6l2 -2v-2l-4 -4l-4 -2l-4 -2l-2 -2 l-6 -4l-2 -2l-4 4l-8 2l-4 4l-16 2l-2 4h-2l-2 2h-4h-6l-2 -2h-2h-2l-2 2h-12v30v6v6l-2 4v10q2 2 2 4zM1474 428h4l2 2h2h2l2 2v2h-2v2l-2 2v2h-2l-4 -2v-2l-2 -2l-2 -2v-2zM1490 430h-2v-2h2h2h2v2h-2h-2zM1498 460v-6l2 -2v2l2 2h2l2 4h2v-2h4v4h6v-4h4v4l2 -2h2l2 4 l-4 4l-4 2l-4 2h-2l-2 -2l-6 -2l-2 -2l-4 -2l-2 -2v-2z" />
<glyph unicode="D" vert-adv-y="180" d="M448 812l2 2v4h2l2 -2v-2l-2 -4v-4v-2l-2 -4v-4l-2 -2h-4v-2l-12 -8v-2l2 -2v-2l2 -2v-2h-2l-2 -2h-2l-4 -2h-4h-2v-4l2 -2v-2l-2 -4h2v-2h2h2v-4v-2h-2v-2l-4 -4l-2 -2h-2v-2v-2h-2v2l2 2v2l-2 2h-2v2h-2v2v2v2h-2v2h2v2v2l-2 2l-2 2h-4l-2 -2v4l-2 2v2h-2h-2h-2h-2v-2 l-2 2l-2 2l-2 2v2l2 2v2l2 2v2h2v2v2l-2 2h2v2l-2 2l-2 -2v-2h-2v2h-2l-2 -2h-4l-2 -2l-2 2h2l4 2v2v2l-2 2l-2 -2h-2v-2h-2h-2v2h4v2l2 2l8 14v2v2h2h2l4 2l2 4l-2 4v2v2l2 2v2v2h2l2 2l2 2v2h2v-2h2h2h2v2h2l4 2v2h2h12l4 -2v-2v-2v-2l2 -4v-6v-2h2h2v-2v-2v-4l2 2h2h2 l-2 -2v-2l2 -2l2 -4h4z" />
<glyph unicode="E" vert-adv-y="180" d="M868 598l-6 6h-2l-2 -2l-2 -2h-2h-2h-2v2h-2h-4h-2l-2 2h-2l-2 2v2l2 4l2 2h-2h-2v-2v-2l-2 -2h-2v-2h-2l-2 -2h-4l-2 2h-2v2v-2h-2v-2l-2 -2l-2 2l-2 -2h-2l-2 -2l-2 -2h-2l-2 -2l-2 -4l-2 -2v-2l2 -2l2 -2l2 -4l6 -2h2h2h4h2h2h2l4 -2l4 -2h4l2 -2h2l4 -2v2l-4 4l-2 2 h-2v4h-2v2l2 2l4 2v2h2h4l2 2v2l4 2v-2h2v-2h4h2h2h2v2l2 2h2v2z" />
<glyph unicode="F" vert-adv-y="180" d="M568 692l-4 -2l-2 -2l-4 -2h-2l-2 2h-2h-2h-2h-2h-2h-2h-4v2v2v4v2v2v4l2 4h-2v2v6v2l-2 2h-2h2l2 4l-2 4v2l-2 4l-2 2v4v6h2l2 2v2h2v2v2l2 2v2v2v2h2h2l2 2v0l2 2l2 2v2h2l2 -2l2 2h2h2h2v-2l2 -2h2l2 -2l2 -2l2 -2l4 -2h2h2q0 -2 2 -2l2 2l2 4v2l-2 2v4h-2h-4l-2 2 l-2 2l-2 2v2h-2h-2v2h2h4l2 2h2h2h2l2 -2h2q0 -2 2 -2h4l2 2l4 2l2 2v2l-2 2v4l-2 2v2q2 0 2 2h2l2 2h2v0v-2l2 2h2v0h2v0h4v0v-2l4 -2h2h2l2 -2h2l2 -2l2 -2h2l-2 -2l-2 -2v-2v-2v-2l-2 -2l-2 -4h2h2h2h2l2 -2v-2v-2v-2v0v-2v-2v-2v-4h-2v-2v-2h-2l-2 2v2h-2v-2h-2v-2v4h-2 h-2l-4 2v-2l-2 -2h-2h-2h-2h-2l-4 -2l-2 -2h-4v-2h2v-2l2 -2v-2l-4 -2l-2 -2h-4l-6 -2h-2h-2l-4 -2h-2h-4l-6 -2l-2 -2v-2l-2 -4h-2h-2v-2h-2v-2v-2l2 -2v-2l2 -2v-2v-2v-2l2 -2v-2h2l2 -4v-2l2 -2z" />
<glyph unicode="G" vert-adv-y="180" d="M512 700v2v2l-2 2v12l4 2l18 10l2 -2v-2v-2l-2 -2v-2v-2v-2h2v-2l2 -14l-2 -4v-2v-2l2 -2v-2v-2h-2v-2v-2v-4l2 -2l2 -2l2 -2l2 -2h-2l-2 -2l-2 -2h-2l-2 -2l-10 12l-2 2l-4 2h-2l-6 4l-2 2l-4 2v2l2 2h2v2v2v2h-2l-2 2h2l2 -2h2h4v2z" />
<glyph unicode="H" vert-adv-y="180" d="M914 664l4 -2h8l2 4l2 4l8 2l2 -2l4 -2l2 -2h6h4l6 2l2 2h2l2 4l2 2l6 -2l2 -4h6l12 2l2 2l2 4v2v4l-2 2v6v4h2v2v2l-2 2l-2 4v4v2v2l2 6l2 4v2l2 2l2 2h-2l-4 2v2v4v2l-2 -2v-2l-2 -2l-2 -2l-4 -2h-2l-2 -2l-2 2v2l-2 2l-22 14l-8 -6h-2h-2h-2l-36 26v-2l18 -32v-16 l4 -4l6 -6v-2v-6v-8l2 -6l-2 -4l-6 -2h-2l-4 -2l-6 -2h-6h-4l-2 2h-4v-2v-2l4 -2l2 -2v-2l2 -4h4z" />
<glyph unicode="I" vert-adv-y="180" d="M548 948h2l2 2h8h8l2 2h2h2h2l2 -2l4 -2v0l2 2l2 2h2l-2 2v2h2v2l-2 2l2 2h2h-4l-2 2l-4 2l-6 4l-4 2l-2 6h-4l-8 8v4h-2l-2 -2h-2h-2h-2h-2v-2h-2l-2 2l-4 2v2v2l-2 2l-2 4h-2h-2v-2h-2h-2h-2h-2h-2h-2h-2v4h-2h-12l-2 -2v-2h-2v-2l-2 -2l-2 -2h-4h-6h-6l-2 -4l-4 -2 l-6 -2l14 -12v-2v-2l16 -18h6l2 -2v-2v-2l-2 -2h2v-4l2 -4h4l18 10l6 2l2 2h6h4h2v-2h2v2z" />
<glyph unicode="J" vert-adv-y="180" d="M960 750l24 -12v-4h2h4l2 2v4l2 2l2 2l4 -2l2 -2v-4v-2h2h4l2 4l2 4v2l2 4l2 4l2 4l2 2l6 2h2h2h4h4l4 -2l2 2l2 2v6l2 4v4l2 2l2 2l2 4l2 2h2h4h4l2 4h2v6h-6l-4 2h-2v2l-4 4h-2h-4l-6 4h-4v-4h-4h-4h-2v2l-2 2l-2 4h-2h-2h-4l-2 -2h-2h-2l-2 -2v-2v-2l2 -2v-4v-2l-2 -2 l-4 -2l-2 -4h-6h-2l-6 -6l-2 -2h-4l-2 2l-8 -4l-6 -2h-4l-2 -4v-2v-2h-4h-4v-4v-4v-2l4 -2v2l2 2v4h4v-2v-4l-2 -2v-4v-2z" />
<glyph unicode="K" vert-adv-y="180" d="M384 674h-2h-2l-2 2v2v4v2l-2 4v2v10h2l4 4l-2 2l-2 2l-2 2v2h2l2 -2h2l2 2v2v0h2l4 -2l4 4v2l-2 4l2 2l4 2v4v2l10 -2l2 -2h2v-2v-2h2l4 2h2l2 -2h2h2v4h2h2l4 -4l2 -2v-4v-2h4h2l2 4l2 2l2 4v2v2l-2 2h-2h-2l-2 4v4v2l2 2l2 2h4h2l4 2h4l2 -2h6v2l2 -2v-2h2h2h16v-2 l2 -2h2v-2h2h2v-2v-2h2h2h4h4h6h2l2 -2l2 -2l2 2h2h4v-2h-4l-2 -2l-2 -2l-2 -2h-4l-10 -6h-6l-4 -4l-4 -2l-4 -2h-6v0l-4 -2v-2h2l-2 -2l-2 -2h-2l-2 -2v-2l-2 -4v-2h-4h-2h-2l-2 -2v-2h-2l-2 -2v-6l-2 -2l-6 -4v-2v-2h-2v-2l-2 -2v-4v0l-2 2l-4 4l-4 2h-2v-2v-2l-4 -2h-2 h-2h-2h-4l-6 4l-2 2h-4l-10 10h-2v-2v-2h-2h-4z" />
<glyph unicode="L" vert-adv-y="180" d="M758 808h2l2 -2h-2l-4 -2h-2h-2v-2h-2v-2h-2l-2 2h-2l-2 -2h-2l-4 -2l-2 -2v-2l-2 -2v-2v-4v-4v-2l-2 -2h-2l-2 -2l-2 -2v-2v-2v-2v-2v-2h2l2 -2h2v-2h2v-2l-2 -2v-2l-2 -2h-2l2 -2h-2l2 -2v-2v-2h2l2 2h2v-2l2 -2v-2h2v2h2l2 -2l2 -2h8v-2l2 -2l2 -16v-4l2 -4v-2h6v-2 l2 -2v-2v-2h2h4v4h2v-2l2 -2v-6q2 0 2 -2l2 -2v-2l-2 -2h-2l2 -6l2 -2v-4l4 -4v-2v-2v-4v-2l-2 -2v-2v-2l2 -2v2l2 2l2 2h2v2v2v2v2v2v-2h2h2l2 2l2 2l2 2l2 2h-4v2l2 2h4l2 -2h2v-2l2 -2l2 2v2l-2 2l-2 2v4v4l-2 6v4v4l-2 2l-2 4l-4 10l-2 4v2v0v2v0l-2 2l-2 2l-4 4l-2 2v4 h-2v2l2 4l4 6l12 16v2l-2 2l-2 2v2l-2 4h-2v2l-2 2l-2 -2h-2h-2h-2l-2 2v2l-2 2v2v2l2 4l4 2l2 2h2h2h2h2l-2 2h-4h-2v2v4l-2 2l-2 2h-2l-2 -2h-2v-2h-2v2v2l-2 4l-2 2h-2h-2l-2 -2l-4 -2h-2v-2l-2 -2v-2z" />
<glyph unicode="M" vert-adv-y="180" d="M506 716h2v-2v-4v-4v-2l2 -2h-2h-2l-4 2l-2 -2v-2l2 -2l2 -2l-2 -2h-2v-2h-4v-4v-2l14 -6v-2h4v-2h2h2l4 -4l4 -4l2 -4l2 -2v-2l-2 -2l-52 -12h-4h-2l-2 2v2v2v4l2 16v6v2l2 2v2l-2 2v2l2 2v6v2h2h2l2 2l2 4v2h8l2 2v2l6 2z" />
<glyph unicode="N" vert-adv-y="180" d="M1090 782l70 -118l14 -34l6 -76l2 -16l-4 -6l-2 -4h-2l-2 -4l12 -30l-16 -38l-22 -36l-20 -10v-4l68 -96l18 2h2l110 118l24 -28l4 -8l2 -4l4 -8l14 -18l10 10t19 14t23 8l12 -6h4l6 6h2l-4 4l-6 2l-4 2l-4 2l-12 4h-4v2l-4 2h-6h-2l-2 -2h-4l-2 2h-14v2l-2 32l-2 6l-2 8 v12l-4 24v4l-4 6l-2 26l2 2v6l-4 4h-2l-8 10l-2 6v26v4l-2 4l-2 8l-2 4l-2 8l-4 6l-2 6l-2 4l-4 4v8l-2 8v4l-2 10l-4 8l-2 8l-2 8l-2 4l-4 4l-4 2l-2 6h-6l-2 6l-6 2l-4 4l-6 2l-2 6l-4 4v10v6v4l-2 4l-4 4l-4 4l-4 4l-4 4l-4 2l-4 2l-2 2l-4 6l-2 2l-2 4h-2l-2 -2l-2 -2 l-4 -2l-2 -2l-4 -2l-2 2v2l-2 2v2l-4 -2h-2h-4l-2 2l-2 2l-6 10l-2 2l-4 2h-2h-4h-4l-4 -2l-6 -4l-6 -6h-2l-4 2l-2 -2l-4 2h-4h-4l-2 -2h-4v-2l-2 -2h-4h-4h-2h-4h-4h-2q-2 2 -4 2v2l-4 2h-2h-4l-2 -4l-4 -2l-4 -2h-4z" />
<glyph unicode="O" vert-adv-y="180" d="M630 692l-2 8l-2 4v2v4l-20 30l-2 2l-4 4v2h6v2h4h2h4l2 2v2h2v-2l2 -2h2h2v0l2 2v-2h2h2h2v2v2h2h2v8v2v2v6l-2 2v2h-2h-2l-2 2h-2l2 2l2 4v2l2 2v-2l2 -2h2v-2h2l4 -6v-2v-6h6v2h4v2h2h2v2v8v2h2v-2h2l6 8l2 2l6 -6h2v2l8 10v2l-2 2v2h-2l-2 6v2v2h2v-2l2 -4v-2h2v2h2 h2v-2v-2l2 -2h2h2l2 -2l2 -2h4l2 -2v0h2h2v2h2v2l-2 6l2 2v0l2 2l2 2v2v2v6v2v4h2l6 2h2v2l-2 2v2l2 -2l10 -14v-2v-2v-2v-2h-2v-2h-2v-2h-2v-2v-2l2 -2v-2h-2v-4l-2 -2v-2v-4l2 -4l-2 -2h-2l-2 -2l-2 -2l-2 -2v-2v-2v-2v-2l2 -4v-2l2 -2h2l2 -2l-2 -2l-2 -2v-2v-4v-2l2 -2 v-2v0l2 -2h2v2h2l2 -2v-2v-2h2h2v0h2v0h2h8v-2l2 -2v-4v-4v-2l2 -2v-4v-8v-2h2h2l2 -2h2v-2v-2h2v-2h2h2h2h2v-2v-2l2 -2l2 -2l-2 -2v-2v-4l2 -2v-4l2 -4l2 -2l2 -2v-2v-2v-4l-2 -2v-2v-2v-2l2 -2h2l2 -4v-2v-2v-2v-2v-2v-2l-2 -2l2 -2v-2l-2 -2h-2v-2l-2 -2l-4 -4l-26 10 h-2v2l-12 26h-2h-2h-2l-6 -2l-4 10v2l2 2l2 2v4v4l-4 4l-2 4l-8 8v4l-2 2h-2h-2l-2 -2l-6 -4h-2v2h-2l-2 -2l-6 -4h-2v2l-2 2l-2 2h-2v2h2v-2h2l2 -2h2l2 2l2 2v2v4l-2 4l-2 4l-2 2h-4l-10 8v4h-4v2l-2 2h-2h-2l-2 -2v-2v-2l-2 -2v-2v-2h-2h-2h-2h-2v-2l-2 -2v-2l-2 -2 l-2 -2v-4v-2l-2 -4l-4 -4v-2h-2h-2z" />
<glyph unicode="P" vert-adv-y="180" d="M516 894l-2 -4l28 2l2 -2h2l2 -2v2h2h2l2 -2h2h4v-2v-2v-2v-2v-2l-2 -2v-2v-2l24 -36l2 -2h2l2 -2h2h2v-2v-2v-2l-2 -2l-2 -2v-2h2l2 -2h2l2 -2v-2l2 -2v-2l2 -2v-2v-2h2h4h2h6v2h2l2 2v4h2v-2h2v2v2v2l2 2v2l2 2v2l-2 2v2h-2h-8v2l2 4h2l-2 2l-2 -2l-2 2v0l-2 2v2h2v2v2 v2v2h2v2v2l-6 6v2v0v2h-2v18v2l2 2v4l2 2v4l-2 2l-2 2l-2 2l-2 2v2l-2 2l-2 2l-2 2l2 2h2h4h2h2h4v0v4v2v2l2 2l-2 6v2h-2v2v6h-4v2v2l-8 2v4l-2 2h-2h-4v-2l-2 -2l-2 2v-2l-4 -4l-4 4v2l-2 2h-2h-2v-2h-2v-2h-2h-2h-2h-2l-2 2l-2 -2l-4 2h-2v-2l-2 -2h2v-2h2v-2v-2v-2h2v-2 h2v-2v-12v0l2 -2v-2l-2 -12l-2 -2h-2l-2 -2h-2l-4 -2h-4l-2 2h-2l2 -2l-2 -2h-2l-2 2l-2 2h-2v-2q0 -2 -2 -2h-2h-2l-2 -2v0l-2 -2l-2 2h-2z" />
<glyph unicode="Q" vert-adv-y="180" d="M900 772l-16 -40v-2h-2h-2v-2v-4v-2v-2v-2l-2 -2h-2v-2v-2v-2v-2l2 -2h2l2 -2v-2h-2h-2l-4 -2l-2 2l-2 2h-4l-4 2l-2 2h-4h-2v2h-4h-2l-2 -2h-4l-2 -2h-4l-4 2h-2l-2 2h-2l-2 2h-2h-4h-6h-4l-2 -2v-2l-2 2v4l-2 2l-2 2v2v2v4v2h-2l-2 2v2h-2v2l-2 2l-2 2v2v2v2v2l14 20 l2 2v2l-4 2v2v2l4 2h2l2 2v-2h2l2 2h2v-2l2 2l2 -2l2 2h2v-2l2 -2h2v-2l2 -2v-2l-2 -4h-2v-2l2 -2l2 -2v-4v-2h2h2h6h4h2l2 -2h2h4v2v4l2 4v4v4v4l-2 4l-2 2v2v2l-2 2v2l2 2h2l2 2l2 2h2h2l2 2h2v-2h2h2v-2h2v-2l28 -16v-2v0z" />
<glyph unicode="R" vert-adv-y="180" d="M962 430l-4 -2h-4v-4l44 -52l4 -8l2 -2l4 -2l-2 -2l2 -4v-2h6l28 12h4v-2l12 -10l12 -12l4 -8l6 -6l6 -2l2 -4h10v2l-4 2l-4 4l-4 6l-4 6l-2 4v4v2v4l-2 2l-14 34l-2 4l-2 4l-2 8l-2 2l-2 2l-4 4l-2 2l-2 4l-6 2l-6 2l-2 2l-2 4l-2 4l-2 4l-2 4v2v2l-2 2l-2 2h-2h-2 l-2 -2l-2 2h-2l-2 4l-2 4l2 2v8l-2 4l-2 4l-2 4l-4 6v4v2l-4 6v6l-4 4l-2 4v4v2h2l-2 4l-2 6l-4 6l-2 4l-2 4l-2 2h-2v-2l-2 -2h-4l-2 -2l-2 -2l-2 -2h-2l-4 4l-2 4l-2 2l-6 2l-6 4l-6 4h-4h-4v-2h-4l-2 2l-4 -2l-8 -8l-6 -2l-6 -6l-4 -2h-4v-4v-4l2 -6l2 -4l-2 -4h-4l-4 -2 v-8v-6v-2l2 -2l4 -4h4l4 -4l4 -2v-4l14 -2l14 -10h6l16 -12h4l12 -2l6 -4v-2l-6 -8v-2v-4l-2 -2h-2z" />
<glyph unicode="S" vert-adv-y="180" d="M946 744l-70 50v2l-2 4v2v2l2 2h2h6l2 2q2 4 4 4l4 4l6 2l2 6l4 4l4 4l4 2l2 6l2 2v4l2 2l2 2h4l4 -2l4 -2h4l4 -2h2l2 2v4v4h2h4v2l4 4l2 2v4v2l-2 6l-2 6l8 4h8l6 4l8 2l12 4l4 2l6 4l6 4h2h2v-2l4 2l4 2l2 2l2 -2v-6l2 -4l2 -6l10 -28l8 -14l2 -2v-10h2l2 -2l2 -2h2 l4 -4h2l2 -2v-6l4 -4l4 -6l2 -4l2 -4l2 -2h2v-10l-2 -4l-4 2h-2l-2 2v6h-2l-2 2l-2 2h-6l-2 4l-2 2h-6l-2 2l-4 2l-4 2h-4l-2 -4h-6l-2 2v2l-4 4h-2h-6h-2l-6 -2l-4 -2l-2 -8h2l2 -8h-2l-4 -2h-6l-6 -8l-2 -2h-2l-2 2h-4l-4 -2h-2l-6 -2l-6 -4l-2 -4l-4 -2h-2l-4 -2v-2v-4 v-8h2l2 -2l2 -2l-2 -4h-2l-2 -4h-2z" />
<glyph unicode="T" vert-adv-y="180" d="M812 606l-6 -4l-2 -2l-4 -4l-4 -2v-2h-4l-4 2h-4l-2 2h-2h-4h-2h-2v2l2 2l2 4v2l2 4v4l2 4v2h2l2 2l2 2l2 2v2l2 2v4v2v2v4v4v2l-2 2l-2 2l2 2h2l2 2v2v2h2v2v2h2h2v2l6 6v2h2l2 -2l2 -2l2 -4h2l4 -2l4 -2l2 -2l8 -6l8 -6l4 -6l6 -2v-2h4v-2l2 -2v-2h2h4h2h2l2 -2h2h4h4 h2l2 2h2h2h4h2h2v-2h2l4 -2l2 -2v0h2l2 -2h2v-2h-2h-2v2l-2 2l-6 2h-2h-2h-2h-2h-2l-2 -4l-2 -2l-2 -2v-2l2 -2l-2 -4l-2 -2l-2 -2v-2v-2h-2l-2 -2h-2v-2l-2 2l-4 4h-2h-4h-2v-2l-2 -2h-2l-2 2h-2h-2h-2h-2l-2 2h-2v2l2 2v2h2l-2 2v2h-2h-2l-2 -2v-2v-2l-2 2h-2l-2 -2v-2h-4 l-2 2h-2v2h-2v-2v-2h-2v-2h-2h-2z" />
<glyph unicode="U" vert-adv-y="180" d="M838 570v-8l2 -2l2 2l2 4h4l4 -2v-4v-2v-8l22 -30l4 -2l2 -2h8l-2 4l-2 14l2 2l4 2h2l8 8h6l8 12h6l2 -2h4l4 2h2l4 -2l8 -2l10 -4l4 -4l2 -2v-4h2l2 4l2 2l2 2l2 -2v-2h2v4h2h2v4h-2l-6 8l-2 2h2h2h2h2h2l2 2l2 2l4 2v2v4h-2l-2 4v2l-2 2h-2h-2v10l-14 24h-4l-2 2l-2 2 v4v2l22 2l4 -4l2 -2h2h2v2l2 2l2 2l2 2v6v4h2h2v2v4h-2l-2 4l-4 6l-2 2l2 2l2 2l2 4v2h-4h-2v-4l-4 2h-2h-2l-2 2v2h-4l-2 -2l-2 -2l-2 -4l-2 2l-4 -2h-2h-4l-2 -2h-4l-2 2l-2 2l-4 2h-2h-2l-2 -2v-2l-2 -2v-2h-2h-6h-2l-6 2l-4 2h-2l-2 4v2l-2 2h-2h-2v-4h-2v-2h-4v-2l4 -2 l2 -2l6 -2l4 -4l2 -4l2 -2l2 2l2 4h2h4l2 -2h2q2 0 2 -2l-2 -2l-2 -2l-4 -4l-2 -2l-2 -4l-2 -2v-4l-2 -2l-2 -4v-2l-2 -2h-2l-2 2l-4 2h-2l-2 2h-2h-2h-4h-2l-2 -4l-2 -6l-2 -10l-2 -2l-4 -4l-4 -4l-4 -2l-2 -2h-4h-4h-4l-2 -2h-4l-4 -2l-4 -2v-2l4 -8l4 -2v-4h-4h-2h-2z " />
<glyph unicode="V" vert-adv-y="180" d="M1552 926q-6 -26 -24 -24l-186 34q-18 2 -12 28l4 30q4 26 24 22l184 -32q18 -4 14 -28zM1510 1302q-12 24 -30 16l-168 -84q-16 -10 -4 -32l14 -28q10 -22 28 -14l168 84q16 8 4 32zM1286 1542q-22 12 -32 -4l-92 -164q-8 -16 14 -30l26 -14q24 -14 32 4l92 162 q10 18 -14 30zM1324 1058q0 130 -92 223t-222 93v-118q82 0 139 -58t57 -140q0 -62 -34 -112t-90 -72h-54q-14 0 -18 -14v-4q-2 -2 -2 -4v-128q0 -22 20 -22h70q18 0 18 22v36q92 34 150 115t58 183zM452 926q4 -26 22 -24l186 34q18 2 14 28l-6 30q-4 26 -24 22l-184 -32 q-18 -4 -14 -28zM480 1276q-12 -24 4 -32l168 -84q18 -8 30 14l12 28q12 22 -4 32l-168 84q-18 8 -30 -16zM690 1526q-24 -12 -14 -30l92 -162q10 -18 32 -4l26 14q24 14 14 30l-92 164q-10 16 -32 4zM1196 680h-194v-118h194q16 0 27 11t11 27v44q0 14 -11 25t-27 11z M808 680h192v-118h-192q-16 0 -28 11t-12 27v44q0 14 12 25t28 11zM1180 540h-178v-118h178q14 0 25 11t11 27v44q0 14 -11 25t-25 11zM822 540h178v-118h-178q-14 0 -25 11t-11 27v44q0 14 11 25t25 11zM1164 400h-162v-118h162q14 0 23 11t9 27v42q0 16 -9 27t-23 11z M838 400h162v-118h-162q-14 0 -23 11t-9 27v42q0 16 9 27t23 11zM1002 252v-198q40 0 69 29t29 70t-29 70t-69 29zM1000 252v-198q-40 0 -69 29t-29 70t29 70t69 29zM1148 260h-146v-106h146q14 0 22 10t8 24v38q0 14 -8 24t-22 10zM854 260h146v-106h-146q-12 0 -21 10 t-9 24v38q0 14 9 24t21 10zM886 760v-36q0 -22 20 -22h68q20 0 20 22v128v4v4h-2q-4 14 -18 14h-54q-56 22 -90 72t-34 112q0 82 58 140t140 58v118q-132 0 -224 -93t-92 -223q0 -102 58 -183t150 -115z" />
<glyph unicode="W" vert-adv-y="180" d="M1552 926q-6 -26 -24 -24l-186 34q-18 2 -12 28l4 30q4 26 24 22l184 -32q18 -4 14 -28zM1510 1302q-12 24 -30 16l-168 -84q-16 -10 -4 -32l14 -28q10 -22 28 -14l168 84q16 8 4 32zM1286 1542q-22 12 -32 -4l-92 -164q-8 -16 14 -30l26 -14q24 -14 32 4l92 162 q10 18 -14 30zM1324 1058q0 130 -92 223t-222 93v-118q82 0 139 -58t57 -140q0 -62 -34 -112t-90 -72h-54q-14 0 -18 -14v-4q-2 -2 -2 -4v-128q0 -22 20 -22h70q18 0 18 22v36q92 34 150 115t58 183zM452 926q4 -26 22 -24l186 34q18 2 14 28l-6 30q-4 26 -24 22l-184 -32 q-18 -4 -14 -28zM480 1276q-12 -24 4 -32l168 -84q18 -8 30 14l12 28q12 22 -4 32l-168 84q-18 8 -30 -16zM690 1526q-24 -12 -14 -30l92 -162q10 -18 32 -4l26 14q24 14 14 30l-92 164q-10 16 -32 4zM1196 680h-194v-118h194q16 0 27 11t11 27v44q0 14 -11 25t-27 11z M808 680h192v-118h-192q-16 0 -28 11t-12 27v44q0 14 12 25t28 11zM1180 540h-178v-118h178q14 0 25 11t11 27v44q0 14 -11 25t-25 11zM822 540h178v-118h-178q-14 0 -25 11t-11 27v44q0 14 11 25t25 11zM1164 400h-162v-118h162q14 0 23 11t9 27v42q0 16 -9 27t-23 11z M838 400h162v-118h-162q-14 0 -23 11t-9 27v42q0 16 9 27t23 11zM1002 252v-198q40 0 69 29t29 70t-29 70t-69 29zM1000 252v-198q-40 0 -69 29t-29 70t29 70t69 29zM1148 260h-146v-106h146q14 0 22 10t8 24v38q0 14 -8 24t-22 10zM854 260h146v-106h-146q-12 0 -21 10 t-9 24v38q0 14 9 24t21 10zM886 760v-36q0 -22 20 -22h68q20 0 20 22v128v4v4h-2q-4 14 -18 14h-54q-56 22 -90 72t-34 112q0 82 58 140t140 58v118q-132 0 -224 -93t-92 -223q0 -102 58 -183t150 -115z" />
<glyph unicode="X" vert-adv-y="180" d="M1552 926q-6 -26 -24 -24l-186 34q-18 2 -12 28l4 30q4 26 24 22l184 -32q18 -4 14 -28zM1510 1302q-12 24 -30 16l-168 -84q-16 -10 -4 -32l14 -28q10 -22 28 -14l168 84q16 8 4 32zM1286 1542q-22 12 -32 -4l-92 -164q-8 -16 14 -30l26 -14q24 -14 32 4l92 162 q10 18 -14 30zM1324 1058q0 130 -92 223t-222 93v-118q82 0 139 -58t57 -140q0 -62 -34 -112t-90 -72h-54q-14 0 -18 -14v-4q-2 -2 -2 -4v-128q0 -22 20 -22h70q18 0 18 22v36q92 34 150 115t58 183zM452 926q4 -26 22 -24l186 34q18 2 14 28l-6 30q-4 26 -24 22l-184 -32 q-18 -4 -14 -28zM480 1276q-12 -24 4 -32l168 -84q18 -8 30 14l12 28q12 22 -4 32l-168 84q-18 8 -30 -16zM690 1526q-24 -12 -14 -30l92 -162q10 -18 32 -4l26 14q24 14 14 30l-92 164q-10 16 -32 4zM1196 680h-194v-118h194q16 0 27 11t11 27v44q0 14 -11 25t-27 11z M808 680h192v-118h-192q-16 0 -28 11t-12 27v44q0 14 12 25t28 11zM1180 540h-178v-118h178q14 0 25 11t11 27v44q0 14 -11 25t-25 11zM822 540h178v-118h-178q-14 0 -25 11t-11 27v44q0 14 11 25t25 11zM1164 400h-162v-118h162q14 0 23 11t9 27v42q0 16 -9 27t-23 11z M838 400h162v-118h-162q-14 0 -23 11t-9 27v42q0 16 9 27t23 11zM1002 252v-198q40 0 69 29t29 70t-29 70t-69 29zM1000 252v-198q-40 0 -69 29t-29 70t29 70t69 29zM1148 260h-146v-106h146q14 0 22 10t8 24v38q0 14 -8 24t-22 10zM854 260h146v-106h-146q-12 0 -21 10 t-9 24v38q0 14 9 24t21 10zM886 760v-36q0 -22 20 -22h68q20 0 20 22v128v4v4h-2q-4 14 -18 14h-54q-56 22 -90 72t-34 112q0 82 58 140t140 58v118q-132 0 -224 -93t-92 -223q0 -102 58 -183t150 -115z" />
<glyph unicode="Y" vert-adv-y="180" d="M1552 926q-6 -26 -24 -24l-186 34q-18 2 -12 28l4 30q4 26 24 22l184 -32q18 -4 14 -28zM1510 1302q-12 24 -30 16l-168 -84q-16 -10 -4 -32l14 -28q10 -22 28 -14l168 84q16 8 4 32zM1286 1542q-22 12 -32 -4l-92 -164q-8 -16 14 -30l26 -14q24 -14 32 4l92 162 q10 18 -14 30zM1324 1058q0 130 -92 223t-222 93v-118q82 0 139 -58t57 -140q0 -62 -34 -112t-90 -72h-54q-14 0 -18 -14v-4q-2 -2 -2 -4v-128q0 -22 20 -22h70q18 0 18 22v36q92 34 150 115t58 183zM452 926q4 -26 22 -24l186 34q18 2 14 28l-6 30q-4 26 -24 22l-184 -32 q-18 -4 -14 -28zM480 1276q-12 -24 4 -32l168 -84q18 -8 30 14l12 28q12 22 -4 32l-168 84q-18 8 -30 -16zM690 1526q-24 -12 -14 -30l92 -162q10 -18 32 -4l26 14q24 14 14 30l-92 164q-10 16 -32 4zM1196 680h-194v-118h194q16 0 27 11t11 27v44q0 14 -11 25t-27 11z M808 680h192v-118h-192q-16 0 -28 11t-12 27v44q0 14 12 25t28 11zM1180 540h-178v-118h178q14 0 25 11t11 27v44q0 14 -11 25t-25 11zM822 540h178v-118h-178q-14 0 -25 11t-11 27v44q0 14 11 25t25 11zM1164 400h-162v-118h162q14 0 23 11t9 27v42q0 16 -9 27t-23 11z M838 400h162v-118h-162q-14 0 -23 11t-9 27v42q0 16 9 27t23 11zM1002 252v-198q40 0 69 29t29 70t-29 70t-69 29zM1000 252v-198q-40 0 -69 29t-29 70t29 70t69 29zM1148 260h-146v-106h146q14 0 22 10t8 24v38q0 14 -8 24t-22 10zM854 260h146v-106h-146q-12 0 -21 10 t-9 24v38q0 14 9 24t21 10zM886 760v-36q0 -22 20 -22h68q20 0 20 22v128v4v4h-2q-4 14 -18 14h-54q-56 22 -90 72t-34 112q0 82 58 140t140 58v118q-132 0 -224 -93t-92 -223q0 -102 58 -183t150 -115z" />
<glyph unicode="Z" vert-adv-y="180" d="M842 464h2h2h4v4l-4 2l-4 8v2l4 2l4 2h4l2 2h4h4h4l2 2l4 2l4 4l4 4l2 2l2 10l2 6l2 4h2h4h2h2l2 -2h2l4 -2l2 -2h2l2 2v2l2 4l2 2v4l2 2l2 4l2 2l4 4l2 2l2 2q0 2 -2 2h-2l-2 2h-4h-2l-2 -4l-2 -2l-2 2l-2 4l-4 4l-6 2l-2 2l-4 2v2h4v2h2v4h2h2l2 -2v-2l2 -4h2l4 -2 l6 -2h2h6h2v2l2 2v2l2 2h2h2l4 -2l2 -2l2 -2h4l2 2h4h2l4 2l2 -2l2 4l2 2l2 2h4v-2l2 -2h2h2l4 -2v4h2h4v-2l-2 -4l-2 -2l-2 -2l2 -2l4 -6l2 -4h2v-4v-2h-2h-2v-4v-6l-2 -2l-2 -2l-2 -2v-2h-2h-2l-2 2l-4 4l-22 -2v-2v-4l2 -2l2 -2h4l14 -24v-10h2h2l2 -2v-2l2 -4h2v-4v-2 l-4 -2l-2 -2l-2 -2h-2h-2h-2h-2h-2l2 -2l6 -8h2v-4h-2h-2v-4h-2v2l-2 2l-2 -2l-2 -2l-2 -4h-2v4l-2 2l-4 4l-10 4l-8 2l-4 2h-2l-4 -2h-4l-2 2h-6l-8 -12h-6l-8 -8h-2l-4 -2l-2 -2l2 -14l2 -4h-8l-2 2l-4 2l-22 30v8v2v4l-4 2h-4l-2 -4l-2 -2l-2 2v8zM814 502l-6 -4l-2 -2 l-4 -4l-4 -2v-2h-4l-4 2h-4l-2 2h-2h-4h-2h-2v2l2 2l2 4v2l2 4v4l2 4v2h2l2 2l2 2l2 2v2l2 2v4v2v2v4v4v2l-2 2l-2 2l2 2h2l2 2v2v2h2v2v2h2h2v2l6 6v2h2l2 -2l2 -2l2 -4h2l4 -2l4 -2l2 -2l8 -6l8 -6l4 -6l6 -2v-2h4v-2l2 -2v-2h2h4h2h2l2 -2h2h4h4h2l2 2h2h2h4h2h2v-2h2 l4 -2l2 -2h2l2 -2h2v-2h-2h-2v2l-2 2l-6 2h-2h-2h-2h-2h-2l-2 -4l-2 -2l-2 -2v-2l2 -2l-2 -4l-2 -2l-2 -2v-2v-2h-2l-2 -2h-2v-2l-2 2l-4 4h-2h-4h-2v-2l-2 -2h-2l-2 2h-2h-2h-2h-2l-2 2h-2v2l2 2v2h2l-2 2v2h-2h-2l-2 -2v-2v-2l-2 2h-2l-2 -2v-2h-4l-2 2h-2v2h-2v-2v-2h-2 v-2h-2h-2zM948 640l-70 50v2l-2 4v2v2l2 2h2h6l2 2q2 4 4 4l4 4l6 2l2 6l4 4l4 4l4 2l2 6l2 2v4l2 2l2 2h4l4 -2l4 -2h4l4 -2h2l2 2v4v4h2h4v2l4 4l2 2v4v2l-2 6l-2 6l8 4h8l6 4l8 2l12 4l4 2l6 4l6 4h2h2v-2l4 2l4 2l2 2l2 -2v-6l2 -4l2 -6l10 -28l8 -14l2 -2v-10h2l2 -2 l2 -2h2l4 -4h2l2 -2v-6l4 -4l4 -6l2 -4l2 -4l2 -2h2v-10l-2 -4l-4 2h-2l-2 2v6h-2l-2 2l-2 2h-6l-2 4l-2 2h-6l-2 2l-4 2l-4 2h-4l-2 -4h-6l-2 2v2l-4 4h-2h-6h-2l-6 -2l-4 -2l-2 -8h2l2 -8h-2l-4 -2h-6l-6 -8l-2 -2h-2l-2 2h-4l-4 -2h-2l-6 -2l-6 -4l-2 -4l-4 -2h-2l-4 -2 v-2v-4v-8h2l2 -2l2 -2l-2 -4h-2l-2 -4h-2zM966 326l2 2v4v2l6 8v2l-6 4l-12 2h-4l-16 12h-6l-14 10l-14 2v4l-4 2l-4 4h-4l-4 4l-2 2v2v6v8l4 2h4l2 4l-2 4l-2 6v4v4h4l4 2l6 6l6 2l8 8l4 2l2 -2h4v2h4h4l6 -4l6 -4l6 -2l2 -2l2 -4l4 -4h2l2 2l2 2l2 2h4l2 2v2h2l2 -2l2 -4 l2 -4l4 -6l2 -6l2 -4h-2v-2v-4l2 -4l4 -4v-6l4 -6v-2v-4l4 -6l2 -4l2 -4l2 -4v-8l-2 -2l2 -4l2 -4h2l2 -2l2 2h2h2l2 -2l2 -2v-2v-2l2 -4l2 -4l2 -4l2 -4l2 -2l6 -2l6 -2l2 -4l2 -2l4 -4l2 -2l2 -2l2 -8l2 -4l2 -4l14 -34l2 -2v-4v-2v-4l2 -4l4 -6l4 -6l4 -4l4 -2v-2h-10 l-2 4l-6 2l-6 6l-4 8l-12 12l-12 10v2h-4l-28 -12h-6v2l-2 4l2 2l-4 2l-2 2l-4 8l-44 52v4h4l4 2h2zM886 628v-2h-2h-2v-2v-4v-2v-2v-2l-2 -2h-2v-2v-2v-2v-2l2 -2h2l2 -2v-2h-2h-2l-4 -2l-2 2l-2 2h-4l-4 2l-2 2h-4h-2v2h-4h-2l-2 -2h-4l-2 -2h-4l-4 2h-2l-2 2h-2l-2 2h-2 h-4h-6h-4l-2 -2v-2l-2 2v4l-2 2l-2 2v2v2v4v2h-2l-2 2v2h-2v2l-2 2l-2 2v2v2v2v2l14 20l2 2v2l-4 2v2v2l4 2h2l2 2v-2h2l2 2h2v-2l2 2l2 -2l2 2h2v-2l2 -2h2v-2l2 -2v-2l-2 -4h-2v-2l2 -2l2 -2v-4v-2h2h2h6h4h2l2 -2h2h4v2v4l2 4v4v4v4l-2 4l-2 2v2v2l-2 2v2l2 2h2l2 2l2 2 h2h2l2 2h2v-2h2h2v-2h2v-2l28 -16v-2zM520 790l2 -2l2 2l2 2h2h2q2 0 2 2v2h2l2 -2l2 -2h2l2 2l-2 2h2l2 -2h4l4 2h2l2 2h2l2 2l2 12v2l-2 2v12v2h-2v2h-2v2v2v2h-2v2h-2l2 2v2h2l4 -2l2 2l2 -2h2h2h2h2v2h2v2h2h2l2 -2v-2l4 -4l4 4v2l2 -2l2 2v2h4h2l2 -2v-4l8 -2v-2v-2h4 v-6v-2h2v-2l2 -6l-2 -2v-2v-2v-4h-4h-2h-2h-4h-2l-2 -2l2 -2l2 -2l2 -2v-2l2 -2l2 -2l2 -2l2 -2v-4l-2 -2v-4l-2 -2v-2v-18h2v-2v-2l6 -6v-2v-2h-2v-2v-2v-2v-2h-2v-2l2 -2l2 -2l2 2l2 -2h-2l-2 -4v-2h8h2v-2l2 -2v-2l-2 -2v-2l-2 -2v-2v-2v-2h-2v2h-2v-4l-2 -2h-2v-2h-6h-2 h-4h-2v2v2l-2 2v2l-2 2v2l-2 2h-2l-2 2h-2v2l2 2l2 2v2v2v2h-2h-2l-2 2h-2l-2 2l-24 36v2v2l2 2v2v2v2v2v2h-4h-2l-2 2h-2h-2v-2l-2 2h-2l-2 2l-28 -2l2 4h2zM632 588l-2 8l-2 4v2v4l-20 30l-2 2l-4 4v2h6v2h4h2h4l2 2v2h2v-2l2 -2h2h2l2 2v-2h2h2h2v2v2h2h2v8v2v2v6l-2 2v2 h-2h-2l-2 2h-2l2 2l2 4v2l2 2v-2l2 -2h2v-2h2l4 -6v-2v-6h6v2h4v2h2h2v2v8v2h2v-2h2l6 8l2 2l6 -6h2v2l8 10v2l-2 2v2h-2l-2 6v2v2h2v-2l2 -4v-2h2v2h2h2v-2v-2l2 -2h2h2l2 -2l2 -2h4l2 -2h2h2v2h2v2l-2 6l2 2l2 2l2 2v2v2v6v2v4h2l6 2h2v2l-2 2v2l2 -2l10 -14v-2v-2v-2v-2 h-2v-2h-2v-2h-2v-2v-2l2 -2v-2h-2v-4l-2 -2v-2v-4l2 -4l-2 -2h-2l-2 -2l-2 -2l-2 -2v-2v-2v-2v-2l2 -4v-2l2 -2h2l2 -2l-2 -2l-2 -2v-2v-4v-2l2 -2v-2l2 -2h2v2h2l2 -2v-2v-2h2h2h2h2h8v-2l2 -2v-4v-4v-2l2 -2v-4v-8v-2h2h2l2 -2h2v-2v-2h2v-2h2h2h2h2v-2v-2l2 -2l2 -2 l-2 -2v-2v-4l2 -2v-4l2 -4l2 -2l2 -2v-2v-2v-4l-2 -2v-2v-2v-2l2 -2h2l2 -4v-2v-2v-2v-2v-2v-2l-2 -2l2 -2v-2l-2 -2h-2v-2l-2 -2l-4 -4l-26 10h-2v2l-12 26h-2h-2h-2l-6 -2l-4 10v2l2 2l2 2v4v4l-4 4l-2 4l-8 8v4l-2 2h-2h-2l-2 -2l-6 -4h-2v2h-2l-2 -2l-6 -4h-2v2l-2 2 l-2 2h-2v2h2v-2h2l2 -2h2l2 2l2 2v2v4l-2 4l-2 4l-2 2h-4l-10 8v4h-4v2l-2 2h-2h-2l-2 -2v-2v-2l-2 -2v-2v-2h-2h-2h-2h-2v-2l-2 -2v-2l-2 -2l-2 -2v-4v-2l-2 -4l-4 -4v-2h-2h-2zM1094 680h4l4 2l4 2l2 4h4h2l4 -2v-2q2 0 4 -2h2h4h4h2h4h4l2 2v2h4l2 2h4h4l4 -2l2 2l4 -2h2 l6 6l6 4l4 2h4h4h2l4 -2l2 -2l6 -10l2 -2l2 -2h4h2l4 2v-2l2 -2v-2l2 -2l4 2l2 2l4 2l2 2l2 2h2l2 -4l2 -2l4 -6l2 -2l4 -2l4 -2l4 -4l4 -4l4 -4l4 -4l2 -4v-4v-6v-10l4 -4l2 -6l6 -2l4 -4l6 -2l2 -6h6l2 -6l4 -2l4 -4l2 -4l2 -8l2 -8l4 -8l2 -10v-4l2 -8v-8l4 -4l2 -4l2 -6 l4 -6l2 -8l2 -4l2 -8l2 -4v-4v-26l2 -6l8 -10h2l4 -4v-6l-2 -2l2 -26l4 -6v-4l4 -24v-12l2 -8l2 -6l2 -32v-2h14l2 -2h4l2 2h2h6l4 -2v-2h4l12 -4l4 -2l4 -2l6 -2l4 -4h-2l-6 -6h-4l-12 6q-10 0 -23 -8t-19 -14l-10 -10l-14 18l-4 8l-2 4l-4 8l-24 28l-110 -118h-2l-18 -2 l-68 96v4l20 10l22 36l16 38l-12 30l2 4h2l2 4l4 6l-2 16l-6 76l-14 34l-70 118zM508 612h2v-2v-4v-4v-2l2 -2h-2h-2l-4 2l-2 -2v-2l2 -2l2 -2l-2 -2h-2v-2h-4v-4v-2l14 -6v-2h4v-2h2h2l4 -4l4 -4l2 -4l2 -2v-2l-2 -2l-52 -12h-4h-2l-2 2v2v2v4l2 16v6v2l2 2v2l-2 2v2l2 2v6 v2h2h2l2 2l2 4v2h8l2 2v2l6 2zM760 706l2 2v2h2l4 2l2 2h2h2l2 -2l2 -4v-2v-2h2v2h2l2 2h2l2 -2l2 -2v-4v-2h2h4l2 -2h-2h-2h-2h-2l-2 -2l-4 -2l-2 -4v-2v-2l2 -2v-2l2 -2h2h2h2l2 2l2 -2v-2h2l2 -4v-2l2 -2l2 -2v-2l-12 -16l-4 -6l-2 -4v-2h2v-4l2 -2l4 -4l2 -2l2 -2v-2v-2 l2 -4l4 -10l2 -4l2 -2v-4v-4l2 -6v-4v-4l2 -2l2 -2v-2l-2 -2l-2 2v2h-2l-2 2h-4l-2 -2v-2h4l-2 -2l-2 -2l-2 -2l-2 -2h-2h-2v2v-2v-2v-2v-2v-2h-2l-2 -2l-2 -2v-2l-2 2v2v2l2 2v2v4v2v2l-4 4v4l-2 2l-2 6h2l2 2v2l-2 2q0 2 -2 2v6l-2 2v2h-2v-4h-4h-2v2v2l-2 2v2h-6v2l-2 4 v4l-2 16l-2 2v2h-8l-2 2l-2 2h-2v-2h-2v2l-2 2v2h-2l-2 -2h-2v2v2l-2 2h2l-2 2h2l2 2v2l2 2v2h-2v2h-2l-2 2h-2v2v2v2v2v2l2 2l2 2h2l2 2v2v4v4v2l2 2v2l2 2l4 2h2l2 2h2l2 -2h2v2h2v2h2h2l4 2h2l-2 2h-2v2zM386 570h-2h-2l-2 2v2v4v2l-2 4v2v10h2l4 4l-2 2l-2 2l-2 2v2h2 l2 -2h2l2 2v2h2l4 -2l4 4v2l-2 4l2 2l4 2v4v2l10 -2l2 -2h2v-2v-2h2l4 2h2l2 -2h2h2v4h2h2l4 -4l2 -2v-4v-2h4h2l2 4l2 2l2 4v2v2l-2 2h-2h-2l-2 4v4v2l2 2l2 2h4h2l4 2h4l2 -2h6v2l2 -2v-2h2h2h16v-2l2 -2h2v-2h2h2v-2v-2h2h2h4h4h6h2l2 -2l2 -2l2 2h2h4v-2h-4l-2 -2l-2 -2 l-2 -2h-4l-10 -6h-6l-4 -4l-4 -2l-4 -2h-6l-4 -2v-2h2l-2 -2l-2 -2h-2l-2 -2v-2l-2 -4v-2h-4h-2h-2l-2 -2v-2h-2l-2 -2v-6l-2 -2l-6 -4v-2v-2h-2v-2l-2 -2v-4l-2 2l-4 4l-4 2h-2v-2v-2l-4 -2h-2h-2h-2h-4l-6 4l-2 2h-4l-10 10h-2v-2v-2h-2h-4zM962 648v4l2 2v4v2h-4v-4 l-2 -2v-2l-4 2v2v4v4h4h4v2v2l2 4h4l6 2l8 4l2 -2h4l2 2l6 6h2h6l2 4l4 2l2 2v2v4l-2 2v2v2l2 2h2h2l2 2h4h2h2l2 -4l2 -2v-2h2h4h4v4h4l6 -4h4h2l4 -4v-2h2l4 -2h6v-6h-2l-2 -4h-4h-4h-2l-2 -2l-2 -4l-2 -2l-2 -2v-4l-2 -4v-6l-2 -2l-2 -2l-4 2h-4h-4h-2h-2l-6 -2l-2 -2 l-2 -4l-2 -4l-2 -4v-2l-2 -4l-2 -4h-4h-2v2v4l-2 2l-4 2l-2 -2l-2 -2v-4l-2 -2h-4h-2v4l-24 12v2zM550 842h-2v2h-2h-4h-6l-2 -2l-6 -2l-18 -10h-4l-2 4v4h-2l2 2v2v2l-2 2h-6l-16 18v2v2l-14 12l6 2l4 2l2 4h6h6h4l2 2l2 2v2h2v2l2 2h12h2v-4h2h2h2h2h2h2h2v2h2h2l2 -4 l2 -2v-2v-2l4 -2l2 -2h2v2h2h2h2h2l2 2h2v-4l8 -8h4l2 -6l4 -2l6 -4l4 -2l2 -2h4h-2l-2 -2l2 -2v-2h-2v-2l2 -2h-2l-2 -2l-2 -2l-4 2l-2 2h-2h-2h-2l-2 -2h-8h-8l-2 -2h-2v-2zM912 560l-2 4v2l-2 2l-4 2v2v2h4l2 -2h4h6l6 2l4 2h2l6 2l2 4l-2 6v8v6v2l-6 6l-4 4v16l-18 32v2 l36 -26h2h2h2l8 6l22 -14l2 -2v-2l2 -2l2 2h2l4 2l2 2l2 2v2l2 2v-2v-4v-2l4 -2h2l-2 -2l-2 -2v-2l-2 -4l-2 -6v-2v-2v-4l2 -4l2 -2v-2v-2h-2v-4v-6l2 -2v-4v-2l-2 -4l-2 -2l-12 -2h-6l-2 4l-6 2l-2 -2l-2 -4h-2l-2 -2l-6 -2h-4h-6l-2 2l-4 2l-2 2l-8 -2l-2 -4l-2 -4h-8 l-4 2h-4zM514 596v2v2l-2 2v12l4 2l18 10l2 -2v-2v-2l-2 -2v-2v-2v-2h2v-2l2 -14l-2 -4v-2v-2l2 -2v-2v-2h-2v-2v-2v-4l2 -2l2 -2l2 -2l2 -2h-2l-2 -2l-2 -2h-2l-2 -2l-10 12l-2 2l-4 2h-2l-6 4l-2 2l-4 2v2l2 2h2v2v2v2h-2l-2 2h2l2 -2h2h4v2zM570 588l-4 -2l-2 -2l-4 -2 h-2l-2 2h-2h-2h-2h-2h-2h-2h-4v2v2v4v2v2v4l2 4h-2v2v6v2l-2 2h-2h2l2 4l-2 4v2l-2 4l-2 2v4v6h2l2 2v2h2v2v2l2 2v2v2v2h2h2l2 2l2 2l2 2v2h2l2 -2l2 2h2h2h2v-2l2 -2h2l2 -2l2 -2l2 -2l4 -2h2h2q0 -2 2 -2l2 2l2 4v2l-2 2v4h-2h-4l-2 2l-2 2l-2 2v2h-2h-2v2h2h4l2 2h2h2h2 l2 -2h2q0 -2 2 -2h4l2 2l4 2l2 2v2l-2 2v4l-2 2v2q2 0 2 2h2l2 2h2v-2l2 2h2h2h4v-2l4 -2h2h2l2 -2h2l2 -2l2 -2h2l-2 -2l-2 -2v-2v-2v-2l-2 -2l-2 -4h2h2h2h2l2 -2v-2v-2v-2v-2v-2v-2v-4h-2v-2v-2h-2l-2 2v2h-2v-2h-2v-2v4h-2h-2l-4 2v-2l-2 -2h-2h-2h-2h-2l-4 -2l-2 -2h-4 v-2h2v-2l2 -2v-2l-4 -2l-2 -2h-4l-6 -2h-2h-2l-4 -2h-2h-4l-6 -2l-2 -2v-2l-2 -4h-2h-2v-2h-2v-2v-2l2 -2v-2l2 -2v-2v-2v-2l2 -2v-2h2l2 -4v-2l2 -2zM870 492h-2l-2 -2v-2h-2h-2h-2h-4v2h-2v2l-4 -2v-2l-2 -2h-4h-2v-2l-4 -2l-2 -2v-2h2v-4h2l2 -2l4 -4v-2l-4 2h-2l-2 2h-4 l-4 2l-4 2h-2h-2h-2h-4h-2h-2l-6 2l-2 4l-2 2l-2 2v2l2 2l2 4l2 2h2l2 2l2 2h2l2 2l2 -2l2 2v2h2v2v-2h2l2 -2h4l2 2h2v2h2l2 2v2v2h2h2l-2 -2l-2 -4v-2l2 -2h2l2 -2h2h4h2v-2h2h2h2l2 2l2 2h2l6 -6v-2zM450 708l2 2v4h2l2 -2v-2l-2 -4v-4v-2l-2 -4v-4l-2 -2h-4v-2l-12 -8 v-2l2 -2v-2l2 -2v-2h-2l-2 -2h-2l-4 -2h-4h-2v-4l2 -2v-2l-2 -4h2v-2h2h2v-4v-2h-2v-2l-4 -4l-2 -2h-2v-2v-2h-2v2l2 2v2l-2 2h-2v2h-2v2v2v2h-2v2h2v2v2l-2 2l-2 2h-4l-2 -2v4l-2 2v2h-2h-2h-2h-2v-2l-2 2l-2 2l-2 2v2l2 2v2l2 2v2h2v2v2l-2 2h2v2l-2 2l-2 -2v-2h-2v2h-2 l-2 -2h-4l-2 -2l-2 2h2l4 2v2v2l-2 2l-2 -2h-2v-2h-2h-2v2h4v2l2 2l8 14v2v2h2h2l4 2l2 4l-2 4v2v2l2 2v2v2h2l2 2l2 2v2h2v-2h2h2h2v2h2l4 2v2h2h12l4 -2v-2v-2v-2l2 -4v-6v-2h2h2v-2v-2v-4l2 2h2h2l-2 -2v-2l2 -2l2 -4h4zM1384 374l10 2l6 2l6 2l8 4l6 2l6 4l58 26l4 4h8 l2 -2l2 2l36 2l2 -2h4l4 2h2h2h34l-10 -14l-2 -4l-6 -10l-4 -2l-4 -2l-2 -2l-2 -2v-4h-4h-4h-4v2v2l-4 2h-2l-2 -2v-4l2 -2l-6 -2h-2h-6h-4l-4 -4l-2 -4l-4 -2l-2 2h-4v4v4l2 6h2v4v4h-2h-2l-2 -4l-2 -6l-2 -8v-4l4 -4l-4 -2h-2l-2 4v2l-2 6h-2l-2 2l-2 2l-2 2l-2 -2l-2 -4 v-2h-2v-4h2h4h4v-2l-2 -2h-4v-4l8 -2v-6l2 -8v-4l2 -4h2h6v-4v-2l-2 -2h-4l-4 2v2l-2 4v4l-4 -2l-2 -2h-2l-4 -4h-2v2l-2 -2l-2 -6l-2 2v4h-2v-2l2 -4v-4l-2 2h-2h-4l2 -4h6l4 -6l2 -2v-2l-4 -4l-4 -2l-4 -2l-2 -2l-6 -4l-2 -2l-4 4l-8 2l-4 4l-16 2l-2 4h-2l-2 2h-4h-6 l-2 -2h-2h-2l-2 2h-12v30v6v6l-2 4v10q2 2 2 4zM1476 324h4l2 2h2h2l2 2v2h-2v2l-2 2v2h-2l-4 -2v-2l-2 -2l-2 -2v-2zM1492 326h-2v-2h2h2h2v2h-2h-2zM1500 356v-6l2 -2v2l2 2h2l2 4h2v-2h4v4h6v-4h4v4l2 -2h2l2 4l-4 4l-4 2l-4 2h-2l-2 -2l-6 -2l-2 -2l-4 -2l-2 -2v-2z M928 542h-2l-2 -2h-2l-2 -2v-2h-2l-2 -2v-2l-2 -2v-2v-2l-2 -2v-2h-2l-2 2h-2h-2v2h-2l-6 4v2h-2h-6h-2h-4v-2l-2 -2h-2h-4v2h-2v2h-2h-2l-2 2h-2v-2h-2v-2l-2 2l-2 2v2h-2l-2 2h-2l-2 2l-4 2v2l-4 4l-2 2l-18 14h-2h-2v2h-2v2v2h2v2l-2 2l-2 2v2v2v2l-2 4v4v4l-2 4v2l-2 2 l2 2l2 2l2 -2h2h4h4h2l4 -2l4 -2l2 -2h4h2l2 2l4 2h4l2 2v-2h2h2h2l2 -2h2l2 -2l2 -2h2l2 -2h4h2h4h2l-2 -2l2 -2h2h2v-2l2 -2l2 2v2l2 -2v-2v-4l2 -2v-2l2 -2v-4l-2 -2v-4v-2v-2h-2l-2 -2v-4h2h2l2 -2h2v-2l2 -2h2h2l2 -2v-2v-2h2v-2l2 -2h2v-2h2l2 2h2v2l2 2v2h2h2l2 -2 h-2zM530 630h-4h-2l-4 2l-2 2l-2 -2h-6h-8l-4 6h-2l-2 2l-2 2v2h2l2 -2h4l2 2l4 2l2 2l-2 4v2h-4v4l-2 2v2l-2 2l-2 2l-4 4l-2 2v4v4v2h-2h-2v-2h-2v2h-2h-2h-2v-2h-4l-2 -2l-2 -2h-2v-2h-6h-2h-2v-2h-2h-2v-2l-2 -2v-2h-2l-2 2v2h-2v-2l-2 2v2l-2 -2l-2 2v2v2l-2 2v2h2l2 2 h2l2 2l2 2h4h2v-2h2h2h2l2 2v2v2l2 2l2 -2h2h4h2h2h2l2 -2l4 2l2 -2v-2l2 -2l2 2h2v2h2l2 -2l20 2l2 -2h2h2l2 2h2l2 2l2 -2v-2v-2h2h2h4h2l2 -2h2h2v2l2 4h2v2l2 -2h2l2 -4l2 2h2h2h2h2v-2v-4v-4v-2v-2h2h2v-2l4 -2l2 -4h4h2l2 -2v-6h-2v2h-2h-2h-2l-2 2l-2 2l-6 4v2l-2 2 l-4 -2h-4h-2h-2h-2l-2 -2l-2 -4h-2h-4l-2 -2v-4v-4l-2 -4l-4 -2v-2h-2v-6v-4v-2v-2zM1218 204l106 116h2l4 -4l16 -20l2 -8l2 -2l4 -4l2 -6l16 -20l-2 -4l-2 -4l2 -2v-6l-2 -4v-4l-2 -4l2 -4v-4v-2v-4h4l4 2v-4h-4v-4l-4 -4l-2 -6v-4l-4 -4l-2 -4v-4v-6v-6v-4l-6 -2l-2 -2 l-8 -4l-4 -4v6l-2 4l-4 -4v-4v-6v-6l-12 -28l-2 -2h-4h-2l-2 4l-2 -2l-2 2l-4 2v-4l2 -2l4 -2v-2l2 -2h2h6v-10l-4 -10l-2 -8l-4 -6l-4 -8l-2 -4h-8l-2 2l-4 2l-4 2h-2v-4l-2 -2h-6l-2 -2h-4l-2 4l-4 6l-4 4l-4 4l-4 4l-6 2l-2 2v2l-2 2v2v4v4h-2l-4 2v8v4l-2 4l-2 4l-4 2 l-4 2h-6h-6h-8h-4h-4l2 8l2 6l2 8l4 6l2 8l4 8l4 10l2 6v18zM1278 48l-2 2l-2 4l2 4h4h2h4v2l2 2l2 2l2 -2l2 -2l4 -2l2 -2l-2 -2l-2 -2l-2 -4l-4 2l-4 -2l-2 2v-2h-2h-4zM1288 36l2 2h-2l-4 2v2h-2h-2v-2l2 -2l2 -2l2 -2zM1284 44l2 -2h4h2l2 2v4l-4 -2h-4zM462 694l-2 -2 v-2l-2 -2l-2 2h-2v4l2 2v6l2 2v2l2 2l4 2l2 2h2h4h4h2l4 2h2h2h2h2h2l2 2v2h4l4 2v2h2h4v2h2h2h2h2h2v-2l-2 -2h-2l-2 -2l-6 -4v-2v-2v-2v-2h-2v-2v-2h-2v-2h-4v-2h-2h-2h-2v-2l-2 -2h-4h-2v-2h-2h-2h-2h-2h-2h-2h-2h-2v2h-2l-2 2h-2v-2zM844 812l-2 -6l-2 -4l-4 -4l-2 -4 v-6l78 -10v-14l4 -4l4 -4v-8h-2l-2 -4q-2 -2 0 -4l-4 -6l-2 -2l-4 -4l-4 -4l-6 -6l-2 -4l-4 -2q-4 -4 -8 -4l-6 -4l-6 -2v-4v-6v2l-2 2l-4 -2l-4 -2l-6 -2l-4 -2v-6v-2l2 -4l2 -2v-8v-8v-4l-4 -2h-4h-6l-4 2v2l-2 4v4l2 2v6l-4 2v4h-6h-6h-8h-2l-6 -4v4l-4 2l-2 2h-4h-4 l-2 2v4v2l4 2h2h4l2 2l2 2v4h-2l-4 2l-2 2l-2 2v4h-6h-4h-2v4l-2 2v2h-4l-8 -2l-4 -4l-4 -2v-4q-2 0 -2 -2l-2 -2h-2l-4 -2h-2h-2h-4h-2v2v4l2 4l2 2l2 4l-4 4v4l-6 6l-2 4l2 2l2 6l2 2v6l2 12h-2l-2 4v2v2l6 14l2 4v2l-2 4v6h2h6l2 2l20 26v4l4 2v-2v-4h30h6l4 2l4 4v2l4 2 h2h2l4 -8l4 -6l2 -4l4 -2zM544 552l-8 2v2h2v2h2l6 8v2l-8 12h2h2h4h6h2h2v-2h2h2h2v2h2l4 2l2 2l2 2h2v2l-2 2l-2 2v2l-2 2l-2 2l-2 4l-2 2v2h2v4l-2 2l-2 2v2h2l2 2h2v2v2l2 2v2h4l2 2h2l2 -2h2l2 2h2l2 2h2h2h2h4h2l2 2v2h2l2 2v-2l2 -2l2 -2l2 -4l2 -4l6 -6l2 -6l4 -4 v-2h-2l-2 -2h-2h-4l-6 -2l-4 -2l-8 -2v-2h-2l2 -2l2 -4v-2v-2l2 -6v-2h2h2h2v-2l2 -2l2 -2l4 -2h2h2v-2l-2 -2h-2h-2l-2 -4l-10 -8v-8l-4 -2h-2h-6l-16 -10l-24 20h-4zM886 598v2v2l-4 2v2v2v2l2 2h2v2v2v2v6h2l14 36l2 2v2h2l16 -32v-2l2 -4l-2 -4v-2v-4v-2h2l2 -2v-2l2 -2 h2l2 -2v-2v-2v-2v-2v-2v-4v-6v-4v-2h-2q0 -2 -2 0l-4 -2l-2 -2h-2h-8l-2 -2l-2 2l-4 2l-2 -2h-2v4l-2 4v2l-2 2v4h-4v-2l-2 2h-2l-2 2v2v2zM514 784l30 2v-2l2 -2h2h2v-2l2 2h2h2h2l2 -2h-2l2 -4h-2l-2 -6l24 -40l2 -2h2v-2l2 2h2v-2h2h2v-2h-2h-2v-2l-2 -4v-2v-2h2l4 -2h2 l2 -4l2 -4l2 -4v-2v-2h-2l-2 -4l-2 -2v-2h2v-4l2 -2l-2 -2l-2 -2h-2h-2h-2l-2 2l-2 2h-2h-2l-2 -2h-2h-2l-2 -2h-2v2l-2 6v2l-2 2h-4h-2h-2v-2l-2 2h-2l-2 2l-2 2l-2 2v-6l-2 -2l-2 -2h-2v2h-4h-4v4h-2h-4h-6h-4l-4 -2h-6h-8h-2h-2v2l4 2v2h2l2 2v2l2 2l2 4l2 2v2v2v2l4 2h2 l4 2v4l2 2v2v2h2h2v2l2 2h2v2v4l-2 2v2l-2 4v2v4l2 2v4v4v4l-2 4l-2 2l-2 2l-2 2v2l-4 2l-2 2v2zM1500 770v-72l2 -4v-134l90 -120v-10l-2 -2h-4h-40l-2 -2h-4l-2 2l-38 -2l-2 -4h-10l-4 -2l-12 -4l-16 -6l-18 -10l-18 -8l-40 -18v18l-4 8l-2 4l-4 4v20l4 4l-2 8l-4 4l-2 2 l-4 2l-4 10l-2 2v4v24v6l-4 8l-2 6l-6 18l-4 4l-4 2l-2 4l2 2h2l-2 8l-2 10l-2 8l-2 8l-2 6l-4 10l-6 8l-2 2l-8 6l-4 4l-4 4l-14 8l-2 6v4v10v10l-2 2l-6 6l-4 4l-6 6l-4 2l-6 4l-4 2l-8 8l-4 6l-4 -2v-2l-4 -2v-2l-2 -2h-2l-2 2v2l-4 2h-4h-4l-4 4l-4 4l-4 4l-4 4h-4h-8 l-6 -2l-6 -6l-6 -2h-4h-6h-6l-6 -2h-2l-2 2v6v10l2 4v4l2 6l-2 12l-4 6l-4 24v6l-2 6v4h6l4 2l12 12h12l2 2h4h10h2v4l2 4l4 2l8 4l6 2l4 2l4 6l4 8l4 8l4 4l10 8l6 2h6l4 2h4l2 -4l6 -10l2 -2l2 -6v-6l4 -6l2 -4l2 -4l2 -4h2l2 -4l10 -14l6 -6l6 -6l20 -10l8 -2l14 -8 l10 -4l8 -4l6 -4v-4l4 -2l2 -4l6 -2v-2l2 -2l4 -2l18 -2h2l2 4q12 -2 14 -2l6 2l2 2h2l4 -2l8 2l18 16h4l22 16l4 2l2 2l2 2v2l2 2v-2zM602 806v2l4 -2h2h4l4 -2v2v2v4l2 4v2v6v2v2h-2v2v2v4h-2l-2 2l-2 4h-4h-2v4l-4 2l-2 2l-2 -2h-2l-2 2v2h2v2v2l2 2l-4 2l-2 2l-6 2l-4 4 l-8 4v4l-6 2l-2 4l-4 4h2l26 -12l16 12h2l2 2l6 6l4 2v2l2 2h2h2h2h2v-2h2h2v2h2l4 2l2 2l2 -2v-2v-2l2 -4v-4v-4v-4l2 -2v-4v-2l-2 -2l-2 -2v-4l-2 -4l-4 -4v-2v-4l-2 -4l2 -2v-4h-2v-2l-2 -4l2 -2v-2h2v-2v-2v-2v-2v-4v-4l-2 -2v-2l2 -2v-2l-2 -2l-2 -2v-2v-2l-2 -2v-2v-2 v-2h2v-2v-4l-2 -2v-4h2l2 -2l2 -2v-6l2 -2v-4l2 -2l-2 -2l4 -4l4 -2l4 -2v-2l-2 -2v-6v-4v-2v-4v-2l-2 -2l-2 -2l-2 -4h-12v2l-2 2h-2h-4v2v4v2h-6v2l2 4h2l-2 2l2 2v4l-6 6v2v2v2h-2v16v2l2 4v2l2 2l-2 4l-2 2l-4 6l-4 4zM372 696l-2 -2h-2v4v2h-2v4v2h-2h-2v2l2 2v2l2 2v2 v2h2l2 4l-2 6v2l2 2l2 4l2 2v2l2 2l2 2l2 2l4 4l2 4v2v4v4v2v4v2h2l2 6v4v6l4 2l6 4l2 2h6l2 2l4 2v2v2h2l2 2l2 2v2v4v2l2 2l2 2h2l2 -2l4 -8v-2v-4v-2l-2 -2h-2l-2 -2v-2l-2 -2v-6v-2v-2l2 -2v-2l2 -2v-2h-2v-4v-4v-4v-2h2l2 -2l2 -2l2 -2v-4v-2l-2 -2l-2 -2h-2h-2h-2h-4 h-4l-2 2v-2h-2v-2h-2h-2l-2 -2v-2h-2v2l-2 2v2h-2l-2 -2v-2l-2 -2v-2h-2l-2 -2l-2 -2v-2v-2v-2l-2 -2v-2l2 -2v-2l-2 -2h-2h-2l-2 -2v-2l-2 -2l-2 -2l-4 -10l-2 -2v-2zM1172 208l-6 -4h-6h-4h-6h-8h-8l-4 2l-6 4l-4 2l-6 4h-6l-8 4l-2 6l-4 4l-4 4l-4 4v4v4v4l-18 42l-2 6 l-2 4l-6 8l-4 2l-2 8l-6 2l-4 2h-4v4l-4 4l-2 2v4l-2 4l-6 6l-2 2h-4l-4 -2l-2 4v4l2 6l-2 6l-2 4v4l-4 2v6v6l-4 6l-2 6l-4 4v4l-2 2v4l-2 10l-4 6l-2 6l-6 4v8l-2 2v2l2 2l6 2l6 4v4l-2 8l-4 6h-2l-4 2v4v4l-10 16l-4 4v4h-4l-2 2v4l12 -2h4h4v-4h6l8 8l2 6v6l4 2v4l-4 4 l-4 12v2l4 4l4 2l4 6l2 2v4v6l-2 4v4l2 4v4l-2 2l-2 4v8l4 6l2 6l4 4l6 10l2 6l4 6l6 2h6h4l4 -2l4 2l2 2l2 4v4l2 2v8l4 4l2 2h4h4l4 2h2h2l10 -2h4l70 -122l12 -34l6 -76l2 -12l-4 -6l-6 -2v-4l12 -36l-12 -24l-2 -4l-22 -36l-6 -4l-6 -6l-8 -2h-6l4 -6l34 -46l36 -54h-2 l-4 4h-4h-4h-6h-2zM436 728v2v2v2l2 2v2l-2 2v2v2v2v2v2v2v2v2v2l-2 2l-2 2h-2v2v2l2 2h4h2h4h2h2l2 -2l2 -2h2h2v2v2h2h2v-2l2 -2h2h2h2l2 2l2 2v-2h4l2 2h2l2 2l2 4h2l2 2l8 6h2v2l2 2l2 2h2v2l2 2l4 2v2l2 2v2v2l2 2l4 2h4h2v2l2 2v2l2 2v2h2h2l2 -2h4h2h4v2l2 2h2v2v2v4 l-2 2l-2 2l-2 2v4l-2 4h4h4l2 -2h2l2 -2v-4v-2h2l4 -2l-2 -12l2 -2v-2v-10h-2l-2 -2h-2l-2 -2h-2h-2h-2h-2v2h-2v-2l-2 -2h-2v2h-2h-2h-2v-2l-2 -2h-2h-2l-2 -2h-2l-2 2l-10 -10l2 -2l2 -2l2 -2h4v-4l2 -2l2 -2l2 -4l2 -4v-2v-4l-2 -2l-2 -2l-2 -2l2 -4l2 -2v-2l2 -2v-2v-2 h2v-2h-2h-2v-2l-2 -2h-2l-2 -2h-4h-2h-2h-2l-2 -2v-2h-2h-4h-2v-2h-2l-2 -2l-2 -2h-2h-2h-4l-6 -2h-2l-8 -2h-2l-4 -2h-4h2l-2 2v2v2l-4 -2h-2h-2h-2v-4l-2 2v2h2v2v2v2l-4 -2h-2v4v2v2v2h-2h-2v-2h-2zM424 556l6 2h2l2 2v2l2 -2l6 -6h4v2l2 6l2 4v2l8 4l2 8l4 4h4h2v-6 l-2 -2v-6v-8l-2 -16l2 -4l2 -2l-2 -2l-2 -2l-4 -6h-2l2 -4v-2l2 -2l2 -2v-4l2 -2v-4l4 -4l2 -4l4 -2l2 -6l2 -14l-98 54l-2 2h-4l4 2l4 -2h2h2v12h2v2l6 8l2 4l-4 2h-2l-4 4l8 2l6 -8h2h4l8 -6h6zM430 822h2l2 2l2 2v4h4l2 4l2 4l2 2v4l2 8v6v2l2 6v4h2h8l2 2v2v2h2h2 l26 -30l2 -2h2h4v-2h2h-2l-2 -2l2 -2v-4l2 -4v-2v-2l2 -2v2h2l4 2h4l4 2l2 2h2l2 2l2 2l4 2h4h2v-2v-2v-2l2 -2l2 -4l2 -2l2 -2l-2 -2h-2l-2 -2h-4h-2h-4l-2 2l-4 -4v-2v-2v-2h-2v-2h-2h-2h-4l-2 -2l-4 -2v-2v-4v-2h-2l-2 -2l-2 -2l-2 -2h-2l-8 -10l-2 -2h-4v-2h-2l-2 -4 l-4 -2h-2l-2 -2v2h-2l-4 -2h-2l-4 2l-4 2l-2 -4h-2l-2 2l-4 4v-2h-2h-2l-4 -2l-2 2h-2l-2 -2v2v2h2v2v2l-2 4l-2 2v2v2v2v2l2 2v2l2 2h2l2 2v2v2v2v2v2l-2 2v2l-2 2v2l-2 2v2zM666 962l24 -52l4 -4q0 -2 2 -8l4 -2l10 -18h12l22 -28l6 -2l4 -4h2h6l10 -8l-2 -2l-20 -30 l-12 -2h-2l2 -10l2 -4l-8 -16l-2 -2l2 -6l2 -2l-2 -14l2 -4l-2 -2h-2l-4 -4v-4l-2 -4l-2 -2h-2l-2 -4l-2 -8l-2 -4v-4h-2v-4v-6l-4 -2l-2 4h-6l-2 2l-2 2v2h-6l-4 2v2v4l-4 -2l-2 -2v-6l4 -6v-4l-6 -8v2l-4 4h-4l-4 -4l-2 -4h-4l-2 -2v-8q0 -2 -1 -3t-3 -1h-4v4l-2 4l-4 2 l-2 4l-6 4l-4 4l-4 2l-6 2l-2 4l2 4h2l4 2v4l2 4v2l2 4h2l10 2l2 2l2 2v4l4 2l-2 14h2v4v4l-2 2v2h-2l-4 2v2v4l-2 4l-4 6l-2 6v6v2v2l-2 2v2l2 2v4v2l2 2l2 2v2l-2 4v2l2 2v4v6v2v4l-4 2v4l2 2v2v10l2 2v4l2 2l4 4v4l2 2l2 6l-4 12l2 4l-2 8v2v10l2 4v4l2 6l4 8l2 4v2l4 2 v4l4 2v12h2zM506 906l-2 4v2l-2 2l-2 2v4l-2 2l-2 4l4 4h8h2l-2 6l2 4l2 4l2 2v2q2 0 4 2h4l2 4l4 6l2 2l2 8l2 6v6l2 4l2 24v2l-2 2l-2 2l-2 2v2v2l-2 8l-4 8v6v6l-2 6v8v4l-4 12v4v4l2 2l2 2h4h4h6h4h4l4 4l2 4l4 2v4v6l2 4l2 -2l2 2l4 -2l2 -2l4 -2v-2l2 -4l2 -4l4 -8h2 v-4l-2 -4v-2l-2 -4l2 -2l4 -4l-2 -20v-8l2 -4v-6l2 -6l4 -6l2 -4v-4l-2 -4l2 -4l6 -6l6 -4l4 -4l2 -4l2 -6q2 0 4 -4h2h8l12 -2l6 -2l8 -4l2 -2l6 -6l-2 -6v-4l-2 -4l-4 -6l-2 -6l-4 -6l-2 -8l-2 -6v-4l-2 -2l-2 -2l-4 -2h-6h-4h-2l-6 -4l-4 -4l-6 -6l-6 -4l-8 -4l-4 -2 l-8 4l-6 2l-6 4h-6h-6l-6 -2h-4h-2v2l-6 4v4h-4h-4l-8 2h-2v2h-16zM1172 106l-6 -10l16 -8v-6l-10 -26l-76 -28l-106 74l-12 24l-6 4l-4 2h-4l-6 -2l-2 2v2l2 2v4h-6v2l4 4l2 4l8 6l6 6l2 2l-4 20h24v6l2 10v4l2 4l2 10l2 6v4l4 6l2 4l2 6h2l30 10h4l2 -2l22 -22l4 -6l4 -4 l6 -4l6 -6h4h12h6h2l4 -4h6l6 -4h8l6 -2l6 -2h6l4 2l2 2h10h4l2 4h4l2 -2h2l4 -2l4 -2l4 2h16l-2 -16l-14 -38l-4 -24l-6 -8l-2 -14zM1180 1026l2 -6l4 -6l6 -6l4 -4h2l2 -4l4 -4l14 -24h4l6 -4l20 -20l-24 -10v-2l28 -70v-4v-4l-2 -2l-6 -2l-12 -2l-4 -6l-8 -4l-6 -10 l-4 -10l-6 -6l-14 -6l-6 -2l-2 -4l-4 -4h-6h-6l-10 -2l-6 -4l-6 -6l-8 -6l-6 -2l2 -8v-10l2 -18l2 -10q2 -2 4 -8l2 -8q0 -2 -4 -6l-4 -14l4 -8l2 -4l-6 -2l-12 4l-4 2l-4 2h-8l-4 -4h-4l-6 -4l-2 2v4v6l-2 4l-4 4v2l-6 4l-2 4v4l-2 2l2 4l-4 4l-6 2l-6 4v4l-2 6h-2l-8 16 l-14 40v6l-4 2l-8 -2l-6 -2h-6l-12 -6l-8 -6l-14 -6l-10 -2l-8 -2l-6 -4v-2l2 -10l2 -6l-4 -4h-2l-2 -2l-4 -4v-6l-8 2l-12 6v4l-2 6l-4 6v6l-4 8h-4q-2 0 -6 2h-16l-16 2l-14 2l-10 2h-4l-4 2v2l4 6l2 4l2 8v6h2h10l4 2l6 2l8 2l4 -4l4 -4h6h4l2 2l6 -2l4 -6l6 -10 q0 -2 2 -6l4 -4h2h10v4l4 -2l2 -2h6l8 2l6 2l12 10h8l6 4h12v6l6 2l6 -2l12 10l10 2l-6 54l-12 14v10h4l60 52l10 26h4v6h4l20 14l8 2l48 22l4 8zM1250 -32v2l-2 -4v-6h-2v4l-4 -2v-2l4 -10h-12v6v2l-6 2h-6v-4l2 -2l-10 -10l-114 78v2l76 30l10 30v6l-14 8l4 4l10 -4h4l2 2 l2 12v8h4l6 2h4l20 -2l2 -2v-6l2 -4v-4v-2l2 -6l2 -2l4 2l-2 -4v-2h-2v-2l2 -4l2 -2h2h4l2 -2l10 -8l4 -6l4 -4v-2l2 -6l2 -2l4 -2v-2l-2 -2v-2l2 -6l6 -4l4 -4l-6 -12l-2 -4l-2 -2v-4v-4l-4 -6l-2 -4l-2 -10h-4l-4 -6l-4 -4v-6v-8h-4v4v4zM766 846l6 10v8l-2 18l-4 8l-4 2 l2 2l6 2h2v8v4h-4v4l2 2l4 4v6l-4 4h-2l-6 4h-4l-6 2l-4 4l-2 4v2v4h4l2 2q0 -2 2 -2l4 -2h2l2 4l4 4l2 4l6 2v6l2 2l2 4l6 10v16l-2 6l2 2l2 4v10v6l2 2h2v8v4l2 4l2 4l6 2l4 2l6 2v4l2 4v4h4v6l-2 4h-4l-4 2l-2 2l-4 4h-4l4 4l4 2l2 4l4 2v6h6l6 -14l4 -10l4 -12l2 -6 l6 -8l2 -6v-14l4 -6l2 -4l4 -4l6 -2l6 -2h16v-6v-2l2 -2l2 -2h6v-4h2l2 -4l10 -8l2 -4v-2l6 -6l8 -6l6 -6l8 -14l6 -10v-6l4 -4l6 -8h4l6 4l36 2l2 4h2l2 -2l4 -2l4 -4l2 -4v-10l-2 -2v-14l10 -12l2 -4l6 -46l-6 -2l-4 -2l-10 -8l-2 4l-12 -6l-2 -4h-12l-2 -4h-4h-2l-6 -4 l-6 -2l-6 -4l-2 -2l-14 -2v4l-4 -2l-2 -2h-8h-2l-2 4l-2 6l-4 8l-6 6l-2 2l-2 2h-4l-2 -2h-2h-4l-4 2l-2 2l-2 4h-4l-10 -2q-8 -2 -10 -2l-10 -4h-4l-2 2l-2 2l-2 8l-6 6l-2 4h-6l-4 -2l-4 -2l-2 -4h-2l-4 -2h-4h-4h-8h-6h-6v4l-4 2l-2 2l-4 4zM968 204l-270 154v4l4 6v6h2 v14v2v2l2 2v8l-2 2l-2 4l4 12h2l-2 8l4 8v2v4v2l-4 10l44 46l2 4v16v2l26 -12v-2v-2l-2 -4l-2 -4h-2v-2v-2v-2l2 -2l4 -2h8h2l6 -4h2l2 -2l2 -2l4 -4l4 -4l2 -2h2h4l16 -4h2l2 -2l2 -8l2 -4h2l2 2h2v2l4 2l2 -2v-2l-2 -10l24 -32l4 -2v-20l2 -2l2 -4l2 -2l2 -2h6h2l2 -2 l2 -4l2 -2v-2l10 -2h6l10 -8l2 -2h4l4 -2l2 -2l2 -2l4 -2h2l6 -4l4 -2h12v-2l-2 -2l-2 -2v-2v-2v-4l-2 -2h-8l-2 -2v-2v-4l46 -58l2 -2v-4h4v-8h2v-4l-4 -2v-2v-4l-4 -4v-4l-2 -2v-2v-8l-2 -2v-2v-8l-4 -2v-12h-20zM1500 1052l-2 -4l-2 -4l-2 2l-2 4l-4 2l-2 2h-4l-8 2l-4 4 l-4 2l-4 2l-2 4l-4 2l-4 4h-4l-8 4l-4 6l-6 8l-2 4l-4 6l-2 6l-4 12l-2 8l-2 10l-2 14l-6 10l-2 4l-28 12l-6 2l-32 38l-6 2l-10 8l-8 2l-6 6v4v4l-2 2l2 6l-2 6l-4 10l-6 8v4l2 4l4 4l2 6l16 30l48 22l2 2h2l2 2l32 12l58 24h4l14 -8l2 -8l2 -2l8 -2l4 -4l6 -4l12 -12l2 -4 l4 -2l10 -6l2 -2h2l2 2l2 2h4l2 -2h2h2h6l4 2h2h4l4 -2h2l4 2h4h6l2 2l2 2h2l2 -2h6h2l2 2l2 -2h2l6 -2q0 2 2 2l2 4l4 -2h2h4l2 -2l4 -2h4h2l6 6v-6l-86 -120l-60 -62v-100v-2zM692 362l-202 114l-4 2l-2 6v2l-2 8v2l-2 6l-8 10v2l-4 4v4l-4 4v2l10 12l4 -2l6 2l6 2l6 2 l8 2h6l6 2l4 2l8 2h6l6 -2h6l26 -22l2 2h2l14 8h4l8 4v8l20 16l-14 12h-2v2h-2h-2v6h-2v2v2h-2v4h2h2h2v2h2h2h4v2l2 -2v2h2v2l4 -2v2h4h2v-2v-4l4 -8h6v-2h2v2h2v2v2h2v2v2h2v2v4v4h2h2v2v4h2v2h2h2h2v-2h2v2v2v2h2v2v4h2h2v-2h2l2 -2h-2v-2h2l10 -8h2h2h2v-2v-2h2v-2h2v-4 v-2h-2v-2h-2h-2v2h-2h-4h-2v-2v-2h2h2v-2v-2h2v-2h2v-2v-2h4v2h2v2h2h2v2h2h2v-2h2v2h2h2v2h2v2h2h2v2v-4h2v-2h2v-2h2v-2h2v-2h2v-2v-2h2v-2h2v-2v-4h2v-4h-2v-2h-2v-2h-2v-2h2v-4v-2h2v-2v-2v-2l2 2v-2h2h2h2h2v2h2h2v-2h2v-2v-2h2v-2v-2v-2v-2h2v-2v-2h2v-2v-2h2v-2v-2 v-6h2v-6v-6v-2h-2v-2l-10 -8v-2h-2v-2h-2v-2h-2v-2h-2v-2h-2v-2h-2v-2h-2v-2v-2h-2v-2h-2v-2h-2v-2h-2v-2h-2v-2h-2v-2h-2v-2h-2v-2h-2v-2h-2v-2h-2v-2h2v-4h2v-2h2v-2v-8h-2v-2v-2h-2v-2h-2v-2h2v-2v-4h2v-2h-2h-2v-6v-2h-2v-2h-2v-2v-2h2v-2h2v-4h2v-4h-2v-2h-2v-2h2v-16 h-2v-12h-2h-4v-2v-2zM662 966l-4 4l-6 4l-4 2l-4 2l-6 2l-12 2l-8 2h-4l-2 6l-2 4l-6 6l-6 6l-2 2v2v4l-2 6l-2 6l-2 4l-2 6v4v2v14v14l-4 4l-2 4v2l2 4l2 2l2 2l-2 4l-10 14l-2 4v2l-4 4l-6 2h-4h-4l-2 -2v-2l-2 -6l-2 -2v-4l-4 -2l-4 -2l-2 -2l-4 -2h-2l-8 4h-2l-2 2v6h-6 v10h-2v-2l-4 2l-2 2l-10 14v18l-2 4h-4v4l-4 2l-2 2h-2h-4l-2 -2l-2 6l-4 2l-2 2h-2l-2 8l-2 8l-2 12v4l-2 2l-4 4h-4h-4v4l-2 2v6v8l-4 4l-2 8l-4 4v6l2 2v4l-2 2v2h4l2 4l2 2l2 4v22h-2l-8 2v4l-4 2l-4 2h-2h-2l-4 -2h-2l-6 8l-2 2h-6l-2 -2l-2 2h2l-2 2h-2v2l2 2l2 -2h4 l2 2v6v4h-4h-4h-2l-2 -2h-4h-6v2h4l2 2l2 6l-2 2l-2 2l-4 4l-2 2l-2 2v2h4v6v2l-2 2l-2 2v2v2v2v4l-2 2l-2 2l-4 4l-2 2l60 62l252 2v-12l-2 -2v-6h2v-6l-2 -2v-2l-2 -6v-4v-10l2 -32l-4 -2l-2 -6l-4 -8l-2 -2l-2 -8v-6l2 -4v-2v-4l-2 -4v-4v-6l-2 -4v-24l2 -2l10 -6v-4 l-2 -4l2 -2h4l2 2v-2l-2 -6v-16l2 -4h6l6 -6l2 -6l2 -2l4 -2h4l4 -2l4 -2v-8v-8v-6v-6l-2 -2l-2 -4l2 -2l2 -2h4l6 -2h6l4 -2v-4v-2l4 -4h4l4 -2l2 -2l4 -4l2 -6l4 -6l2 -6v-4v-4v-6l6 -4l4 -4l4 -6v-6l2 -4l2 -8v-6h4h4l4 -2l4 -2l6 -6l4 -2h2h4v-4l-4 -2l-2 -4v-4h-2 l-4 -2l-4 -4h-4l-2 -4h-4l-2 -2v-6l-2 -6l2 -4l-4 -2l-2 -6l2 -4l-2 -4l2 -2v-2l-2 -4l-2 -4v-4v-8l2 -8l-4 -4l-2 -4v-2v-6l-4 -4h-4v-4l-2 -4l-2 -2l-2 -4h-2v10h-4v-4l-8 -2l-4 -6v-6v-2l2 -2h2l4 -4l4 -2l6 -2l2 -2l4 -2l4 -2l2 -4l-4 -2l-4 -4l-4 -2l4 -2l2 -2l2 -2h2 v-2h-2h-2v2h-4h-2v-6h2v-2v-2h-2v-2l2 -8h4v-20h2v-8l-2 -2l-2 -2l-2 -4l-6 -2l-2 4l-2 2h-4l-2 4l-20 24l-14 2l-6 16l-2 2l-4 6l-2 4l-6 8l-22 44l-2 2zM1162 1114h-6l-2 -8l6 -10l2 -6v-6l-2 -8l4 -12l2 -6v-4v-6l4 -2v-8l-2 -8l-36 -16l-42 -24l-4 -4h-4l-10 -28 l-56 -48h-4v12l-2 4l-8 6l-4 4l-4 -2l-4 -4h-12l-14 -2l-14 -2l-6 6v4l-4 6l-8 16l-6 10l-6 6l-4 2l-4 2l-4 4l-2 6l-14 10v6l-8 4l-2 8l-8 2l-10 2l-10 2l-6 6l-4 10v8l-6 12l-6 12l-4 14l-8 22h-8l-2 4v18v8l2 6v6l-4 4l2 6l-6 8h-24v4l-18 16l-2 6l-2 4l-4 12l-4 4l-4 2 v4v2l-4 4l-2 4l-6 2l-2 4l4 2l4 4l-2 6l-4 4v8l-4 6v10l2 10l2 6l2 6l4 2v6l-2 4l-2 6l-2 8l-4 6l-2 4l2 10l2 14l4 6v6l-2 6l-6 2l2 4l2 4v8l-4 2v4v2l4 4v6l-4 6h2h2h4h66h32l6 -4l10 -6l6 -2h4l2 -2h4l4 -4l6 -8l76 -46l6 -4l2 -4l46 -32l6 -4h4l4 -2l6 -8l12 -8h2h6h10 l12 -2h22h8l4 2v4l4 2l2 -2l2 -4l4 -2h4l8 -2l2 4l2 -2l2 -4l12 -4l10 -4h6l10 -6l4 2v4h4h4v-4l4 4h2h6l6 -2l10 -4l8 -4l8 2l6 2v-6v-10h-2l-4 -4l4 -22l-2 -16l4 -4l4 -4l-14 -10l-6 -4l-12 -4l-6 -6l-8 -4l-2 -4l-4 -22l-10 -18l-4 -2l-4 2h-6l2 -2v-8zM1280 812l-2 4 l-4 4l-2 4v8l-4 8l-4 4l-4 10l-2 8v4l-28 68l26 12v2l-4 4l-18 18l-12 6l-8 14l-12 14l-6 4l-12 14v8l-4 4l-4 6v6l-6 2l2 4l-2 8l-4 6l-2 8v4l2 4v12l-6 8v8h4l2 8h10l14 24l2 10l2 12l8 6l2 4l14 4l6 4l8 6l6 4v8l-4 6h-2l2 12v6l-2 14l2 2l2 8v4l2 4h6h18v-6l2 -4l6 2h2 l2 6l2 6l16 16l6 -10l2 -4l2 -4v-8v-10v-6l6 -4l10 -8l6 -2l14 -8l32 -38l10 -2l12 -4l12 -6l4 -20l2 -6l2 -6v-6l2 -8l4 -8l2 -6l2 -6l6 -10l8 -8l4 -6h4l8 -2l4 -2l2 -4l4 -4l6 -4l8 -4l6 -2l6 -4l4 -4l2 -2h2l2 2v2l2 4v-6v-266l-4 -2l-2 -2v-2l-4 -4l-20 -12l-4 -2 l-22 -18h-8l-2 2l-4 -2l-2 -2h-22l-4 -4l-14 4l-10 10l-4 4l-4 4l-10 6l-34 16l-20 8l-20 26l-4 2zM1500 1052l-2 -4l-2 -4l-2 2l-2 4l-4 2l-2 2h-4l-8 2l-4 4l-4 2l-4 2l-2 4l-4 2l-4 4h-4l-8 4l-4 6l-6 8l-2 4l-4 6l-2 6l-4 12l-2 8l-2 10l-2 14l-6 10l-2 4l-28 12l-6 2 l-32 38l-6 2l-10 8l-8 2l-6 6v4v4l-2 2l2 6l-2 6l-4 10l-6 8v4l2 4l4 4l2 6l16 30l48 22l2 2h2l2 2l32 12l58 24h4l14 -8l2 -8l2 -2l8 -2l4 -4l6 -4l12 -12l2 -4l4 -2l10 -6l2 -2h2l2 2l2 2h4l2 -2h2h2h6l4 2h2h4l4 -2h2l4 2h4h6l2 2l2 2h2l2 -2h6h2l2 2l2 -2h2l6 -2 q0 2 2 2l2 4l4 -2h2h4l2 -2l4 -2h4h2l6 6v-6l-86 -120l-60 -62v-100v-2z" />
<glyph unicode="[" vert-adv-y="180" d="M1552 926q-6 -26 -24 -24l-186 34q-18 2 -12 28l4 30q4 26 24 22l184 -32q18 -4 14 -28zM1510 1302q-12 24 -30 16l-168 -84q-16 -10 -4 -32l14 -28q10 -22 28 -14l168 84q16 8 4 32zM1286 1542q-22 12 -32 -4l-92 -164q-8 -16 14 -30l26 -14q24 -14 32 4l92 162 q10 18 -14 30zM1324 1058q0 130 -92 223t-222 93v-118q82 0 139 -58t57 -140q0 -62 -34 -112t-90 -72h-54q-14 0 -18 -14v-4q-2 -2 -2 -4v-128q0 -22 20 -22h70q18 0 18 22v36q92 34 150 115t58 183zM452 926q4 -26 22 -24l186 34q18 2 14 28l-6 30q-4 26 -24 22l-184 -32 q-18 -4 -14 -28zM480 1276q-12 -24 4 -32l168 -84q18 -8 30 14l12 28q12 22 -4 32l-168 84q-18 8 -30 -16zM690 1526q-24 -12 -14 -30l92 -162q10 -18 32 -4l26 14q24 14 14 30l-92 164q-10 16 -32 4zM1196 680h-194v-118h194q16 0 27 11t11 27v44q0 14 -11 25t-27 11z M808 680h192v-118h-192q-16 0 -28 11t-12 27v44q0 14 12 25t28 11zM1180 540h-178v-118h178q14 0 25 11t11 27v44q0 14 -11 25t-25 11zM822 540h178v-118h-178q-14 0 -25 11t-11 27v44q0 14 11 25t25 11zM1164 400h-162v-118h162q14 0 23 11t9 27v42q0 16 -9 27t-23 11z M838 400h162v-118h-162q-14 0 -23 11t-9 27v42q0 16 9 27t23 11zM1002 252v-198q40 0 69 29t29 70t-29 70t-69 29zM1000 252v-198q-40 0 -69 29t-29 70t29 70t69 29zM1148 260h-146v-106h146q14 0 22 10t8 24v38q0 14 -8 24t-22 10zM854 260h146v-106h-146q-12 0 -21 10 t-9 24v38q0 14 9 24t21 10zM886 760v-36q0 -22 20 -22h68q20 0 20 22v128v4v4h-2q-4 14 -18 14h-54q-56 22 -90 72t-34 112q0 82 58 140t140 58v118q-132 0 -224 -93t-92 -223q0 -102 58 -183t150 -115z" />
<glyph unicode="\" vert-adv-y="180" d="M1552 926q-6 -26 -24 -24l-186 34q-18 2 -12 28l4 30q4 26 24 22l184 -32q18 -4 14 -28zM1510 1302q-12 24 -30 16l-168 -84q-16 -10 -4 -32l14 -28q10 -22 28 -14l168 84q16 8 4 32zM1286 1542q-22 12 -32 -4l-92 -164q-8 -16 14 -30l26 -14q24 -14 32 4l92 162 q10 18 -14 30zM1324 1058q0 130 -92 223t-222 93v-118q82 0 139 -58t57 -140q0 -62 -34 -112t-90 -72h-54q-14 0 -18 -14v-4q-2 -2 -2 -4v-128q0 -22 20 -22h70q18 0 18 22v36q92 34 150 115t58 183zM452 926q4 -26 22 -24l186 34q18 2 14 28l-6 30q-4 26 -24 22l-184 -32 q-18 -4 -14 -28zM480 1276q-12 -24 4 -32l168 -84q18 -8 30 14l12 28q12 22 -4 32l-168 84q-18 8 -30 -16zM690 1526q-24 -12 -14 -30l92 -162q10 -18 32 -4l26 14q24 14 14 30l-92 164q-10 16 -32 4zM1196 680h-194v-118h194q16 0 27 11t11 27v44q0 14 -11 25t-27 11z M808 680h192v-118h-192q-16 0 -28 11t-12 27v44q0 14 12 25t28 11zM1180 540h-178v-118h178q14 0 25 11t11 27v44q0 14 -11 25t-25 11zM822 540h178v-118h-178q-14 0 -25 11t-11 27v44q0 14 11 25t25 11zM1164 400h-162v-118h162q14 0 23 11t9 27v42q0 16 -9 27t-23 11z M838 400h162v-118h-162q-14 0 -23 11t-9 27v42q0 16 9 27t23 11zM1002 252v-198q40 0 69 29t29 70t-29 70t-69 29zM1000 252v-198q-40 0 -69 29t-29 70t29 70t69 29zM1148 260h-146v-106h146q14 0 22 10t8 24v38q0 14 -8 24t-22 10zM854 260h146v-106h-146q-12 0 -21 10 t-9 24v38q0 14 9 24t21 10zM886 760v-36q0 -22 20 -22h68q20 0 20 22v128v4v4h-2q-4 14 -18 14h-54q-56 22 -90 72t-34 112q0 82 58 140t140 58v118q-132 0 -224 -93t-92 -223q0 -102 58 -183t150 -115z" />
<glyph unicode="]" vert-adv-y="180" d="M1552 926q-6 -26 -24 -24l-186 34q-18 2 -12 28l4 30q4 26 24 22l184 -32q18 -4 14 -28zM1510 1302q-12 24 -30 16l-168 -84q-16 -10 -4 -32l14 -28q10 -22 28 -14l168 84q16 8 4 32zM1286 1542q-22 12 -32 -4l-92 -164q-8 -16 14 -30l26 -14q24 -14 32 4l92 162 q10 18 -14 30zM1324 1058q0 130 -92 223t-222 93v-118q82 0 139 -58t57 -140q0 -62 -34 -112t-90 -72h-54q-14 0 -18 -14v-4q-2 -2 -2 -4v-128q0 -22 20 -22h70q18 0 18 22v36q92 34 150 115t58 183zM452 926q4 -26 22 -24l186 34q18 2 14 28l-6 30q-4 26 -24 22l-184 -32 q-18 -4 -14 -28zM480 1276q-12 -24 4 -32l168 -84q18 -8 30 14l12 28q12 22 -4 32l-168 84q-18 8 -30 -16zM690 1526q-24 -12 -14 -30l92 -162q10 -18 32 -4l26 14q24 14 14 30l-92 164q-10 16 -32 4zM1196 680h-194v-118h194q16 0 27 11t11 27v44q0 14 -11 25t-27 11z M808 680h192v-118h-192q-16 0 -28 11t-12 27v44q0 14 12 25t28 11zM1180 540h-178v-118h178q14 0 25 11t11 27v44q0 14 -11 25t-25 11zM822 540h178v-118h-178q-14 0 -25 11t-11 27v44q0 14 11 25t25 11zM1164 400h-162v-118h162q14 0 23 11t9 27v42q0 16 -9 27t-23 11z M838 400h162v-118h-162q-14 0 -23 11t-9 27v42q0 16 9 27t23 11zM1002 252v-198q40 0 69 29t29 70t-29 70t-69 29zM1000 252v-198q-40 0 -69 29t-29 70t29 70t69 29zM1148 260h-146v-106h146q14 0 22 10t8 24v38q0 14 -8 24t-22 10zM854 260h146v-106h-146q-12 0 -21 10 t-9 24v38q0 14 9 24t21 10zM886 760v-36q0 -22 20 -22h68q20 0 20 22v128v4v4h-2q-4 14 -18 14h-54q-56 22 -90 72t-34 112q0 82 58 140t140 58v118q-132 0 -224 -93t-92 -223q0 -102 58 -183t150 -115z" />
<glyph unicode="^" vert-adv-y="180" d="M1552 926q-6 -26 -24 -24l-186 34q-18 2 -12 28l4 30q4 26 24 22l184 -32q18 -4 14 -28zM1510 1302q-12 24 -30 16l-168 -84q-16 -10 -4 -32l14 -28q10 -22 28 -14l168 84q16 8 4 32zM1286 1542q-22 12 -32 -4l-92 -164q-8 -16 14 -30l26 -14q24 -14 32 4l92 162 q10 18 -14 30zM1324 1058q0 130 -92 223t-222 93v-118q82 0 139 -58t57 -140q0 -62 -34 -112t-90 -72h-54q-14 0 -18 -14v-4q-2 -2 -2 -4v-128q0 -22 20 -22h70q18 0 18 22v36q92 34 150 115t58 183zM452 926q4 -26 22 -24l186 34q18 2 14 28l-6 30q-4 26 -24 22l-184 -32 q-18 -4 -14 -28zM480 1276q-12 -24 4 -32l168 -84q18 -8 30 14l12 28q12 22 -4 32l-168 84q-18 8 -30 -16zM690 1526q-24 -12 -14 -30l92 -162q10 -18 32 -4l26 14q24 14 14 30l-92 164q-10 16 -32 4zM1196 680h-194v-118h194q16 0 27 11t11 27v44q0 14 -11 25t-27 11z M808 680h192v-118h-192q-16 0 -28 11t-12 27v44q0 14 12 25t28 11zM1180 540h-178v-118h178q14 0 25 11t11 27v44q0 14 -11 25t-25 11zM822 540h178v-118h-178q-14 0 -25 11t-11 27v44q0 14 11 25t25 11zM1164 400h-162v-118h162q14 0 23 11t9 27v42q0 16 -9 27t-23 11z M838 400h162v-118h-162q-14 0 -23 11t-9 27v42q0 16 9 27t23 11zM1002 252v-198q40 0 69 29t29 70t-29 70t-69 29zM1000 252v-198q-40 0 -69 29t-29 70t29 70t69 29zM1148 260h-146v-106h146q14 0 22 10t8 24v38q0 14 -8 24t-22 10zM854 260h146v-106h-146q-12 0 -21 10 t-9 24v38q0 14 9 24t21 10zM886 760v-36q0 -22 20 -22h68q20 0 20 22v128v4v4h-2q-4 14 -18 14h-54q-56 22 -90 72t-34 112q0 82 58 140t140 58v118q-132 0 -224 -93t-92 -223q0 -102 58 -183t150 -115z" />
<glyph unicode="_" vert-adv-y="180" d="M1552 926q-6 -26 -24 -24l-186 34q-18 2 -12 28l4 30q4 26 24 22l184 -32q18 -4 14 -28zM1510 1302q-12 24 -30 16l-168 -84q-16 -10 -4 -32l14 -28q10 -22 28 -14l168 84q16 8 4 32zM1286 1542q-22 12 -32 -4l-92 -164q-8 -16 14 -30l26 -14q24 -14 32 4l92 162 q10 18 -14 30zM1324 1058q0 130 -92 223t-222 93v-118q82 0 139 -58t57 -140q0 -62 -34 -112t-90 -72h-54q-14 0 -18 -14v-4q-2 -2 -2 -4v-128q0 -22 20 -22h70q18 0 18 22v36q92 34 150 115t58 183zM452 926q4 -26 22 -24l186 34q18 2 14 28l-6 30q-4 26 -24 22l-184 -32 q-18 -4 -14 -28zM480 1276q-12 -24 4 -32l168 -84q18 -8 30 14l12 28q12 22 -4 32l-168 84q-18 8 -30 -16zM690 1526q-24 -12 -14 -30l92 -162q10 -18 32 -4l26 14q24 14 14 30l-92 164q-10 16 -32 4zM1196 680h-194v-118h194q16 0 27 11t11 27v44q0 14 -11 25t-27 11z M808 680h192v-118h-192q-16 0 -28 11t-12 27v44q0 14 12 25t28 11zM1180 540h-178v-118h178q14 0 25 11t11 27v44q0 14 -11 25t-25 11zM822 540h178v-118h-178q-14 0 -25 11t-11 27v44q0 14 11 25t25 11zM1164 400h-162v-118h162q14 0 23 11t9 27v42q0 16 -9 27t-23 11z M838 400h162v-118h-162q-14 0 -23 11t-9 27v42q0 16 9 27t23 11zM1002 252v-198q40 0 69 29t29 70t-29 70t-69 29zM1000 252v-198q-40 0 -69 29t-29 70t29 70t69 29zM1148 260h-146v-106h146q14 0 22 10t8 24v38q0 14 -8 24t-22 10zM854 260h146v-106h-146q-12 0 -21 10 t-9 24v38q0 14 9 24t21 10zM886 760v-36q0 -22 20 -22h68q20 0 20 22v128v4v4h-2q-4 14 -18 14h-54q-56 22 -90 72t-34 112q0 82 58 140t140 58v118q-132 0 -224 -93t-92 -223q0 -102 58 -183t150 -115z" />
<glyph unicode="`" vert-adv-y="180" d="M1552 926q-6 -26 -24 -24l-186 34q-18 2 -12 28l4 30q4 26 24 22l184 -32q18 -4 14 -28zM1510 1302q-12 24 -30 16l-168 -84q-16 -10 -4 -32l14 -28q10 -22 28 -14l168 84q16 8 4 32zM1286 1542q-22 12 -32 -4l-92 -164q-8 -16 14 -30l26 -14q24 -14 32 4l92 162 q10 18 -14 30zM1324 1058q0 130 -92 223t-222 93v-118q82 0 139 -58t57 -140q0 -62 -34 -112t-90 -72h-54q-14 0 -18 -14v-4q-2 -2 -2 -4v-128q0 -22 20 -22h70q18 0 18 22v36q92 34 150 115t58 183zM452 926q4 -26 22 -24l186 34q18 2 14 28l-6 30q-4 26 -24 22l-184 -32 q-18 -4 -14 -28zM480 1276q-12 -24 4 -32l168 -84q18 -8 30 14l12 28q12 22 -4 32l-168 84q-18 8 -30 -16zM690 1526q-24 -12 -14 -30l92 -162q10 -18 32 -4l26 14q24 14 14 30l-92 164q-10 16 -32 4zM1196 680h-194v-118h194q16 0 27 11t11 27v44q0 14 -11 25t-27 11z M808 680h192v-118h-192q-16 0 -28 11t-12 27v44q0 14 12 25t28 11zM1180 540h-178v-118h178q14 0 25 11t11 27v44q0 14 -11 25t-25 11zM822 540h178v-118h-178q-14 0 -25 11t-11 27v44q0 14 11 25t25 11zM1164 400h-162v-118h162q14 0 23 11t9 27v42q0 16 -9 27t-23 11z M838 400h162v-118h-162q-14 0 -23 11t-9 27v42q0 16 9 27t23 11zM1002 252v-198q40 0 69 29t29 70t-29 70t-69 29zM1000 252v-198q-40 0 -69 29t-29 70t29 70t69 29zM1148 260h-146v-106h146q14 0 22 10t8 24v38q0 14 -8 24t-22 10zM854 260h146v-106h-146q-12 0 -21 10 t-9 24v38q0 14 9 24t21 10zM886 760v-36q0 -22 20 -22h68q20 0 20 22v128v4v4h-2q-4 14 -18 14h-54q-56 22 -90 72t-34 112q0 82 58 140t140 58v118q-132 0 -224 -93t-92 -223q0 -102 58 -183t150 -115z" />
<glyph unicode="a" vert-adv-y="180" d="M1498 1158v100l60 62l86 120v6l-6 -6h-2h-4l-4 2l-2 2h-4h-2l-4 2l-2 -4q-2 0 -2 -2l-6 2h-2l-2 2l-2 -2h-2h-6l-2 2h-2l-2 -2l-2 -2h-6h-4l-4 -2h-2l-4 2h-4h-2l-4 -2h-6h-2h-2l-2 2h-4l-2 -2l-2 -2h-2l-2 2l-10 6l-4 2l-2 4l-12 12l-6 4l-4 4l-8 2l-2 2l-2 8l-14 8h-4 l-58 -24l-32 -12l-2 -2h-2l-2 -2l-48 -22l-16 -30l-2 -6l-4 -4l-2 -4v-4l6 -8l4 -10l2 -6l-2 -6l2 -2v-4v-4l6 -6l8 -2l10 -8l6 -2l32 -38l6 -2l28 -12l2 -4l6 -10l2 -14l2 -10l2 -8l4 -12l2 -6l4 -6l2 -4l6 -8l4 -6l8 -4h4l4 -4l4 -2l2 -4l4 -2l4 -2l4 -4l8 -2h4l2 -2l4 -2 l2 -4l2 -2l2 4l2 4v2z" />
<glyph unicode="b" vert-adv-y="180" d="M1278 916l-2 4l-4 4l-2 4v8l-4 8l-4 4l-4 10l-2 8v4l-28 68l26 12v2l-4 4l-18 18l-12 6l-8 14l-12 14l-6 4l-12 14v8l-4 4l-4 6v6l-6 2l2 4l-2 8l-4 6l-2 8v4l2 4v12l-6 8v8h4l2 8h10l14 24l2 10l2 12l8 6l2 4l14 4l6 4l8 6l6 4v8l-4 6h-2l2 12v6l-2 14l2 2l2 8v4l2 4h6 h18v-6l2 -4l6 2h2l2 6l2 6l16 16l6 -10l2 -4l2 -4v-8v-10v-6l6 -4l10 -8l6 -2l14 -8l32 -38l10 -2l12 -4l12 -6l4 -20l2 -6l2 -6v-6l2 -8l4 -8l2 -6l2 -6l6 -10l8 -8l4 -6h4l8 -2l4 -2l2 -4l4 -4l6 -4l8 -4l6 -2l6 -4l4 -4l2 -2h2l2 2v2l2 4v-6v-266l-4 -2l-2 -2v-2l-4 -4 l-20 -12l-4 -2l-22 -18h-8l-2 2l-4 -2l-2 -2h-22l-4 -4l-14 4l-10 10l-4 4l-4 4l-10 6l-34 16l-20 8l-20 26l-4 2z" />
<glyph unicode="c" vert-adv-y="180" d="M1160 1226l-2 2h6l4 -2l4 2l10 18l4 22l2 4l8 4l6 6l12 4l6 4l14 10l-4 4l-4 4l2 16l-4 22l4 4h2v10v6l-6 -2l-8 -2l-8 4l-10 4l-6 2h-6h-2l-4 -4v4h-4h-4v-4l-4 -2l-10 6h-6l-10 4l-12 4l-2 4l-2 2l-2 -4l-8 2h-4l-4 2l-2 4l-2 2l-4 -2v-4l-4 -2h-8h-22l-12 2h-10h-6h-2 l-12 8l-6 8l-4 2h-4l-6 4l-46 32l-2 4l-6 4l-76 46l-6 8l-4 4h-4l-2 2h-4l-6 2l-10 6l-6 4h-32h-66h-4h-2h-2l4 -6v-6l-4 -4v-2v-4l4 -2v-8l-2 -4l-2 -4l6 -2l2 -6v-6l-4 -6l-2 -14l-2 -10l2 -4l4 -6l2 -8l2 -6l2 -4v-6l-4 -2l-2 -6l-2 -6l-2 -10v-10l4 -6v-8l4 -4l2 -6 l-4 -4l-4 -2l2 -4l6 -2l2 -4l4 -4v-2v-4l4 -2l4 -4l4 -12l2 -4l2 -6l18 -16v-4h24l6 -8l-2 -6l4 -4v-6l-2 -6v-8v-18l2 -4h8l8 -22l4 -14l6 -12l6 -12v-8l4 -10l6 -6l10 -2l10 -2l8 -2l2 -8l8 -4v-6l14 -10l2 -6l4 -4l4 -2l4 -2l6 -6l6 -10l8 -16l4 -6v-4l6 -6l14 2l14 2h12 l4 4l4 2l4 -4l8 -6l2 -4v-12h4l56 48l10 28h4l4 4l42 24l36 16l2 8v8l-4 2v6v4l-2 6l-4 12l2 8v6l-2 6l-6 10l2 8h6v8z" />
<glyph unicode="d" vert-adv-y="180" d="M660 1070l-4 4l-6 4l-4 2l-4 2l-6 2l-12 2l-8 2h-4l-2 6l-2 4l-6 6l-6 6l-2 2v2v4l-2 6l-2 6l-2 4l-2 6v4v2v14v14l-4 4l-2 4v2l2 4l2 2l2 2l-2 4l-10 14l-2 4v2l-4 4l-6 2h-4h-4l-2 -2v-2l-2 -6l-2 -2v-4l-4 -2l-4 -2l-2 -2l-4 -2h-2l-8 4h-2l-2 2v6h-6v10h-2v-2l-4 2 l-2 2l-10 14v18l-2 4h-4v4l-4 2l-2 2h-2h-4l-2 -2l-2 6l-4 2l-2 2h-2l-2 8l-2 8l-2 12v4l-2 2l-4 4h-4h-4v4l-2 2v6v8l-4 4l-2 8l-4 4v6l2 2v4l-2 2v2h4l2 4l2 2l2 4v22h-2l-8 2v4l-4 2l-4 2h-2h-2l-4 -2h-2l-6 8l-2 2h-6l-2 -2l-2 2h2l-2 2h-2v2l2 2l2 -2h4l2 2v6v4h-4h-4 h-2l-2 -2h-4h-6v2h4l2 2l2 6l-2 2l-2 2l-4 4l-2 2l-2 2v2h4v6v2l-2 2l-2 2v2v2v2v4l-2 2l-2 2l-4 4l-2 2l60 62l252 2v-12l-2 -2v-6h2v-6l-2 -2v-2l-2 -6v-4v-10l2 -32l-4 -2l-2 -6l-4 -8l-2 -2l-2 -8v-6l2 -4v-2v-4l-2 -4v-4v-6l-2 -4v-24l2 -2l10 -6v-4l-2 -4l2 -2h4l2 2 v-2l-2 -6v-16l2 -4h6l6 -6l2 -6l2 -2l4 -2h4l4 -2l4 -2v-8v-8v-6v-6l-2 -2l-2 -4l2 -2l2 -2h4l6 -2h6l4 -2v-4v-2l4 -4h4l4 -2l2 -2l4 -4l2 -6l4 -6l2 -6v-4v-4v-6l6 -4l4 -4l4 -6v-6l2 -4l2 -8v-6h4h4l4 -2l4 -2l6 -6l4 -2h2h4v-4l-4 -2l-2 -4v-4h-2l-4 -2l-4 -4h-4l-2 -4 h-4l-2 -2v-6l-2 -6l2 -4l-4 -2l-2 -6l2 -4l-2 -4l2 -2v-2l-2 -4l-2 -4v-4v-8l2 -8l-4 -4l-2 -4v-2v-6l-4 -4h-4v-4l-2 -4l-2 -2l-2 -4h-2v10h-4v-4l-8 -2l-4 -6v-6v-2l2 -2h2l4 -4l4 -2l6 -2l2 -2l4 -2l4 -2l2 -4l-4 -2l-4 -4l-4 -2l4 -2l2 -2l2 -2h2v-2h-2h-2v2h-4h-2v-6h2 v-2v-2h-2v-2l2 -8h4v-20h2v-8l-2 -2l-2 -2l-2 -4l-6 -2l-2 4l-2 2h-4l-2 4l-20 24l-14 2l-6 16l-2 2l-4 6l-2 4l-6 8l-22 44l-2 2z" />
<glyph unicode="e" vert-adv-y="180" d="M690 468v2h4h2v12h2v16h-2v0v2v0h2v2h2v4h-2v4h-2v0v2h-2v2v2h2v0v2h2v2v6h2h2v2h-2v4v2h-2v2h2v0v2h2v2v2h2v0v8v2h-2v2v0h-2v4h-2v2h2v0v2h2v0v2h2v0v2v0h2v2v0h2v2v0h2v2v0h2v2v0h2v2v0h2v2v0h2v2v0h2v2v0v2v0h2v2v0h2v0v2h2v0v2h2v0v2h2v0v2h2v0v2h2v0v2l10 8v0v2h2 v2v6v6h-2v6v2v0v2h-2v2v0v2h-2v2v2h-2v2v2v2v2h-2v2v0v2h-2v0v2h-2h-2v-2h-2h-2v0h-2h-2v0v2l-2 -2v2v2v2v0h-2v2v4h-2v2h2v2h2v2v0h2v0v4h-2v4v0v2h-2v0v2h-2v2v0v2h-2v0v2h-2v2h-2v2h-2v2h-2v4v-2h-2v0h-2v-2v0h-2v-2h-2v0h-2v-2h-2v2v0h-2h-2v-2h-2v0h-2v-2v0h-2v-2h-4v2 v2h-2v0v2h-2v2v0v2h-2h-2v0v2v0v2h2h4h2v-2h2v0h2v2h2v0v2v4h-2v2v0h-2v2v0v2h-2h-2h-2l-10 8h-2v2h2l-2 2h-2v0v2h-2h-2v-4v0v-2h-2v-2v0v-2v0v-2h-2v2h-2h-2h-2v-2h-2v-4v-2h-2v0h-2v-4v-4v-2h-2v-2v0v-2h-2v0v-2v0v-2h-2v-2h-2v2h-6l-4 8v4v2h-2h-4v-2l-4 2v-2h-2v-2 l-2 2v-2h-4h-2h-2v-2h-2v0h-2h-2v-4h2v-2v-2h2v-6v0h2h2v-2h2v0l14 -12l-20 -16v-8l-8 -4h-4l-14 -8h-2l-2 -2l-26 22h-6l-6 2h-6l-8 -2l-4 -2l-6 -2h-6l-8 -2l-6 -2l-6 -2l-6 -2l-4 2l-10 -12v-2l4 -4v-4l4 -4v-2l8 -10l2 -6v-2l2 -8v-2l2 -6l4 -2l202 -114v2z" />
<glyph unicode="f" vert-adv-y="180" d="M968 294h20v12l4 2v8v2l2 2v8v2l2 2v4l4 4v4v2l4 2v4h-2v8h-4v4l-2 2l-46 58v4v2l2 2h8l2 2v4v2v2l2 2l2 2v2h-12l-4 2l-6 4h-2l-4 2l-2 2l-2 2l-4 2h-4l-2 2l-10 8h-6l-10 2v2l-2 2l-2 4l-2 2h-2h-6l-2 2l-2 2l-2 4l-2 2v20l-4 2l-24 32l2 10v2l-2 2l-4 -2v-2h-2l-2 -2 h-2l-2 4l-2 8l-2 2h-2l-16 4h-4h-2l-2 2l-4 4l-4 4l-2 2l-2 2h-2l-6 4h-2h-8l-4 2l-2 2v2v2v2h2l2 4l2 4v2v2l-26 12v-2v-16l-2 -4l-44 -46l4 -10v-2v-4v-2l-4 -8l2 -8h-2l-4 -12l2 -4l2 -2v-8l-2 -2v-2v-2v-14h-2v-6l-4 -6v-4l270 -154z" />
<glyph unicode="g" vert-adv-y="180" d="M764 950l6 10v8l-2 18l-4 8l-4 2l2 2l6 2h2v8v4h-4v4l2 2l4 4v6l-4 4h-2l-6 4h-4l-6 2l-4 4l-2 4v2v4h4l2 2q0 -2 2 -2l4 -2h2l2 4l4 4l2 4l6 2v6l2 2l2 4l6 10v16l-2 6l2 2l2 4v10v6l2 2h2v8v4l2 4l2 4l6 2l4 2l6 2v4l2 4v4h4v6l-2 4h-4l-4 2l-2 2l-4 4h-4l4 4l4 2l2 4 l4 2v6h6l6 -14l4 -10l4 -12l2 -6l6 -8l2 -6v-14l4 -6l2 -4l4 -4l6 -2l6 -2h16v-6v-2l2 -2l2 -2h6v-4h2l2 -4l10 -8l2 -4v-2l6 -6l8 -6l6 -6l8 -14l6 -10v-6l4 -4l6 -8h4l6 4l36 2l2 4h2l2 -2l4 -2l4 -4l2 -4v-10l-2 -2v-14l10 -12l2 -4l6 -46l-6 -2l-4 -2l-10 -8l-2 4 l-12 -6l-2 -4h-12l-2 -4h-4h-2l-6 -4l-6 -2l-6 -4l-2 -2l-14 -2v4l-4 -2l-2 -2h-8h-2l-2 4l-2 6l-4 8l-6 6l-2 2l-2 2h-4l-2 -2h-2h-4l-4 2l-2 2l-2 4h-4l-10 -2q-8 -2 -10 -2l-10 -4h-4l-2 2l-2 2l-2 8l-6 6l-2 4h-6l-4 -2l-4 -2l-2 -4h-2l-4 -2h-4h-4h-8h-6h-6v4l-4 2 l-2 2l-4 4z" />
<glyph unicode="h" vert-adv-y="180" d="M1248 68v-4h4v8v6l4 4l4 6h4l2 10l2 4l4 6v4v4l2 2l2 4l6 12l-4 4l-6 4l-2 6v2l2 2v2l-4 2l-2 2l-2 6v2l-4 4l-4 6l-10 8l-2 2h-4h-2l-2 2l-2 4v2h2v2l2 4l-4 -2l-2 2l-2 6v2v4l-2 4v6l-2 2l-20 2h-4l-6 -2h-4v-8l-2 -12l-2 -2h-4l-10 4l-4 -4l14 -8v-6l-10 -30l-76 -30 v-2l114 -78l10 10l-2 2v4h6l6 -2v-2v-6h12l-4 10v2l4 2v-4h2v6l2 4v-2v-4z" />
<glyph unicode="i" vert-adv-y="180" d="M1172 1138l-4 -8l-48 -22l-8 -2l-20 -14h-4v-6h-4l-10 -26l-60 -52h-4v-10l12 -14l6 -54l-10 -2l-12 -10l-6 2l-6 -2v-6h-12l-6 -4h-8l-12 -10l-6 -2l-8 -2h-6l-2 2l-4 2v-4h-10h-2l-4 4q-2 4 -2 6l-6 10l-4 6l-6 2l-2 -2h-4h-6l-4 4l-4 4l-8 -2l-6 -2l-4 -2h-10h-2v-6 l-2 -8l-2 -4l-4 -6v-2l4 -2h4l10 -2l14 -2l16 -2h16q4 -2 6 -2h4l4 -8v-6l4 -6l2 -6v-4l12 -6l8 -2v6l4 4l2 2h2l4 4l-2 6l-2 10v2l6 4l8 2l10 2l14 6l8 6l12 6h6l6 2l8 2l4 -2v-6l14 -40l8 -16h2l2 -6v-4l6 -4l6 -2l4 -4l-2 -4l2 -2v-4l2 -4l6 -4v-2l4 -4l2 -4v-6v-4l2 -2 l6 4h4l4 4h8l4 -2l4 -2l12 -4l6 2l-2 4l-4 8l4 14q4 4 4 6l-2 8q-2 6 -4 8l-2 10l-2 18v10l-2 8l6 2l8 6l6 6l6 4l10 2h6h6l4 4l2 4l6 2l14 6l6 6l4 10l6 10l8 4l4 6l12 2l6 2l2 2v4v4l-28 70v2l24 10l-20 20l-6 4h-4l-14 24l-4 4l-2 4h-2l-4 4l-6 6l-4 6l-2 6z" />
<glyph unicode="j" vert-adv-y="180" d="M1184 206l2 14l6 8l4 24l14 38l2 16h-16l-4 -2l-4 2l-4 2h-2l-2 2h-4l-2 -4h-4h-10l-2 -2l-4 -2h-6l-6 2l-6 2h-8l-6 4h-6l-4 4h-2h-6h-12h-4l-6 6l-6 4l-4 4l-4 6l-22 22l-2 2h-4l-30 -10h-2l-2 -6l-2 -4l-4 -6v-4l-2 -6l-2 -10l-2 -4v-4l-2 -10v-6h-24l4 -20l-2 -2 l-6 -6l-8 -6l-2 -4l-4 -4v-2h6v-4l-2 -2v-2l2 -2l6 2h4l4 -2l6 -4l12 -24l106 -74l76 28l10 26v6l-16 8l6 10z" />
<glyph unicode="k" vert-adv-y="180" d="M502 1008h16v-2h2l8 -2h4h4v-4l6 -4v-2h2h4l6 2h6h6l6 -4l6 -2l8 -4l4 2l8 4l6 4l6 6l4 4l6 4h2h4h6l4 2l2 2l2 2v4l2 6l2 8l4 6l2 6l4 6l2 4v4l2 6l-6 6l-2 2l-8 4l-6 2l-12 2h-8h-2q-2 4 -4 4l-2 6l-2 4l-4 4l-6 4l-6 6l-2 4l2 4v4l-2 4l-4 6l-2 6v6l-2 4v8l2 20l-4 4 l-2 2l2 4v2l2 4v4h-2l-4 8l-2 4l-2 4v2l-4 2l-2 2l-4 2l-2 -2l-2 2l-2 -4v-6v-4l-4 -2l-2 -4l-4 -4h-4h-4h-6h-4h-4l-2 -2l-2 -2v-4v-4l4 -12v-4v-8l2 -6v-6v-6l4 -8l2 -8v-2v-2l2 -2l2 -2l2 -2v-2l-2 -24l-2 -4v-6l-2 -6l-2 -8l-2 -2l-4 -6l-2 -4h-4q-2 -2 -4 -2v-2l-2 -2 l-2 -4l-2 -4l2 -6h-2h-8l-4 -4l2 -4l2 -2v-4l2 -2l2 -2v-2l2 -4z" />
<glyph unicode="l" vert-adv-y="180" d="M662 1066v-12l-4 -2v-4l-4 -2v-2l-2 -4l-4 -8l-2 -6v-4l-2 -4v-10v-2l2 -8l-2 -4l4 -12l-2 -6l-2 -2v-4l-4 -4l-2 -2v-4l-2 -2v-10v-2l-2 -2v-4l4 -2v-4v-2v-6v-4l-2 -2v-2l2 -4v-2l-2 -2l-2 -2v-2v-4l-2 -2v-2l2 -2v-2v-2v-6l2 -6l4 -6l2 -4v-4v-2l4 -2h2v-2l2 -2v-4v-4 h-2l2 -14l-4 -2v-4l-2 -2l-2 -2l-10 -2h-2l-2 -4v-2l-2 -4v-4l-4 -2h-2l-2 -4l2 -4l6 -2l4 -2l4 -4l6 -4l2 -4l4 -2l2 -4v-4h4q2 0 3 1t1 3v8l2 2h4l2 4l4 4h4l4 -4v-2l6 8v4l-4 6v6l2 2l4 2v-4v-2l4 -2h6v-2l2 -2l2 -2h6l2 -4l4 2v6v4h2v4l2 4l2 8l2 4h2l2 2l2 4v4l4 4h2 l2 2l-2 4l2 14l-2 2l-2 6l2 2l8 16l-2 4l-2 10h2l12 2l20 30l2 2l-10 8h-6h-2l-4 4l-6 2l-22 28h-12l-10 18l-4 2q-2 6 -2 8l-4 4l-24 52h-2z" />
<glyph unicode="m" vert-adv-y="180" d="M428 924l2 -2v-2l2 -2v-2l2 -2v-2v-2v-2v-2v-2l-2 -2h-2l-2 -2v-2l-2 -2v-2v-2v-2v-2l2 -2l2 -4v-2v-2h-2v-2v-2l2 2h2l2 -2l4 2h2h2v2l4 -4l2 -2h2l2 4l4 -2l4 -2v0h2l4 2h2v-2l2 2h2l4 2l2 4h2v2h4l2 2l8 10h2l2 2l2 2l2 2h2v2v4v2l4 2l2 2h4h2h2v2h2v2v2v2l4 4l2 -2h4 h2h4l2 2h2l2 2l-2 2l-2 2l-2 4l-2 2v2v2v2h-2h-4l-4 -2l-2 -2l-2 -2h-2l-2 -2l-4 -2h-4l-4 -2h-2v-2l-2 2v2v2l-2 4v4l-2 2l2 2h2h-2v2h-4h-2l-2 2l-26 30h-2h-2v-2v-2l-2 -2h-8h-2v-4l-2 -6v-2v-6l-2 -8v-4l-2 -2l-2 -4l-2 -4h-4v-4l-2 -2l-2 -2h-2v-2z" />
<glyph unicode="n" vert-adv-y="180" d="M422 660l6 2h2l2 2v2l2 -2l6 -6h4v2l2 6l2 4v2l8 4l2 8l4 4h4h2v-6l-2 -2v-6v-8l-2 -16l2 -4l2 -2l-2 -2l-2 -2l-4 -6h-2l2 -4v-2l2 -2l2 -2v-4l2 -2v-4l4 -4l2 -4l4 -2l2 -6l2 -14l-98 54l-2 2h-4l4 2l4 -2h2h2v12h2v2l6 8l2 4l-4 2h-2l-4 4l8 2l6 -8h2h4l8 -6h6z" />
<glyph unicode="o" vert-adv-y="180" d="M436 832v2h2h2v-2v-2v-2v-4h2l4 2v-2v-2v-2h-2v-2l2 -2v4h2h2h2l4 2v-2v-2l2 -2h-2h4l4 2h2l8 2h2l6 2h4h2h2l2 2l2 2h2v2h2h4h2v2l2 2h2h2h2h4l2 2h2l2 2v2h2h2v2h-2v2v2l-2 2v2l-2 2l-2 4l2 2l2 2l2 2v4v2l-2 4l-2 4l-2 2l-2 2v4h-4l-2 2l-2 2l-2 2l10 10l2 -2h2l2 2h2 h2l2 2v2h2h2h2v-2h2l2 2v2h2v-2h2h2h2h2l2 2h2l2 2h2v10v2l-2 2l2 12l-4 2h-2v2v4l-2 2h-2l-2 2h-4h-4l2 -4v-4l2 -2l2 -2l2 -2v-4v-2v-2h-2l-2 -2v-2h-4h-2h-4l-2 2h-2h-2v-2l-2 -2v-2l-2 -2v-2h-2h-4l-4 -2l-2 -2v-2v-2l-2 -2v-2l-4 -2l-2 -2v-2h-2l-2 -2l-2 -2v-2h-2 l-8 -6l-2 -2h-2l-2 -4l-2 -2h-2l-2 -2h-4v2l-2 -2l-2 -2h-2h-2h-2l-2 2v2h-2h-2v-2v-2h-2h-2l-2 2l-2 2h-2h-2h-4h-2h-4l-2 -2v-2v-2h2l2 -2l2 -2v-2v-2v-2v-2v-2v-2v-2v0v-2v-2v0l2 -2v-2l-2 -2v-2v-2v-2h2z" />
<glyph unicode="p" vert-adv-y="180" d="M1170 312l-6 -4h-6h-4h-6h-8h-8l-4 2l-6 4l-4 2l-6 4h-6l-8 4l-2 6l-4 4l-4 4l-4 4v4v4v4l-18 42l-2 6l-2 4l-6 8l-4 2l-2 8l-6 2l-4 2h-4v4l-4 4l-2 2v4l-2 4l-6 6l-2 2h-4l-4 -2l-2 4v4l2 6l-2 6l-2 4v4l-4 2v6v6l-4 6l-2 6l-4 4v4l-2 2v4l-2 10l-4 6l-2 6l-6 4v8l-2 2 v2l2 2l6 2l6 4v4l-2 8l-4 6h-2l-4 2v4v4l-10 16l-4 4v4h-4l-2 2v4l12 -2h4h4v-4h6l8 8l2 6v6l4 2v4l-4 4l-4 12v2l4 4l4 2l4 6l2 2v4v6l-2 4v4l2 4v4l-2 2l-2 4v8l4 6l2 6l4 4l6 10l2 6l4 6l6 2h6h4l4 -2l4 2l2 2l2 4v4l2 2v8l4 4l2 2h4h4l4 2h2h2l10 -2h4l70 -122l12 -34 l6 -76l2 -12l-4 -6l-6 -2v-4l12 -36l-12 -24l-2 -4l-22 -36l-6 -4l-6 -6l-8 -2h-6l4 -6l34 -46l36 -54h-2l-4 4h-4h-4h-6h-2z" />
<glyph unicode="q" vert-adv-y="180" d="M370 800l-2 -2h-2v4v2h-2v4v2h-2h-2v2l2 2v2l2 2v2v2h2l2 4l-2 6v2l2 2l2 4l2 2v2l2 2l2 2l2 2l4 4l2 4v2v4v4v2v4v2h2l2 6v4v6l4 2l6 4l2 2h6l2 2l4 2v2v2h2l2 2l2 2v2v4v2l2 2l2 2h2l2 -2l4 -8v-2v-4v-2l-2 -2h-2l-2 -2v-2l-2 -2v-6v-2v-2l2 -2v-2l2 -2v-2h-2v-4v-4v-4 v-2h2l2 -2l2 -2l2 -2v-4v-2l-2 -2l-2 -2h-2h-2h-2h-4h-4l-2 2v-2h-2v-2h-2h-2l-2 -2v-2h-2v2l-2 2v2h-2l-2 -2v-2l-2 -2v-2h-2l-2 -2l-2 -2v-2v-2v-2l-2 -2v-2l2 -2v-2l-2 -2h-2h-2l-2 -2v-2l-2 -2l-2 -2l-4 -10l-2 -2v-2z" />
<glyph unicode="r" vert-adv-y="180" d="M602 906l4 -4l4 -6l2 -2l2 -4l-2 -2v-2l-2 -4v-2v-16h2v-2v-2v-2l6 -6v-4l-2 -2l2 -2h-2l-2 -4v-2h6v-2v-4v-2h4h2l2 -2v-2h12l2 4l2 2l2 2v2v4v2v4v6l2 2v2l-4 2l-4 2l-4 4l2 2l-2 2v4l-2 2v6l-2 2l-2 2h-2v4l2 2v4v2h-2v2v2v2l2 2v2v2l2 2l2 2v2l-2 2v2l2 2v4v4v2v2v2 v2h-2v2l-2 2l2 4v2h2v4l-2 2l2 4v4v2l4 4l2 4v4l2 2l2 2v2v4l-2 2v4v4v4l-2 4v2v2l-2 2l-2 -2l-4 -2h-2v-2h-2h-2v2h-2h-2h-2h-2l-2 -2v-2l-4 -2l-6 -6l-2 -2h-2l-16 -12l-26 12h-2l4 -4l2 -4l6 -2v-4l8 -4l4 -4l6 -2l2 -2l4 -2l-2 -2v-2v-2h-2v-2l2 -2h2l2 2l2 -2l4 -2v-4 h2h4l2 -4l2 -2h2v-4v-2v-2h2v-2v-2v-6v-2l-2 -4v-4v-2v-2l-4 2h-4h-2l-4 2v-2z" />
<glyph unicode="s" vert-adv-y="180" d="M1498 874v-72l2 -4v-134l90 -120v-10l-2 -2h-4h-40l-2 -2h-4l-2 2l-38 -2l-2 -4h-10l-4 -2l-12 -4l-16 -6l-18 -10l-18 -8l-40 -18v18l-4 8l-2 4l-4 4v20l4 4l-2 8l-4 4l-2 2l-4 2l-4 10l-2 2v4v24v6l-4 8l-2 6l-6 18l-4 4l-4 2l-2 4l2 2h2l-2 8l-2 10l-2 8l-2 8l-2 6 l-4 10l-6 8l-2 2l-8 6l-4 4l-4 4l-14 8l-2 6v4v10v10l-2 2l-6 6l-4 4l-6 6l-4 2l-6 4l-4 2l-8 8l-4 6l-4 -2v-2l-4 -2v-2l-2 -2h-2l-2 2v2l-4 2h-4h-4l-4 4l-4 4l-4 4l-4 4h-4h-8l-6 -2l-6 -6l-6 -2h-4h-6h-6l-6 -2h-2l-2 2v6v10l2 4v4l2 6l-2 12l-4 6l-4 24v6l-2 6v4h6l4 2 l12 12h12l2 2h4h10h2v4l2 4l4 2l8 4l6 2l4 2l4 6l4 8l4 8l4 4l10 8l6 2h6l4 2h4l2 -4l6 -10l2 -2l2 -6v-6l4 -6l2 -4l2 -4l2 -4h2l2 -4l10 -14l6 -6l6 -6l20 -10l8 -2l14 -8l10 -4l8 -4l6 -4v-4l4 -2l2 -4l6 -2v-2l2 -2l4 -2l18 -2h2l2 4q12 -2 14 -2l6 2l2 2h2l4 -2l8 2 l18 16h4l22 16l4 2l2 2l2 2v2l2 2v-2z" />
<glyph unicode="t" vert-adv-y="180" d="M512 886l2 -2l4 -2v-2l2 -2l2 -2l2 -2l2 -4v-4v-4v-4l-2 -2v-4v-2l2 -4v-2l2 -2v-4v-2h-2l-2 -2v-2h-2h-2v-2v-2l-2 -2v-4l-4 -2h-2l-4 -2v-2v-2v-2l-2 -2l-2 -4l-2 -2v-2l-2 -2h-2v0v-2l-4 -2v-2h2h2h8h6l4 2h4h6h4h2v-4h4h4v-2h2l2 2l2 2v6l2 -2v0l2 -2l2 -2h2l2 -2v2 h2h2h4l2 -2v-2l2 -6v0v-2h2l2 2h2h2l2 2h2h2l2 -2l2 -2h2h2h2l2 2l2 2l-2 2v4h-2v2l2 2l2 4h2v2v2l-2 4l-2 4l-2 4h-2l-4 2h-2v2v2l2 4v2h2h2v0v2h-2h-2v2h-2v0l-2 -2v2h-2l-2 2l-24 40l2 6h2l-2 4h2l-2 2h-2h-2h-2v0l-2 -2v2h-2h-2l-2 2v2l-30 -2v-2z" />
<glyph unicode="u" vert-adv-y="180" d="M884 700v-2l2 -2h2l2 -2v2h4v-4l2 -2v-2l2 -4v-4h2l2 2l4 -2l2 -2l2 2h8h2l2 2l4 2q2 -2 2 0h2v2v4v6v4v2v2v2v2v2l-2 2h-2l-2 2v2l-2 2h-2v2v4v2l2 4l-2 4v2l-16 32h-2v-2l-2 -2l-14 -36h-2v-6v-2v-2v-2h-2l-2 -2v-2v-2v-2l4 -2v-2v-2v-2z" />
<glyph unicode="v" vert-adv-y="180" d="M542 656l-8 2v2h2v2h2l6 8v2l-8 12h2h2h4h6h2h2v-2h2h2h2v2h2l4 2l2 2l2 2h2v2l-2 2l-2 2v2l-2 2l-2 2l-2 4l-2 2v2h2v4l-2 2l-2 2v2h2l2 2h2v2v2l2 2v2v0h4l2 2h2l2 -2h2l2 2h2l2 2h2h2h2h4h2l2 2v2h2l2 2v-2l2 -2l2 -2l2 -4l2 -4l6 -6l2 -6l4 -4v-2h-2l-2 -2h-2h-4 l-6 -2l-4 -2l-8 -2v-2h-2l2 -2l2 -4v-2v-2l2 -6v-2h2h2h2v-2l2 -2l2 -2l4 -2h2h2v-2l-2 -2h-2h-2l-2 -4l-10 -8v-8l-4 -2h-2h-6l-16 -10v0l-24 20h-4z" />
<glyph unicode="w" vert-adv-y="180" d="M840 922l-4 2l-2 4l-4 6l-4 8h-2h-2l-4 -2v-2l-4 -4l-4 -2h-6h-30v4v2l-4 -2v-4l-20 -26l-2 -2h-6h-2v-6l2 -4v-2l-2 -4l-6 -14v-2v-2l2 -4h2l-2 -12v-6l-2 -2l-2 -6l-2 -2l2 -4l6 -6v-4l4 -4l-2 -4l-2 -2l-2 -4v-4v-2h2h4h2h2l4 2h2l2 2q0 2 2 2v4l4 2l4 4l8 2h4v-2 l2 -2v-4h2h4h6v-4l2 -2l2 -2l4 -2h2v-4l-2 -2l-2 -2h-4h-2l-4 -2v-2v-4l2 -2h4h4l2 -2l4 -2v-4l6 4h2h8h6h6v-4l4 -2v-6l-2 -2v-4l2 -4v-2l4 -2h6h4l4 2v4v8v8l-2 2l-2 4v2v6l4 2l6 2l4 2l4 2l2 -2v-2v6v4l6 2l6 4q4 0 8 4l2 1l2 1l2 4l6 6l4 4l4 4l2 2l4 6q-2 2 0 4l2 4v0 h2v8l-4 4l-4 4v14l-78 10v6l2 4l4 4l2 4l2 6z" />
<glyph unicode="x" vert-adv-y="180" d="M460 798l-2 -2v-2l-2 -2l-2 2h-2v4l2 2v6l2 2v2l2 2l4 2l2 2h2h4h4h2l4 2h2h2h2h2h2l2 2v2h4l4 2v2h2h4v2h2h2h2h2h2v-2l-2 -2h-2l-2 -2l-6 -4v-2v-2v-2v-2h-2v-2v-2h-2v-2h-4v-2h-2h-2h-2v-2l-2 -2h-4h-2v-2h-2h-2h-2h-2h-2h-2h-2h-2v2h-2l-2 2h-2v-2z" />
<glyph unicode="y" vert-adv-y="180" d="M1276 152l-2 2l-2 4l2 4h4h2h4v2l2 2l2 2l2 -2l2 -2l4 -2l2 -2l-2 -2l-2 -2l-2 -4l-4 2l-4 -2l-2 2v-2h-2h-4zM1286 140l2 2h-2l-4 2v2h-2h-2v-2l2 -2l2 -2l2 -2zM1282 148l2 -2h4h2l2 2v4l-4 -2h-4z" />
<glyph unicode="z" vert-adv-y="180" d="M1216 308l106 116h2l4 -4l16 -20l2 -8l2 -2l4 -4l2 -6l16 -20l-2 -4l-2 -4l2 -2v-6l-2 -4v-4l-2 -4l2 -4v-4v-2v-4h4l4 2v-4h-4v-4l-4 -4l-2 -6v-4l-4 -4l-2 -4v-4v-6v-6v-4l-6 -2l-2 -2l-8 -4l-4 -4v6l-2 4l-4 -4v-4v-6v-6l-12 -28l-2 -2h-4h-2l-2 4l-2 -2l-2 2l-4 2v-4 l2 -2l4 -2v-2l2 -2h2h6v-10l-4 -10l-2 -8l-4 -6l-4 -8l-2 -4h-8l-2 2l-4 2l-4 2h-2v-4l-2 -2h-6l-2 -2h-4l-2 4l-4 6l-4 4l-4 4l-4 4l-6 2l-2 2v2l-2 2v2v4v4h-2l-4 2v8v4l-2 4l-2 4l-4 2l-4 2h-6h-6h-8h-4h-4l2 8l2 6l2 8l4 6l2 8l4 8l4 10l2 6v18z" />
<glyph unicode="{" vert-adv-y="180" d="M1552 926q-6 -26 -24 -24l-186 34q-18 2 -12 28l4 30q4 26 24 22l184 -32q18 -4 14 -28zM1510 1302q-12 24 -30 16l-168 -84q-16 -10 -4 -32l14 -28q10 -22 28 -14l168 84q16 8 4 32zM1286 1542q-22 12 -32 -4l-92 -164q-8 -16 14 -30l26 -14q24 -14 32 4l92 162 q10 18 -14 30zM1324 1058q0 130 -92 223t-222 93v-118q82 0 139 -58t57 -140q0 -62 -34 -112t-90 -72h-54q-14 0 -18 -14v-4q-2 -2 -2 -4v-128q0 -22 20 -22h70q18 0 18 22v36q92 34 150 115t58 183zM452 926q4 -26 22 -24l186 34q18 2 14 28l-6 30q-4 26 -24 22l-184 -32 q-18 -4 -14 -28zM480 1276q-12 -24 4 -32l168 -84q18 -8 30 14l12 28q12 22 -4 32l-168 84q-18 8 -30 -16zM690 1526q-24 -12 -14 -30l92 -162q10 -18 32 -4l26 14q24 14 14 30l-92 164q-10 16 -32 4zM1196 680h-194v-118h194q16 0 27 11t11 27v44q0 14 -11 25t-27 11z M808 680h192v-118h-192q-16 0 -28 11t-12 27v44q0 14 12 25t28 11zM1180 540h-178v-118h178q14 0 25 11t11 27v44q0 14 -11 25t-25 11zM822 540h178v-118h-178q-14 0 -25 11t-11 27v44q0 14 11 25t25 11zM1164 400h-162v-118h162q14 0 23 11t9 27v42q0 16 -9 27t-23 11z M838 400h162v-118h-162q-14 0 -23 11t-9 27v42q0 16 9 27t23 11zM1002 252v-198q40 0 69 29t29 70t-29 70t-69 29zM1000 252v-198q-40 0 -69 29t-29 70t29 70t69 29zM1148 260h-146v-106h146q14 0 22 10t8 24v38q0 14 -8 24t-22 10zM854 260h146v-106h-146q-12 0 -21 10 t-9 24v38q0 14 9 24t21 10zM886 760v-36q0 -22 20 -22h68q20 0 20 22v128v4v4h-2q-4 14 -18 14h-54q-56 22 -90 72t-34 112q0 82 58 140t140 58v118q-132 0 -224 -93t-92 -223q0 -102 58 -183t150 -115z" />
<glyph unicode="|" vert-adv-y="180" d="M1552 926q-6 -26 -24 -24l-186 34q-18 2 -12 28l4 30q4 26 24 22l184 -32q18 -4 14 -28zM1510 1302q-12 24 -30 16l-168 -84q-16 -10 -4 -32l14 -28q10 -22 28 -14l168 84q16 8 4 32zM1286 1542q-22 12 -32 -4l-92 -164q-8 -16 14 -30l26 -14q24 -14 32 4l92 162 q10 18 -14 30zM1324 1058q0 130 -92 223t-222 93v-118q82 0 139 -58t57 -140q0 -62 -34 -112t-90 -72h-54q-14 0 -18 -14v-4q-2 -2 -2 -4v-128q0 -22 20 -22h70q18 0 18 22v36q92 34 150 115t58 183zM452 926q4 -26 22 -24l186 34q18 2 14 28l-6 30q-4 26 -24 22l-184 -32 q-18 -4 -14 -28zM480 1276q-12 -24 4 -32l168 -84q18 -8 30 14l12 28q12 22 -4 32l-168 84q-18 8 -30 -16zM690 1526q-24 -12 -14 -30l92 -162q10 -18 32 -4l26 14q24 14 14 30l-92 164q-10 16 -32 4zM1196 680h-194v-118h194q16 0 27 11t11 27v44q0 14 -11 25t-27 11z M808 680h192v-118h-192q-16 0 -28 11t-12 27v44q0 14 12 25t28 11zM1180 540h-178v-118h178q14 0 25 11t11 27v44q0 14 -11 25t-25 11zM822 540h178v-118h-178q-14 0 -25 11t-11 27v44q0 14 11 25t25 11zM1164 400h-162v-118h162q14 0 23 11t9 27v42q0 16 -9 27t-23 11z M838 400h162v-118h-162q-14 0 -23 11t-9 27v42q0 16 9 27t23 11zM1002 252v-198q40 0 69 29t29 70t-29 70t-69 29zM1000 252v-198q-40 0 -69 29t-29 70t29 70t69 29zM1148 260h-146v-106h146q14 0 22 10t8 24v38q0 14 -8 24t-22 10zM854 260h146v-106h-146q-12 0 -21 10 t-9 24v38q0 14 9 24t21 10zM886 760v-36q0 -22 20 -22h68q20 0 20 22v128v4v4h-2q-4 14 -18 14h-54q-56 22 -90 72t-34 112q0 82 58 140t140 58v118q-132 0 -224 -93t-92 -223q0 -102 58 -183t150 -115z" />
<glyph unicode="}" vert-adv-y="180" d="M1552 926q-6 -26 -24 -24l-186 34q-18 2 -12 28l4 30q4 26 24 22l184 -32q18 -4 14 -28zM1510 1302q-12 24 -30 16l-168 -84q-16 -10 -4 -32l14 -28q10 -22 28 -14l168 84q16 8 4 32zM1286 1542q-22 12 -32 -4l-92 -164q-8 -16 14 -30l26 -14q24 -14 32 4l92 162 q10 18 -14 30zM1324 1058q0 130 -92 223t-222 93v-118q82 0 139 -58t57 -140q0 -62 -34 -112t-90 -72h-54q-14 0 -18 -14v-4q-2 -2 -2 -4v-128q0 -22 20 -22h70q18 0 18 22v36q92 34 150 115t58 183zM452 926q4 -26 22 -24l186 34q18 2 14 28l-6 30q-4 26 -24 22l-184 -32 q-18 -4 -14 -28zM480 1276q-12 -24 4 -32l168 -84q18 -8 30 14l12 28q12 22 -4 32l-168 84q-18 8 -30 -16zM690 1526q-24 -12 -14 -30l92 -162q10 -18 32 -4l26 14q24 14 14 30l-92 164q-10 16 -32 4zM1196 680h-194v-118h194q16 0 27 11t11 27v44q0 14 -11 25t-27 11z M808 680h192v-118h-192q-16 0 -28 11t-12 27v44q0 14 12 25t28 11zM1180 540h-178v-118h178q14 0 25 11t11 27v44q0 14 -11 25t-25 11zM822 540h178v-118h-178q-14 0 -25 11t-11 27v44q0 14 11 25t25 11zM1164 400h-162v-118h162q14 0 23 11t9 27v42q0 16 -9 27t-23 11z M838 400h162v-118h-162q-14 0 -23 11t-9 27v42q0 16 9 27t23 11zM1002 252v-198q40 0 69 29t29 70t-29 70t-69 29zM1000 252v-198q-40 0 -69 29t-29 70t29 70t69 29zM1148 260h-146v-106h146q14 0 22 10t8 24v38q0 14 -8 24t-22 10zM854 260h146v-106h-146q-12 0 -21 10 t-9 24v38q0 14 9 24t21 10zM886 760v-36q0 -22 20 -22h68q20 0 20 22v128v4v4h-2q-4 14 -18 14h-54q-56 22 -90 72t-34 112q0 82 58 140t140 58v118q-132 0 -224 -93t-92 -223q0 -102 58 -183t150 -115z" />
<glyph unicode="~" vert-adv-y="180" d="M1552 926q-6 -26 -24 -24l-186 34q-18 2 -12 28l4 30q4 26 24 22l184 -32q18 -4 14 -28zM1510 1302q-12 24 -30 16l-168 -84q-16 -10 -4 -32l14 -28q10 -22 28 -14l168 84q16 8 4 32zM1286 1542q-22 12 -32 -4l-92 -164q-8 -16 14 -30l26 -14q24 -14 32 4l92 162 q10 18 -14 30zM1324 1058q0 130 -92 223t-222 93v-118q82 0 139 -58t57 -140q0 -62 -34 -112t-90 -72h-54q-14 0 -18 -14v-4q-2 -2 -2 -4v-128q0 -22 20 -22h70q18 0 18 22v36q92 34 150 115t58 183zM452 926q4 -26 22 -24l186 34q18 2 14 28l-6 30q-4 26 -24 22l-184 -32 q-18 -4 -14 -28zM480 1276q-12 -24 4 -32l168 -84q18 -8 30 14l12 28q12 22 -4 32l-168 84q-18 8 -30 -16zM690 1526q-24 -12 -14 -30l92 -162q10 -18 32 -4l26 14q24 14 14 30l-92 164q-10 16 -32 4zM1196 680h-194v-118h194q16 0 27 11t11 27v44q0 14 -11 25t-27 11z M808 680h192v-118h-192q-16 0 -28 11t-12 27v44q0 14 12 25t28 11zM1180 540h-178v-118h178q14 0 25 11t11 27v44q0 14 -11 25t-25 11zM822 540h178v-118h-178q-14 0 -25 11t-11 27v44q0 14 11 25t25 11zM1164 400h-162v-118h162q14 0 23 11t9 27v42q0 16 -9 27t-23 11z M838 400h162v-118h-162q-14 0 -23 11t-9 27v42q0 16 9 27t23 11zM1002 252v-198q40 0 69 29t29 70t-29 70t-69 29zM1000 252v-198q-40 0 -69 29t-29 70t29 70t69 29zM1148 260h-146v-106h146q14 0 22 10t8 24v38q0 14 -8 24t-22 10zM854 260h146v-106h-146q-12 0 -21 10 t-9 24v38q0 14 9 24t21 10zM886 760v-36q0 -22 20 -22h68q20 0 20 22v128v4v4h-2q-4 14 -18 14h-54q-56 22 -90 72t-34 112q0 82 58 140t140 58v118q-132 0 -224 -93t-92 -223q0 -102 58 -183t150 -115z" />
<glyph unicode="&#xad;" vert-adv-y="180" d="M1552 926q-6 -26 -24 -24l-186 34q-18 2 -12 28l4 30q4 26 24 22l184 -32q18 -4 14 -28zM1510 1302q-12 24 -30 16l-168 -84q-16 -10 -4 -32l14 -28q10 -22 28 -14l168 84q16 8 4 32zM1286 1542q-22 12 -32 -4l-92 -164q-8 -16 14 -30l26 -14q24 -14 32 4l92 162 q10 18 -14 30zM1324 1058q0 130 -92 223t-222 93v-118q82 0 139 -58t57 -140q0 -62 -34 -112t-90 -72h-54q-14 0 -18 -14v-4q-2 -2 -2 -4v-128q0 -22 20 -22h70q18 0 18 22v36q92 34 150 115t58 183zM452 926q4 -26 22 -24l186 34q18 2 14 28l-6 30q-4 26 -24 22l-184 -32 q-18 -4 -14 -28zM480 1276q-12 -24 4 -32l168 -84q18 -8 30 14l12 28q12 22 -4 32l-168 84q-18 8 -30 -16zM690 1526q-24 -12 -14 -30l92 -162q10 -18 32 -4l26 14q24 14 14 30l-92 164q-10 16 -32 4zM1196 680h-194v-118h194q16 0 27 11t11 27v44q0 14 -11 25t-27 11z M808 680h192v-118h-192q-16 0 -28 11t-12 27v44q0 14 12 25t28 11zM1180 540h-178v-118h178q14 0 25 11t11 27v44q0 14 -11 25t-25 11zM822 540h178v-118h-178q-14 0 -25 11t-11 27v44q0 14 11 25t25 11zM1164 400h-162v-118h162q14 0 23 11t9 27v42q0 16 -9 27t-23 11z M838 400h162v-118h-162q-14 0 -23 11t-9 27v42q0 16 9 27t23 11zM1002 252v-198q40 0 69 29t29 70t-29 70t-69 29zM1000 252v-198q-40 0 -69 29t-29 70t29 70t69 29zM1148 260h-146v-106h146q14 0 22 10t8 24v38q0 14 -8 24t-22 10zM854 260h146v-106h-146q-12 0 -21 10 t-9 24v38q0 14 9 24t21 10zM886 760v-36q0 -22 20 -22h68q20 0 20 22v128v4v4h-2q-4 14 -18 14h-54q-56 22 -90 72t-34 112q0 82 58 140t140 58v118q-132 0 -224 -93t-92 -223q0 -102 58 -183t150 -115z" />
<glyph unicode="&#x2000;" horiz-adv-x="774" vert-adv-y="0" />
<glyph unicode="&#x2001;" horiz-adv-x="1548" vert-adv-y="0" />
<glyph unicode="&#x2002;" horiz-adv-x="774" vert-adv-y="0" />
<glyph unicode="&#x2003;" horiz-adv-x="1548" vert-adv-y="0" />
<glyph unicode="&#x2004;" horiz-adv-x="516" vert-adv-y="0" />
<glyph unicode="&#x2005;" horiz-adv-x="387" vert-adv-y="0" />
<glyph unicode="&#x2006;" horiz-adv-x="258" vert-adv-y="0" />
<glyph unicode="&#x2007;" horiz-adv-x="258" vert-adv-y="0" />
<glyph unicode="&#x2008;" horiz-adv-x="193" vert-adv-y="0" />
<glyph unicode="&#x2009;" horiz-adv-x="309" vert-adv-y="0" />
<glyph unicode="&#x200a;" horiz-adv-x="86" vert-adv-y="0" />
<glyph unicode="&#x2010;" vert-adv-y="180" d="M1552 926q-6 -26 -24 -24l-186 34q-18 2 -12 28l4 30q4 26 24 22l184 -32q18 -4 14 -28zM1510 1302q-12 24 -30 16l-168 -84q-16 -10 -4 -32l14 -28q10 -22 28 -14l168 84q16 8 4 32zM1286 1542q-22 12 -32 -4l-92 -164q-8 -16 14 -30l26 -14q24 -14 32 4l92 162 q10 18 -14 30zM1324 1058q0 130 -92 223t-222 93v-118q82 0 139 -58t57 -140q0 -62 -34 -112t-90 -72h-54q-14 0 -18 -14v-4q-2 -2 -2 -4v-128q0 -22 20 -22h70q18 0 18 22v36q92 34 150 115t58 183zM452 926q4 -26 22 -24l186 34q18 2 14 28l-6 30q-4 26 -24 22l-184 -32 q-18 -4 -14 -28zM480 1276q-12 -24 4 -32l168 -84q18 -8 30 14l12 28q12 22 -4 32l-168 84q-18 8 -30 -16zM690 1526q-24 -12 -14 -30l92 -162q10 -18 32 -4l26 14q24 14 14 30l-92 164q-10 16 -32 4zM1196 680h-194v-118h194q16 0 27 11t11 27v44q0 14 -11 25t-27 11z M808 680h192v-118h-192q-16 0 -28 11t-12 27v44q0 14 12 25t28 11zM1180 540h-178v-118h178q14 0 25 11t11 27v44q0 14 -11 25t-25 11zM822 540h178v-118h-178q-14 0 -25 11t-11 27v44q0 14 11 25t25 11zM1164 400h-162v-118h162q14 0 23 11t9 27v42q0 16 -9 27t-23 11z M838 400h162v-118h-162q-14 0 -23 11t-9 27v42q0 16 9 27t23 11zM1002 252v-198q40 0 69 29t29 70t-29 70t-69 29zM1000 252v-198q-40 0 -69 29t-29 70t29 70t69 29zM1148 260h-146v-106h146q14 0 22 10t8 24v38q0 14 -8 24t-22 10zM854 260h146v-106h-146q-12 0 -21 10 t-9 24v38q0 14 9 24t21 10zM886 760v-36q0 -22 20 -22h68q20 0 20 22v128v4v4h-2q-4 14 -18 14h-54q-56 22 -90 72t-34 112q0 82 58 140t140 58v118q-132 0 -224 -93t-92 -223q0 -102 58 -183t150 -115z" />
<glyph unicode="&#x2011;" vert-adv-y="180" d="M1552 926q-6 -26 -24 -24l-186 34q-18 2 -12 28l4 30q4 26 24 22l184 -32q18 -4 14 -28zM1510 1302q-12 24 -30 16l-168 -84q-16 -10 -4 -32l14 -28q10 -22 28 -14l168 84q16 8 4 32zM1286 1542q-22 12 -32 -4l-92 -164q-8 -16 14 -30l26 -14q24 -14 32 4l92 162 q10 18 -14 30zM1324 1058q0 130 -92 223t-222 93v-118q82 0 139 -58t57 -140q0 -62 -34 -112t-90 -72h-54q-14 0 -18 -14v-4q-2 -2 -2 -4v-128q0 -22 20 -22h70q18 0 18 22v36q92 34 150 115t58 183zM452 926q4 -26 22 -24l186 34q18 2 14 28l-6 30q-4 26 -24 22l-184 -32 q-18 -4 -14 -28zM480 1276q-12 -24 4 -32l168 -84q18 -8 30 14l12 28q12 22 -4 32l-168 84q-18 8 -30 -16zM690 1526q-24 -12 -14 -30l92 -162q10 -18 32 -4l26 14q24 14 14 30l-92 164q-10 16 -32 4zM1196 680h-194v-118h194q16 0 27 11t11 27v44q0 14 -11 25t-27 11z M808 680h192v-118h-192q-16 0 -28 11t-12 27v44q0 14 12 25t28 11zM1180 540h-178v-118h178q14 0 25 11t11 27v44q0 14 -11 25t-25 11zM822 540h178v-118h-178q-14 0 -25 11t-11 27v44q0 14 11 25t25 11zM1164 400h-162v-118h162q14 0 23 11t9 27v42q0 16 -9 27t-23 11z M838 400h162v-118h-162q-14 0 -23 11t-9 27v42q0 16 9 27t23 11zM1002 252v-198q40 0 69 29t29 70t-29 70t-69 29zM1000 252v-198q-40 0 -69 29t-29 70t29 70t69 29zM1148 260h-146v-106h146q14 0 22 10t8 24v38q0 14 -8 24t-22 10zM854 260h146v-106h-146q-12 0 -21 10 t-9 24v38q0 14 9 24t21 10zM886 760v-36q0 -22 20 -22h68q20 0 20 22v128v4v4h-2q-4 14 -18 14h-54q-56 22 -90 72t-34 112q0 82 58 140t140 58v118q-132 0 -224 -93t-92 -223q0 -102 58 -183t150 -115z" />
<glyph unicode="&#x2012;" vert-adv-y="180" d="M1552 926q-6 -26 -24 -24l-186 34q-18 2 -12 28l4 30q4 26 24 22l184 -32q18 -4 14 -28zM1510 1302q-12 24 -30 16l-168 -84q-16 -10 -4 -32l14 -28q10 -22 28 -14l168 84q16 8 4 32zM1286 1542q-22 12 -32 -4l-92 -164q-8 -16 14 -30l26 -14q24 -14 32 4l92 162 q10 18 -14 30zM1324 1058q0 130 -92 223t-222 93v-118q82 0 139 -58t57 -140q0 -62 -34 -112t-90 -72h-54q-14 0 -18 -14v-4q-2 -2 -2 -4v-128q0 -22 20 -22h70q18 0 18 22v36q92 34 150 115t58 183zM452 926q4 -26 22 -24l186 34q18 2 14 28l-6 30q-4 26 -24 22l-184 -32 q-18 -4 -14 -28zM480 1276q-12 -24 4 -32l168 -84q18 -8 30 14l12 28q12 22 -4 32l-168 84q-18 8 -30 -16zM690 1526q-24 -12 -14 -30l92 -162q10 -18 32 -4l26 14q24 14 14 30l-92 164q-10 16 -32 4zM1196 680h-194v-118h194q16 0 27 11t11 27v44q0 14 -11 25t-27 11z M808 680h192v-118h-192q-16 0 -28 11t-12 27v44q0 14 12 25t28 11zM1180 540h-178v-118h178q14 0 25 11t11 27v44q0 14 -11 25t-25 11zM822 540h178v-118h-178q-14 0 -25 11t-11 27v44q0 14 11 25t25 11zM1164 400h-162v-118h162q14 0 23 11t9 27v42q0 16 -9 27t-23 11z M838 400h162v-118h-162q-14 0 -23 11t-9 27v42q0 16 9 27t23 11zM1002 252v-198q40 0 69 29t29 70t-29 70t-69 29zM1000 252v-198q-40 0 -69 29t-29 70t29 70t69 29zM1148 260h-146v-106h146q14 0 22 10t8 24v38q0 14 -8 24t-22 10zM854 260h146v-106h-146q-12 0 -21 10 t-9 24v38q0 14 9 24t21 10zM886 760v-36q0 -22 20 -22h68q20 0 20 22v128v4v4h-2q-4 14 -18 14h-54q-56 22 -90 72t-34 112q0 82 58 140t140 58v118q-132 0 -224 -93t-92 -223q0 -102 58 -183t150 -115z" />
<glyph unicode="&#x2013;" horiz-adv-x="1960" vert-adv-y="180" d="M1465 926q-6 -26 -22 -24l-172 34q-16 2 -11 28l4 30q3 26 22 22l169 -32q17 -4 13 -28zM1426 1302q-11 24 -28 16l-154 -84q-15 -10 -4 -32l13 -28q9 -22 26 -14l154 84q15 8 4 32zM1220 1542q-21 12 -30 -4l-85 -164q-7 -16 13 -30l24 -14q22 -14 30 4l84 162 q10 18 -12 30zM1255 1058q0 130 -85 223t-205 93v-118q76 0 128.5 -58t52.5 -140q0 -62 -31.5 -112t-82.5 -72h-50q-13 0 -17 -14v-4q-2 -2 -2 -4v-128q0 -22 19 -22h64q17 0 17 22v36q85 34 138.5 115t53.5 183zM451 926q4 -26 20 -24l172 34q16 2 13 28l-6 30 q-3 26 -22 22l-169 -32q-17 -4 -13 -28zM477 1276q-11 -24 4 -32l154 -84q17 -8 28 14l11 28q11 22 -4 32l-154 84q-17 8 -28 -16zM670 1526q-22 -12 -12 -30l84 -162q10 -18 30 -4l24 14q22 14 13 30l-85 164q-9 16 -30 4zM1137 680h-179v-118h179q14 0 24.5 11t10.5 27v44 q0 14 -10.5 25t-24.5 11zM779 680h177v-118h-177q-15 0 -26 11t-11 27v44q0 14 11 25t26 11zM1122 540h-164v-118h164q13 0 23 11t10 27v44q0 14 -10 25t-23 11zM792 540h164v-118h-164q-13 0 -23 11t-10 27v44q0 14 10 25t23 11zM1107 400h-149v-118h149q13 0 21.5 11 t8.5 27v42q0 16 -8.5 27t-21.5 11zM807 400h149v-118h-149q-13 0 -21.5 11t-8.5 27v42q0 16 8.5 27t21.5 11zM958 252v-198q37 0 63.5 29t26.5 70t-26.5 70t-63.5 29zM956 252v-198q-37 0 -63.5 29t-26.5 70t26.5 70t63.5 29zM1092 260h-134v-106h134q13 0 20.5 10t7.5 24 v38q0 14 -7.5 24t-20.5 10zM822 260h134v-106h-134q-11 0 -19.5 10t-8.5 24v38q0 14 8.5 24t19.5 10zM851 760v-36q0 -22 18 -22h63q19 0 19 22v128v4v4h-2q-4 14 -17 14h-50q-51 22 -82.5 72t-31.5 112q0 82 53.5 140t129.5 58v118q-122 0 -207 -93t-85 -223 q0 -102 53.5 -183t138.5 -115z" />
<glyph unicode="&#x2014;" horiz-adv-x="2984" vert-adv-y="180" d="M2484 926q-11 -26 -44 -24l-343 34q-33 2 -22 28l8 30q7 26 44 22l339 -32q33 -4 26 -28zM2407 1302q-22 24 -55 16l-310 -84q-29 -10 -7 -32l25 -28q19 -22 52 -14l310 84q29 8 7 32zM1994 1542q-40 12 -59 -4l-169 -164q-15 -16 25 -30l48 -14q45 -14 59 4l170 162 q18 18 -26 30zM2064 1058q0 130 -169.5 223t-408.5 93v-118q151 0 256 -58t105 -140q0 -62 -63 -112t-166 -72h-99q-26 0 -33 -14v-4q-4 -2 -4 -4v-128q0 -22 37 -22h129q33 0 33 22v36q169 34 276 115t107 183zM457 926q8 -26 41 -24l343 34q33 2 25 28l-11 30 q-7 26 -44 22l-339 -32q-33 -4 -26 -28zM509 1276q-22 -24 7 -32l310 -84q33 -8 55 14l22 28q22 22 -7 32l-310 84q-33 8 -55 -16zM896 1526q-44 -12 -26 -30l170 -162q18 -18 59 -4l48 14q44 14 25 30l-169 164q-19 16 -59 4zM1828 680h-357v-118h357q30 0 50 11t20 27v44 q0 14 -20 25t-50 11zM1113 680h354v-118h-354q-29 0 -51 11t-22 27v44q0 14 22 25t51 11zM1799 540h-328v-118h328q26 0 46 11t20 27v44q0 14 -20 25t-46 11zM1139 540h328v-118h-328q-26 0 -46 11t-20 27v44q0 14 20 25t46 11zM1769 400h-298v-118h298q26 0 42.5 11 t16.5 27v42q0 16 -16.5 27t-42.5 11zM1169 400h298v-118h-298q-26 0 -42.5 11t-16.5 27v42q0 16 16.5 27t42.5 11zM1471 252v-198q74 0 127 29t53 70t-53 70t-127 29zM1467 252v-198q-74 0 -127 29t-53 70t53 70t127 29zM1740 260h-269v-106h269q26 0 40.5 10t14.5 24v38 q0 14 -14.5 24t-40.5 10zM1198 260h269v-106h-269q-22 0 -38.5 10t-16.5 24v38q0 14 16.5 24t38.5 10zM1257 760v-36q0 -22 37 -22h125q37 0 37 22v128v4v4h-4q-7 14 -33 14h-99q-103 22 -166 72t-63 112q0 82 107 140t258 58v118q-243 0 -412.5 -93t-169.5 -223 q0 -102 107 -183t276 -115z" />
<glyph unicode="&#x202f;" horiz-adv-x="309" vert-adv-y="0" />
<glyph unicode="&#x205f;" horiz-adv-x="387" vert-adv-y="0" />
<glyph unicode="&#xe000;" horiz-adv-x="830" vert-adv-y="1660" d="M0 830h830v-830h-830v830z" />
</font>
</defs>
</svg>
